<?xml version="1.0" encoding="utf-8"?>
<!-- Generator: Adobe Illustrator 24.0.1, SVG Export Plug-In . SVG Version: 6.00 Build 0)  -->
<svg version="1.1" id="图层_1" xmlns="http://www.w3.org/2000/svg" xmlns:xlink="http://www.w3.org/1999/xlink" x="0px" y="0px"
	 viewBox="0 0 551 133" style="enable-background:new 0 0 551 133;" xml:space="preserve">
<style type="text/css">
	.st0{fill:#231815;}
	.st1{fill:#E50012;}
	.st2{fill:none;stroke:#231815;stroke-miterlimit:10;}
</style>
<g>
	<path class="st0" d="M236.5,70.2H230h0c-0.2,0-0.3,0.2-0.3,0.5v27.7c0,0.2-0.1,0.3-0.3,0.3h-5.1h-0.1c-0.2,0-0.3-0.1-0.3-0.3V70.7
		c0-0.3-0.2-0.4-0.4-0.5h-7.2c-0.2,0-0.3-0.1-0.4-0.3v-4.6c0-0.2,0.2-0.4,0.4-0.4h20.3c0.3,0.1,0.4,0.2,0.4,0.4v4.6
		C236.9,70.1,236.7,70.2,236.5,70.2z M221.7,72.3v20.3c0,2.7-1.2,4.3-3.6,4.7h-1.8c-0.3,0-0.4-0.1-0.4-0.3v-4.6l0.6-0.5
		c0.2-0.1,0.3-0.3,0.3-0.5V72.3c0-0.3,0.2-0.4,0.4-0.5h4.1C221.5,71.9,221.6,72,221.7,72.3z M216.4,61.9v-4.8
		c0.1-0.2,0.3-0.4,0.5-0.4h19.3c0.3-0.1,0.4,0,0.4,0.2v4.8c-0.1,0.2-0.2,0.4-0.4,0.4h-19.5C216.5,62.1,216.4,62,216.4,61.9z
		 M258.9,59.6v31.9c-0.1,2.3-1.2,3.5-3.2,3.6H252h-0.2c-0.3,0-0.5,0.1-0.5,0.3v2.7c0,0.3-0.2,0.4-0.4,0.5H246
		c-0.2-0.1-0.4-0.2-0.4-0.5v-2.7c0-0.2-0.2-0.4-0.5-0.4h-6.7c-0.2,0.1-0.2,0.2-0.2,0.4v1.7c0,0.2-0.2,0.3-0.4,0.3h-1.5
		c-1.5,0.1-2.7-0.1-3.5-0.6c-0.8-0.5-1.3-1.3-1.4-2.4V72.4c0.1-0.3,0.2-0.5,0.5-0.6h3.5c0.2,0.1,0.4,0.3,0.4,0.6v18.5V91
		c0,0.4,0.2,0.6,0.7,0.7h1.3c0.1,0,0.2-0.2,0.2-0.4V59.6c0-0.2,0.2-0.3,0.4-0.3h7l0.1-0.2h0.2v-2.8c0-0.2,0.2-0.4,0.4-0.4h4.9
		c0.3,0,0.4,0.1,0.4,0.4v2.6c0,0.2,0.2,0.4,0.5,0.4h6.7C258.7,59.3,258.8,59.4,258.9,59.6z M245.7,65.2c0-0.4-0.2-0.7-0.7-0.7h-1.2
		c-0.3,0.1-0.4,0.3-0.4,0.7v8.3v0.1c0,0.3,0.1,0.5,0.4,0.6h1.6c0.2-0.1,0.3-0.3,0.3-0.6v-8.2V65.2z M245.7,80.4
		c0-0.4-0.1-0.5-0.3-0.6h-1.6c-0.3,0.1-0.4,0.3-0.4,0.5v8.8c0.1,0.5,0.2,0.7,0.4,0.7h1.1c0.5-0.1,0.7-0.2,0.8-0.4V80.4z M253.4,64.9
		c0-0.2-0.2-0.3-0.7-0.4h-0.9c-0.3,0-0.5,0.2-0.5,0.4v8.4c0,0.5,0.2,0.8,0.5,0.8h1.2c0.2-0.1,0.4-0.3,0.4-0.6V64.9z M253.4,80.7
		c0-0.5-0.1-0.8-0.4-0.9h-0.9c-0.5,0.1-0.8,0.3-0.8,0.5v8.7c0,0.5,0.2,0.8,0.5,0.8h1.2c0.3-0.1,0.4-0.3,0.4-0.5V80.7z"/>
	<path class="st0" d="M265.9,58.9l-1.2-2.4c-0.1-0.3,0-0.5,0.3-0.6h5.7c0.4,0,0.6,0.2,0.8,0.4l1.5,2.5c0.1,0.4,0.4,0.6,0.7,0.6h2.5
		c0.2,0.1,0.4-0.1,0.5-0.5l1.6-2.7c0.1-0.3,0.3-0.4,0.6-0.5h5.8c0.2,0,0.3,0.1,0.3,0.3l0,0.2l-1.3,2.7c-0.1,0.2-0.1,0.4,0.1,0.5h1.5
		c0.2,0,0.3,0.1,0.3,0.3v4.4c0,0.2-0.2,0.3-0.4,0.3h-7.7c-0.2,0-0.3,0.1-0.3,0.3v16.4c0,0.2,0.2,0.4,0.4,0.4h0.7
		c0.2,0,0.3-0.2,0.3-0.4v-14c0.1-0.3,0.2-0.4,0.5-0.5h5c0.2,0,0.3,0.2,0.3,0.5v15.6c0.1,2.6-1,4.1-3.4,4.3h-3.4
		c-0.2,0-0.4,0.2-0.4,0.4v6.4c-0.2,3.4-2,5.1-5.5,5h-7.6c-0.2,0-0.4-0.2-0.4-0.4V94c0-0.2,0.2-0.4,0.4-0.4h6.1
		c0.5,0,0.8-0.2,0.9-0.7v-5.5c0-0.2-0.2-0.4-0.4-0.4h-6.4c-0.2,0.1-0.3-0.1-0.4-0.4V67.1c0-0.3,0.2-0.4,0.4-0.5h4.8
		c0.3,0.1,0.4,0.2,0.5,0.5v14c0,0.2,0.2,0.4,0.4,0.4h0.6c0.3,0,0.4-0.2,0.5-0.4V64.8c0-0.2-0.2-0.4-0.4-0.4h-6.4
		c-0.2,0-0.4-0.2-0.4-0.4v-4.3c0-0.2,0.2-0.3,0.4-0.3h1.3c0.2,0,0.3-0.1,0.3-0.3V58.9z M288.8,98.9h-5c-0.3,0-0.4-0.2-0.5-0.4v-4.8
		c0.1-0.2,0.2-0.3,0.5-0.3h2.1c0.5,0,0.8-0.4,0.9-1V55.9c0-0.2,0.2-0.4,0.4-0.4h19.8c0.2,0,0.3,0.2,0.3,0.4v38.9
		c-0.1,2.3-1.2,3.5-3.4,3.7H296c-0.3,0.1-0.4,0-0.5-0.2v-4.5c0.1-0.2,0.2-0.3,0.5-0.3h4.6c0.2,0,0.4-0.2,0.4-0.4v-6.8
		c0-0.2-0.1-0.3-0.3-0.3h-7.3c-0.2,0-0.4,0.2-0.4,0.4v8.1C292.8,97.1,291.4,98.6,288.8,98.9z M301,67.8v-6.3c0-0.3-0.2-0.5-0.5-0.6
		h-6.9c-0.3,0-0.5,0.2-0.6,0.6v6.3c0,0.4,0.2,0.6,0.6,0.7h6.9C300.7,68.4,300.9,68.2,301,67.8z M293.6,81h6.9
		c0.3-0.1,0.5-0.3,0.5-0.7v-6.2c0-0.3-0.2-0.5-0.5-0.6h-6.9c-0.3,0-0.5,0.2-0.6,0.6v6.2C293,80.8,293.2,81,293.6,81z"/>
	<path class="st0" d="M315.9,55.3h5.2c0.2,0.1,0.2,0.2,0.2,0.3l-0.2,2.5c0,0.2,0.2,0.4,0.4,0.4h5.7c0.2,0,0.4,0.1,0.4,0.3v4.6
		c0,0.2-0.2,0.4-0.4,0.4h-6.6c-0.3,0-0.5,0.1-0.6,0.4l-0.4,1.3c-0.5,1.1-1.5,1.6-2.8,1.5h-4.4c-0.2-0.1-0.4-0.2-0.4-0.5v-4.5
		c0-0.2,0.2-0.4,0.4-0.4h1.5c0.5-0.1,0.8-0.5,0.8-1.1l0.5-5C315.2,55.5,315.5,55.4,315.9,55.3z M312.4,79.3h3.2
		c0.3-0.1,0.5-0.3,0.5-0.6v-3.1c0-0.2-0.2-0.3-0.5-0.3h-3.2c-0.2,0-0.4-0.2-0.4-0.4v-4.7c0-0.3,0.2-0.4,0.4-0.5H327
		c0.2,0,0.4,0.2,0.4,0.5v4.7c0,0.2-0.2,0.4-0.4,0.4h-4.4c-0.2,0.1-0.2,0.2-0.2,0.3v3.2c0,0.3,0.1,0.4,0.2,0.5h4.4
		c0.2,0,0.4,0.1,0.4,0.3v4.9c0,0.2-0.2,0.4-0.4,0.4h-4.2c-0.2,0-0.3,0.2-0.3,0.4v8.2c0,0.2,0.1,0.3,0.3,0.3h3.3
		c0.2,0,0.3,0.2,0.3,0.4v4.5c0,0.2-0.1,0.4-0.3,0.4H319c-2.1,0-3.1-1.2-3-3.6V85.3c0-0.2-0.2-0.4-0.5-0.4h-3.2
		c-0.2,0-0.4-0.2-0.4-0.4v-4.9C312.1,79.5,312.2,79.4,312.4,79.3z M346.4,97.5l-2.5-10c-0.1-0.1-0.2-0.1-0.4,0l-3.7,9.5
		c-0.5,1.4-1.4,2.1-2.8,2.1h-7.4c-0.2,0-0.4-0.2-0.4-0.4v-4.5c0-0.2,0.2-0.4,0.4-0.4h4.4c0.4,0,0.8-0.3,0.9-0.7l4.2-12.3
		c0-0.3,0-0.4-0.2-0.5h-9.4c-0.2,0-0.4-0.2-0.4-0.4v-4.8c0-0.2,0.2-0.4,0.4-0.4h9.6c0.2-0.1,0.4-0.2,0.4-0.5v-9.1
		c0-0.2-0.2-0.4-0.4-0.4h-2.4c-0.2,0-0.3,0.2-0.3,0.4l-0.4,2.9c-0.2,1.1-0.9,1.7-2.1,1.7h-4.4c-0.2,0-0.4-0.1-0.4-0.3V65
		c0-0.2,0.2-0.4,0.4-0.4h0.8c0.3,0,0.4-0.2,0.5-0.5l0.7-7.2c0.1-0.2,0.3-0.4,0.6-0.4h4.7c0.2,0,0.4,0.2,0.4,0.4l-0.2,1.8
		c0,0.2,0.2,0.4,0.5,0.4h1.7c0.2,0,0.4-0.1,0.4-0.3v-3.1c0-0.2,0.1-0.3,0.3-0.3h5.7c0.2,0,0.4,0.1,0.4,0.3v3.1
		c0.1,0.2,0.2,0.3,0.4,0.3h8.4c0.2,0,0.3,0.2,0.3,0.4v5c0,0.2-0.1,0.3-0.3,0.3h-8.4c-0.2,0-0.4,0.2-0.4,0.4v9.1
		c0,0.3,0.2,0.4,0.4,0.5h8.3c0.2,0,0.4,0.2,0.4,0.4V80c-0.1,0.2-0.2,0.4-0.4,0.4h-8.7c-0.2,0-0.3,0.2-0.4,0.5l-0.7,1.7
		c-0.1,0.2,0,0.4,0.3,0.4h3.4c0.3,0.1,0.4,0.2,0.5,0.4l2.6,9.6c0.1,0.4,0.4,0.7,0.8,0.8h2.2c0.3,0,0.4,0.1,0.4,0.3v4.7
		c-0.1,0.2-0.2,0.4-0.4,0.4h-5.6C347.6,99.1,346.8,98.6,346.4,97.5z"/>
	<path class="st0" d="M375.5,74.6h-1c-0.2,0.2-0.3,0.3-0.3,0.5V80c0,0.2,0.1,0.4,0.3,0.4h3.9c0.2,0,0.3,0.2,0.3,0.4v4.4
		c0,0.2-0.1,0.3-0.3,0.3h-3.9c-0.2,0-0.3,0.2-0.3,0.4v6.9c0.1,0.2,0.2,0.3,0.3,0.3h4c0.2,0,0.4,0.2,0.4,0.5v5.1
		c0,0.2-0.2,0.3-0.4,0.3H360c-0.2,0-0.3-0.1-0.4-0.3v-5.3c0-0.2,0.1-0.3,0.3-0.4h0.2c0.2,0,0.4-0.1,0.4-0.3V77.7
		c0-0.2,0.1-0.3,0.3-0.3h5.1c0.2,0,0.4,0.1,0.4,0.3v14.8c0,0.2,0.1,0.4,0.3,0.4h1.2c0.2-0.1,0.3-0.2,0.3-0.4V75.3
		c0-0.3-0.2-0.5-0.5-0.7h-6.3c-0.4,0-0.7-0.2-0.7-0.5V57.2c0-0.2,0.2-0.3,0.5-0.3h17.1c0.3,0.1,0.5,0.2,0.5,0.5v13.7
		C378.6,73.2,377.5,74.4,375.5,74.6z M368.2,69.2h3c0.8-0.2,1.3-0.6,1.3-1.3v-4.7c0-0.5-0.1-0.8-0.2-1c-0.2-0.2-0.4-0.3-0.8-0.2
		h-3.3c-0.6-0.1-1,0.3-1,1.1V68C367.2,68.9,367.5,69.3,368.2,69.2z M392.3,56.4l-0.4,0.6c-0.1,0.2,0.1,0.3,0.4,0.4h10.6
		c0.2,0,0.4,0.1,0.4,0.3v4.6c0,0.1,0,0.3-0.2,0.6l-7.4,7.3c-0.1,0.2-0.2,0.4-0.2,0.6c0,0.3,0.1,0.5,0.4,0.7l2.4,1.7
		c0.3,0.2,0.7,0.4,1.2,0.4h3.4c0.2,0,0.4,0.2,0.4,0.4v4.9c0,0.2-0.2,0.4-0.4,0.4h-6.1c-1.3,0-2.5-0.5-3.6-1.4l-2.4-1.9
		c-0.1-0.1-0.3-0.1-0.5,0l-2.6,2.1c-1.1,0.8-2.1,1.1-3.2,1.1h-5.2c-0.2,0-0.4-0.2-0.4-0.4V74c0-0.2,0.2-0.4,0.4-0.4h3.5
		c0.6-0.1,1.2-0.4,1.7-0.8l1.1-1c0.1-0.1,0.1-0.2,0-0.3l-4.2-3.2c-0.1-0.1-0.2-0.3-0.2-0.5c0-0.2,0.1-0.3,0.2-0.3h7.9
		c0.2,0.1,0.4,0,0.7-0.2l2.8-3.4v-0.5c0-0.2-0.1-0.4-0.2-0.4h-2.9c-0.3,0-0.5,0.2-0.7,0.4l-1,1c-1.2,1.1-2.6,1.6-4.3,1.7h-3.1
		c-0.2-0.1-0.4-0.2-0.4-0.5v-4.3c0.1-0.4,0.2-0.6,0.4-0.6l1.7-1c0,0,0.1-0.1,0.3-0.3c0.2-0.2,0.4-0.4,0.7-0.7l1.7-2.6
		c0.1-0.1,0.3-0.2,0.4-0.2h7c0.2,0,0.3,0.1,0.3,0.3C392.3,56.3,392.3,56.4,392.3,56.4z M402,80.7v13.7c-0.3,2.9-2.1,4.4-5.5,4.3
		h-16.1c-0.2,0-0.3-0.1-0.4-0.3V80.7c0-0.2,0.2-0.4,0.4-0.4h21.3C401.9,80.4,402,80.5,402,80.7z M387.5,93.2h7.4
		c0.7,0,1.1-0.4,1.2-1.1V87c0.1-0.8-0.2-1.2-0.8-1.2h-7.8c-0.7-0.1-1,0.2-1,0.7l0,0.3v5.3c-0.1,0.4,0,0.7,0.1,0.8
		c0.1,0.2,0.3,0.3,0.6,0.3L387.5,93.2z"/>
	<path class="st0" d="M411.2,97.4h-2.8c-0.2,0-0.4-0.2-0.4-0.4v-4.7c0-0.3,0.2-0.4,0.4-0.5h0.5c0.3-0.1,0.5-0.3,0.6-0.7V74.4
		c0-0.2,0.2-0.4,0.4-0.4h5.6c0.2,0,0.3,0.1,0.3,0.3v18.2C415.8,95.6,414.2,97.3,411.2,97.4z M423.8,63.1v3.3c0,0.2,0.1,0.3,0.4,0.3
		h7.5c0.3,0,0.4,0.1,0.5,0.3v4.5c0,0.2-0.2,0.3-0.5,0.3h-7.4c-0.3,0-0.5,0.2-0.5,0.5v26c0,0.2-0.2,0.4-0.4,0.4h-5.6
		c-0.2,0-0.3-0.2-0.3-0.4v-26c0-0.3-0.2-0.4-0.4-0.5h-8.5c-0.2,0-0.3-0.1-0.3-0.3V67c0-0.2,0.1-0.4,0.3-0.4h8.4
		c0.3,0,0.4-0.2,0.5-0.4v-3.2c0-0.3-0.2-0.4-0.4-0.5h-8c-0.2,0-0.3-0.1-0.3-0.3v-4.6c0-0.2,0.1-0.3,0.3-0.3h16.3
		c0.3,0,0.5-0.2,0.6-0.4l0.2-0.8c0.1-0.2,0.2-0.4,0.3-0.4h5.4c0.2,0,0.4,0.2,0.4,0.4v2.5c0,2.5-1.2,3.7-3.6,3.8h-4.5
		C423.9,62.7,423.8,62.8,423.8,63.1z M431.9,91.7v5.1c0,0.2-0.2,0.4-0.4,0.4h-3.4c-2-0.3-3-1.6-2.8-3.8V74.2c0-0.2,0.2-0.4,0.4-0.4
		h4.7c0.3,0,0.4,0.1,0.4,0.3v17.3h0.7C431.8,91.4,431.9,91.5,431.9,91.7z M447,97.2h-13.8c-0.3-0.1-0.4-0.3-0.4-0.5v-5.5l0.1-0.8
		l3.7-32.5c0-0.3,0.2-0.5,0.4-0.5h5.9c0.2,0,0.3,0.1,0.3,0.3l-3.5,32.9c0,0.3,0.2,0.4,0.4,0.5h4.2c0.2-0.1,0.4-0.2,0.4-0.5V64.5
		c0-0.2,0.2-0.4,0.4-0.4h5.5c0.2,0,0.3,0.1,0.3,0.3v27.5C451.1,95.1,449.8,96.8,447,97.2z"/>
	<path class="st0" d="M499.2,58.9v4.8c0,0.3-0.2,0.4-0.4,0.5h-28.5c-0.2,0-0.4,0.2-0.5,0.4l-1.1,2c-0.1,0.2,0.1,0.3,0.5,0.4H498
		c0.3,0.1,0.4,0.2,0.5,0.5v26.9c-0.1,2.7-1.5,4.2-4.2,4.4h-18.7c-0.3,0-0.4-0.2-0.5-0.4v-4.4c0.1-0.2,0.3-0.3,0.6-0.3h14.5
		c0.1,0,0.2,0,0.3-0.1s0.1-0.2,0.1-0.4v-2c0-0.2-0.1-0.3-0.2-0.4h-24.3c-0.2,0-0.4,0.2-0.4,0.4v7.2c0,0.2-0.2,0.4-0.4,0.4h-6.5
		c-0.2,0-0.4-0.2-0.4-0.4V75.9c0-0.2-0.1-0.3-0.3-0.3h-1.9c-0.2,0-0.4-0.1-0.4-0.3v-5.4c0-0.2,0.2-0.4,0.4-0.4h2.6
		c0.4-0.1,0.6-0.2,0.7-0.5l2-4c0.2-0.4,0.1-0.6-0.4-0.7h-4.8c-0.2,0-0.4-0.2-0.4-0.5V59c0.1-0.3,0.2-0.4,0.4-0.4h8.1
		c0.3,0.1,0.6-0.1,0.7-0.4l1.4-2.7c0.1-0.2,0.2-0.3,0.5-0.3h6.8c0.3,0,0.5,0.1,0.5,0.3l-1.2,2.6c-0.1,0.1-0.1,0.2-0.1,0.3
		c0,0.1,0.1,0.1,0.2,0.2h25.8C499.1,58.6,499.2,58.7,499.2,58.9z M490.2,72.6h-23.9c-0.4,0.1-0.6,0.3-0.6,0.6v2.6
		c0,0.2,0.2,0.4,0.4,0.4h24.1c0.2,0,0.4-0.2,0.4-0.5v-2.5C490.6,72.9,490.4,72.7,490.2,72.6z M465.7,82.2v2.6c0,0.3,0.2,0.4,0.6,0.5
		h23.9c0.2,0,0.4-0.2,0.4-0.5v-2.6c0-0.3-0.2-0.5-0.4-0.6h-23.9C465.9,81.7,465.7,81.9,465.7,82.2z"/>
	<path class="st0" d="M504.3,62.5v-5.3c0.1-0.3,0.2-0.4,0.4-0.4h41.8c0.2,0,0.3,0.1,0.3,0.4v5.3c0,0.2-0.1,0.3-0.3,0.3h-41.9
		C504.4,62.8,504.3,62.7,504.3,62.5z M517.2,78.5l-5.4,14.1c0,0.2,0.1,0.4,0.3,0.4h27.2c0.5,0,0.8-0.3,0.9-0.8v-6.7
		c0.1-0.3,0.2-0.5,0.4-0.5h5.8c0.2,0,0.3,0.2,0.3,0.4v8.2c0.2,3.2-1.2,4.9-4,5.1h-37.9c-0.2,0-0.4-0.2-0.4-0.5v-4
		c0.1-0.4,0.3-0.8,0.5-1.1l5.8-15.1c0-0.1,0-0.2-0.2-0.3h-5.9c-0.2-0.1-0.2-0.1-0.2-0.2v-5.4c0.1-0.2,0.2-0.3,0.4-0.3h41.8
		c0.2,0,0.3,0.1,0.3,0.3v5.3c0,0.2-0.1,0.3-0.3,0.3h-28.6C517.5,77.8,517.3,78.1,517.2,78.5z"/>
</g>
<rect x="68" y="10.5" transform="matrix(0.9203 -0.3913 0.3913 0.9203 -5.1563 35.1344)" class="st1" width="31.3" height="39.4"/>
<g id="XMLID_8_">
	<g>
		<path class="st0" d="M87.2,62.6l-35.5,52.7l-2.1,3c-1.2,1.4-2.4,2.6-3.9,3.7c-2.4,1.9-5.2,3.1-8,4.3v0.1l-31.9,0.1l55.5-81.9
			L87.2,62.6z"/>
	</g>
	<g>
		<line class="st2" x1="61.3" y1="44.6" x2="5.8" y2="126.5"/>
		<path class="st2" d="M37.7,126.4c2.8-1.2,5.7-2.4,8-4.3c1.4-1.2,2.7-2.3,3.9-3.7l2.1-3l35.5-52.7"/>
		<line class="st2" x1="61.3" y1="44.6" x2="87.2" y2="62.6"/>
		<polyline class="st2" points="38,126.5 37.7,126.5 5.8,126.5 		"/>
	</g>
</g>
<g id="XMLID_7_">
	<g>
		<path class="st0" d="M130.9,60.1l-38.1,56c-0.8,0.9-1.7,1.8-2.5,2.7c-1.2,1.2-2.3,2.5-3.6,3.5c-2.6,2.1-5.7,3.5-8.9,4.1l-33.2,0.1
			v-0.1c2.8-2,5.3-4.5,7.4-7.2l54.4-79L130.9,60.1z"/>
	</g>
	<g>
		<line class="st2" x1="106.2" y1="40.2" x2="51.9" y2="119.2"/>
		<line class="st2" x1="130.9" y1="60.1" x2="92.7" y2="116.1"/>
		<line class="st2" x1="106.2" y1="40.2" x2="130.9" y2="60.1"/>
		<polyline class="st2" points="44.3,126.5 44.5,126.5 77.7,126.5 78,126.5 		"/>
		<path class="st2" d="M44.5,126.5c2.8-2,5.3-4.5,7.4-7.2"/>
		<path class="st2" d="M77.7,126.5c3.2-0.5,6.3-1.9,8.9-4.1c1.3-1.1,2.5-2.3,3.6-3.5c0.8-0.9,1.7-1.8,2.5-2.7"/>
	</g>
</g>
<g id="XMLID_6_">
	<g>
		<path class="st0" d="M89,124.9c0.9-0.7,1.6-1.6,2.3-2.4c0.5-0.6,1-1.3,1.5-1.9l0-0.1l40.4-58l23.5,20.1l-24.6,35.1
			c-3.7,4.2-8.7,7.3-14.2,8.8l-31.7,0.1v-0.1C87.3,126,88.2,125.5,89,124.9z"/>
	</g>
	<g>
		<line class="st2" x1="133.3" y1="62.5" x2="92.8" y2="120.4"/>
		<line class="st2" x1="156.8" y1="82.5" x2="132.2" y2="117.6"/>
		<line class="st2" x1="133.3" y1="62.5" x2="156.8" y2="82.5"/>
		<polyline class="st2" points="85.9,126.5 86.3,126.5 118,126.5 		"/>
		<path class="st2" d="M86.3,126.5c0.9-0.5,1.9-0.9,2.7-1.6c0.9-0.7,1.6-1.6,2.3-2.4c0.5-0.6,1-1.3,1.5-1.9"/>
		<path class="st2" d="M118,126.5c5.5-1.5,10.4-4.6,14.2-8.8"/>
	</g>
</g>
<g id="XMLID_5_">
	<g>
		<path class="st0" d="M183.2,104.1l-11,15.2c-2.1,1.6-4.3,3.2-6.7,4.3c-0.9,0.4-1.9,0.8-2.9,1.2c-1.4,0.5-2.7,1.1-4.1,1.6v0
			l-31.7,0.1c3.2-1.7,6.2-4,8.7-6.7L159,85.4L183.2,104.1z"/>
	</g>
	<g>
		<line class="st2" x1="159" y1="85.4" x2="135.6" y2="119.9"/>
		<line class="st2" x1="183.2" y1="104.1" x2="172.3" y2="119.3"/>
		<line class="st2" x1="159" y1="85.4" x2="183.2" y2="104.1"/>
		<polyline class="st2" points="126.9,126.5 158.6,126.5 159,126.5 		"/>
		<path class="st2" d="M126.9,126.5c3.2-1.7,6.2-4,8.7-6.7"/>
		<path class="st2" d="M158.6,126.4c1.4-0.5,2.7-1.1,4.1-1.6c1-0.4,1.9-0.8,2.9-1.2c2.4-1.2,4.6-2.7,6.7-4.3"/>
	</g>
</g>
<g>
</g>
<g>
</g>
<g>
</g>
<g>
</g>
<g>
</g>
<g>
</g>
<g>
</g>
<g>
</g>
<g>
</g>
<g>
</g>
<g>
</g>
<g>
</g>
<g>
</g>
<g>
</g>
<g>
</g>
</svg>
