<?xml version="1.0" encoding="utf-8"?>
<!-- Generator: Adobe Illustrator 24.0.1, SVG Export Plug-In . SVG Version: 6.00 Build 0)  -->
<svg version="1.1" id="图层_1" xmlns="http://www.w3.org/2000/svg" xmlns:xlink="http://www.w3.org/1999/xlink" x="0px" y="0px"
	 viewBox="0 0 352 214" style="enable-background:new 0 0 352 214;" xml:space="preserve">
<style type="text/css">
	.st0{fill:#231815;}
	.st1{fill:#E50012;}
	.st2{fill:none;stroke:#231815;stroke-miterlimit:10;}
</style>
<g>
	<path class="st0" d="M29.9,176.9h-6.5h0c-0.2,0-0.3,0.2-0.3,0.5v27.7c0,0.2-0.1,0.3-0.3,0.3h-5.1h-0.1c-0.2,0-0.3-0.1-0.3-0.3
		v-27.6c0-0.3-0.2-0.4-0.4-0.5H9.7c-0.2,0-0.3-0.1-0.4-0.3V172c0-0.2,0.2-0.4,0.4-0.4h20.3c0.3,0.1,0.4,0.2,0.4,0.4v4.6
		C30.3,176.8,30.2,176.9,29.9,176.9z M15.1,179v20.3c0,2.7-1.2,4.3-3.6,4.7H9.7c-0.3,0-0.4-0.1-0.4-0.3V199l0.6-0.5
		c0.2-0.1,0.3-0.3,0.3-0.5V179c0-0.3,0.2-0.4,0.4-0.5h4.1C14.9,178.5,15.1,178.7,15.1,179z M9.9,168.5v-4.8c0.1-0.2,0.3-0.4,0.5-0.4
		h19.3c0.3-0.1,0.4,0,0.4,0.2v4.8c-0.1,0.2-0.2,0.4-0.4,0.4H10.2C10,168.8,9.9,168.7,9.9,168.5z M52.3,166.3v31.9
		c-0.1,2.3-1.2,3.5-3.2,3.6h-3.6h-0.2c-0.3,0-0.5,0.1-0.5,0.3v2.7c0,0.3-0.2,0.4-0.4,0.5h-4.9c-0.2-0.1-0.4-0.2-0.4-0.5v-2.7
		c0-0.2-0.2-0.4-0.5-0.4H32c-0.2,0.1-0.2,0.2-0.2,0.4v1.7c0,0.2-0.2,0.3-0.4,0.3h-1.5c-1.5,0.1-2.7-0.1-3.5-0.6
		c-0.8-0.5-1.3-1.3-1.4-2.4v-22.2c0.1-0.3,0.2-0.5,0.5-0.6h3.5c0.2,0.1,0.4,0.3,0.4,0.6v18.5v0.1c0,0.4,0.2,0.6,0.7,0.7h1.3
		c0.1,0,0.2-0.2,0.2-0.4v-31.7c0-0.2,0.2-0.3,0.4-0.3h7l0.1-0.2h0.2v-2.8c0-0.2,0.2-0.4,0.4-0.4h4.9c0.3,0,0.4,0.1,0.4,0.4v2.6
		c0,0.2,0.2,0.4,0.5,0.4H52C52.2,166,52.3,166.1,52.3,166.3z M39.1,171.9c0-0.4-0.2-0.7-0.7-0.7h-1.2c-0.3,0.1-0.4,0.3-0.4,0.7v8.3
		v0.1c0,0.3,0.1,0.5,0.4,0.6h1.6c0.2-0.1,0.3-0.3,0.3-0.6V172V171.9z M39.1,187.1c0-0.4-0.1-0.5-0.3-0.6h-1.6
		c-0.3,0.1-0.4,0.3-0.4,0.5v8.8c0.1,0.5,0.2,0.7,0.4,0.7h1.1c0.5-0.1,0.7-0.2,0.8-0.4V187.1z M46.9,171.6c0-0.2-0.2-0.3-0.7-0.4
		h-0.9c-0.3,0-0.5,0.2-0.5,0.4v8.4c0,0.5,0.2,0.8,0.5,0.8h1.2c0.2-0.1,0.4-0.3,0.4-0.6V171.6z M46.9,187.4c0-0.5-0.1-0.8-0.4-0.9
		h-0.9c-0.5,0.1-0.8,0.3-0.8,0.5v8.7c0,0.5,0.2,0.8,0.5,0.8h1.2c0.3-0.1,0.4-0.3,0.4-0.5V187.4z"/>
	<path class="st0" d="M59.4,165.6l-1.2-2.4c-0.1-0.3,0-0.5,0.3-0.6h5.7c0.4,0,0.6,0.2,0.8,0.4l1.5,2.5c0.1,0.4,0.4,0.6,0.7,0.6h2.5
		c0.2,0.1,0.4-0.1,0.5-0.5l1.6-2.7c0.1-0.3,0.3-0.4,0.6-0.5h5.8c0.2,0,0.3,0.1,0.3,0.3l0,0.2l-1.3,2.7c-0.1,0.2-0.1,0.4,0.1,0.5h1.5
		c0.2,0,0.3,0.1,0.3,0.3v4.4c0,0.2-0.2,0.3-0.4,0.3H71c-0.2,0-0.3,0.1-0.3,0.3v16.4c0,0.2,0.2,0.4,0.4,0.4h0.7
		c0.2,0,0.3-0.2,0.3-0.4v-14c0.1-0.3,0.2-0.4,0.5-0.5h5c0.2,0,0.3,0.2,0.3,0.5v15.6c0.1,2.6-1,4.1-3.4,4.3h-3.4
		c-0.2,0-0.4,0.2-0.4,0.4v6.4c-0.2,3.4-2,5.1-5.5,5h-7.6c-0.2,0-0.4-0.2-0.4-0.4v-4.5c0-0.2,0.2-0.4,0.4-0.4h6.1
		c0.5,0,0.8-0.2,0.9-0.7v-5.5c0-0.2-0.2-0.4-0.4-0.4h-6.4c-0.2,0.1-0.3-0.1-0.4-0.4v-19.5c0-0.3,0.2-0.4,0.4-0.5h4.8
		c0.3,0.1,0.4,0.2,0.5,0.5v14c0,0.2,0.2,0.4,0.4,0.4h0.6c0.3,0,0.4-0.2,0.5-0.4v-16.3c0-0.2-0.2-0.4-0.4-0.4h-6.4
		c-0.2,0-0.4-0.2-0.4-0.4v-4.3c0-0.2,0.2-0.3,0.4-0.3h1.3c0.2,0,0.3-0.1,0.3-0.3V165.6z M82.2,205.5h-5c-0.3,0-0.4-0.2-0.5-0.4v-4.8
		c0.1-0.2,0.2-0.3,0.5-0.3h2.1c0.5,0,0.8-0.4,0.9-1v-36.5c0-0.2,0.2-0.4,0.4-0.4h19.8c0.2,0,0.3,0.2,0.3,0.4v38.9
		c-0.1,2.3-1.2,3.5-3.4,3.7h-7.8c-0.3,0.1-0.4,0-0.5-0.2v-4.5c0.1-0.2,0.2-0.3,0.5-0.3H94c0.2,0,0.4-0.2,0.4-0.4V193
		c0-0.2-0.1-0.3-0.3-0.3h-7.3c-0.2,0-0.4,0.2-0.4,0.4v8.1C86.3,203.8,84.9,205.3,82.2,205.5z M94.4,174.4v-6.3
		c0-0.3-0.2-0.5-0.5-0.6H87c-0.3,0-0.5,0.2-0.6,0.6v6.3c0,0.4,0.2,0.6,0.6,0.7h6.9C94.2,175.1,94.4,174.8,94.4,174.4z M87,187.7h6.9
		c0.3-0.1,0.5-0.3,0.5-0.7v-6.2c0-0.3-0.2-0.5-0.5-0.6H87c-0.3,0-0.5,0.2-0.6,0.6v6.2C86.5,187.4,86.7,187.7,87,187.7z"/>
	<path class="st0" d="M109.3,162h5.2c0.2,0.1,0.2,0.2,0.2,0.3l-0.2,2.5c0,0.2,0.2,0.4,0.4,0.4h5.7c0.2,0,0.4,0.1,0.4,0.3v4.6
		c0,0.2-0.2,0.4-0.4,0.4h-6.6c-0.3,0-0.5,0.1-0.6,0.4l-0.4,1.3c-0.5,1.1-1.5,1.6-2.8,1.5h-4.4c-0.2-0.1-0.4-0.2-0.4-0.5v-4.5
		c0-0.2,0.2-0.4,0.4-0.4h1.5c0.5-0.1,0.8-0.5,0.8-1.1l0.5-5C108.7,162.2,108.9,162,109.3,162z M105.9,186h3.2
		c0.3-0.1,0.5-0.3,0.5-0.6v-3.1c0-0.2-0.2-0.3-0.5-0.3h-3.2c-0.2,0-0.4-0.2-0.4-0.4v-4.7c0-0.3,0.2-0.4,0.4-0.5h14.6
		c0.2,0,0.4,0.2,0.4,0.5v4.7c0,0.2-0.2,0.4-0.4,0.4H116c-0.2,0.1-0.2,0.2-0.2,0.3v3.2c0,0.3,0.1,0.4,0.2,0.5h4.4
		c0.2,0,0.4,0.1,0.4,0.3v4.9c0,0.2-0.2,0.4-0.4,0.4h-4.2c-0.2,0-0.3,0.2-0.3,0.4v8.2c0,0.2,0.1,0.3,0.3,0.3h3.3
		c0.2,0,0.3,0.2,0.3,0.4v4.5c0,0.2-0.1,0.4-0.3,0.4h-7.1c-2.1,0-3.1-1.2-3-3.6V192c0-0.2-0.2-0.4-0.5-0.4h-3.2
		c-0.2,0-0.4-0.2-0.4-0.4v-4.9C105.5,186.2,105.7,186,105.9,186z M139.8,204.2l-2.5-10c-0.1-0.1-0.2-0.1-0.4,0l-3.7,9.5
		c-0.5,1.4-1.4,2.1-2.8,2.1h-7.4c-0.2,0-0.4-0.2-0.4-0.4v-4.5c0-0.2,0.2-0.4,0.4-0.4h4.4c0.4,0,0.8-0.3,0.9-0.7l4.2-12.3
		c0-0.3,0-0.4-0.2-0.5h-9.4c-0.2,0-0.4-0.2-0.4-0.4v-4.8c0-0.2,0.2-0.4,0.4-0.4h9.6c0.2-0.1,0.4-0.2,0.4-0.5v-9.1
		c0-0.2-0.2-0.4-0.4-0.4h-2.4c-0.2,0-0.3,0.2-0.3,0.4l-0.4,2.9c-0.2,1.1-0.9,1.7-2.1,1.7h-4.4c-0.2,0-0.4-0.1-0.4-0.3v-4.4
		c0-0.2,0.2-0.4,0.4-0.4h0.8c0.3,0,0.4-0.2,0.5-0.5l0.7-7.2c0.1-0.2,0.3-0.4,0.6-0.4h4.7c0.2,0,0.4,0.2,0.4,0.4l-0.2,1.8
		c0,0.2,0.2,0.4,0.5,0.4h1.7c0.2,0,0.4-0.1,0.4-0.3v-3.1c0-0.2,0.1-0.3,0.3-0.3h5.7c0.2,0,0.4,0.1,0.4,0.3v3.1
		c0.1,0.2,0.2,0.3,0.4,0.3h8.4c0.2,0,0.3,0.2,0.3,0.4v5c0,0.2-0.1,0.3-0.3,0.3h-8.4c-0.2,0-0.4,0.2-0.4,0.4v9.1
		c0,0.3,0.2,0.4,0.4,0.5h8.3c0.2,0,0.4,0.2,0.4,0.4v4.8c-0.1,0.2-0.2,0.4-0.4,0.4h-8.7c-0.2,0-0.3,0.2-0.4,0.5l-0.7,1.7
		c-0.1,0.2,0,0.4,0.3,0.4h3.4c0.3,0.1,0.4,0.2,0.5,0.4l2.6,9.6c0.1,0.4,0.4,0.7,0.8,0.8h2.2c0.3,0,0.4,0.1,0.4,0.3v4.7
		c-0.1,0.2-0.2,0.4-0.4,0.4h-5.6C141.1,205.8,140.2,205.3,139.8,204.2z"/>
	<path class="st0" d="M168.9,181.3h-1c-0.2,0.2-0.3,0.3-0.3,0.5v4.8c0,0.2,0.1,0.4,0.3,0.4h3.9c0.2,0,0.3,0.2,0.3,0.4v4.4
		c0,0.2-0.1,0.3-0.3,0.3H168c-0.2,0-0.3,0.2-0.3,0.4v6.9c0.1,0.2,0.2,0.3,0.3,0.3h4c0.2,0,0.4,0.2,0.4,0.5v5.1
		c0,0.2-0.2,0.3-0.4,0.3h-18.5c-0.2,0-0.3-0.1-0.4-0.3V200c0-0.2,0.1-0.3,0.3-0.4h0.2c0.2,0,0.4-0.1,0.4-0.3v-14.9
		c0-0.2,0.1-0.3,0.3-0.3h5.1c0.2,0,0.4,0.1,0.4,0.3v14.8c0,0.2,0.1,0.4,0.3,0.4h1.2c0.2-0.1,0.3-0.2,0.3-0.4V182
		c0-0.3-0.2-0.5-0.5-0.7h-6.3c-0.4,0-0.7-0.2-0.7-0.5v-16.9c0-0.2,0.2-0.3,0.5-0.3h17.1c0.3,0.1,0.5,0.2,0.5,0.5v13.7
		C172.1,179.9,171,181.1,168.9,181.3z M161.7,175.9h3c0.8-0.2,1.3-0.6,1.3-1.3v-4.7c0-0.5-0.1-0.8-0.2-1c-0.2-0.2-0.4-0.3-0.8-0.2
		h-3.3c-0.6-0.1-1,0.3-1,1.1v4.9C160.6,175.6,160.9,176,161.7,175.9z M185.7,163.1l-0.4,0.6c-0.1,0.2,0.1,0.3,0.4,0.4h10.6
		c0.2,0,0.4,0.1,0.4,0.3v4.6c0,0.1,0,0.3-0.2,0.6l-7.4,7.3c-0.1,0.2-0.2,0.4-0.2,0.6c0,0.3,0.1,0.5,0.4,0.7l2.4,1.7
		c0.3,0.2,0.7,0.4,1.2,0.4h3.4c0.2,0,0.4,0.2,0.4,0.4v4.9c0,0.2-0.2,0.4-0.4,0.4h-6.1c-1.3,0-2.5-0.5-3.6-1.4l-2.4-1.9
		c-0.1-0.1-0.3-0.1-0.5,0l-2.6,2.1c-1.1,0.8-2.1,1.1-3.2,1.1h-5.2c-0.2,0-0.4-0.2-0.4-0.4v-4.7c0-0.2,0.2-0.4,0.4-0.4h3.5
		c0.6-0.1,1.2-0.4,1.7-0.8l1.1-1c0.1-0.1,0.1-0.2,0-0.3l-4.2-3.2c-0.1-0.1-0.2-0.3-0.2-0.5c0-0.2,0.1-0.3,0.2-0.3h7.9
		c0.2,0.1,0.4,0,0.7-0.2l2.8-3.4V170c0-0.2-0.1-0.4-0.2-0.4h-2.9c-0.3,0-0.5,0.2-0.7,0.4l-1,1c-1.2,1.1-2.6,1.6-4.3,1.7h-3.1
		c-0.2-0.1-0.4-0.2-0.4-0.5v-4.3c0.1-0.4,0.2-0.6,0.4-0.6l1.7-1c0,0,0.1-0.1,0.3-0.3s0.4-0.4,0.7-0.7l1.7-2.6
		c0.1-0.1,0.3-0.2,0.4-0.2h7c0.2,0,0.3,0.1,0.3,0.3C185.8,163,185.8,163.1,185.7,163.1z M195.5,187.4v13.7c-0.3,2.9-2.1,4.4-5.5,4.3
		h-16.1c-0.2,0-0.3-0.1-0.4-0.3v-17.7c0-0.2,0.2-0.4,0.4-0.4h21.3C195.4,187.1,195.5,187.2,195.5,187.4z M180.9,199.9h7.4
		c0.7,0,1.1-0.4,1.2-1.1v-5.1c0.1-0.8-0.2-1.2-0.8-1.2h-7.8c-0.7-0.1-1,0.2-1,0.7l0,0.3v5.3c-0.1,0.4,0,0.7,0.1,0.8
		c0.1,0.2,0.3,0.3,0.6,0.3L180.9,199.9z"/>
	<path class="st0" d="M204.7,204.1h-2.8c-0.2,0-0.4-0.2-0.4-0.4V199c0-0.3,0.2-0.4,0.4-0.5h0.5c0.3-0.1,0.5-0.3,0.6-0.7v-16.7
		c0-0.2,0.2-0.4,0.4-0.4h5.6c0.2,0,0.3,0.1,0.3,0.3v18.2C209.2,202.3,207.7,203.9,204.7,204.1z M217.2,169.8v3.3
		c0,0.2,0.1,0.3,0.4,0.3h7.5c0.3,0,0.4,0.1,0.5,0.3v4.5c0,0.2-0.2,0.3-0.5,0.3h-7.4c-0.3,0-0.5,0.2-0.5,0.5v26
		c0,0.2-0.2,0.4-0.4,0.4h-5.6c-0.2,0-0.3-0.2-0.3-0.4v-26c0-0.3-0.2-0.4-0.4-0.5H202c-0.2,0-0.3-0.1-0.3-0.3v-4.4
		c0-0.2,0.1-0.4,0.3-0.4h8.4c0.3,0,0.4-0.2,0.5-0.4v-3.2c0-0.3-0.2-0.4-0.4-0.5h-8c-0.2,0-0.3-0.1-0.3-0.3v-4.6
		c0-0.2,0.1-0.3,0.3-0.3h16.3c0.3,0,0.5-0.2,0.6-0.4l0.2-0.8c0.1-0.2,0.2-0.4,0.3-0.4h5.4c0.2,0,0.4,0.2,0.4,0.4v2.5
		c0,2.5-1.2,3.7-3.6,3.8h-4.5C217.4,169.3,217.2,169.5,217.2,169.8z M225.4,198.3v5.1c0,0.2-0.2,0.4-0.4,0.4h-3.4
		c-2-0.3-3-1.6-2.8-3.8v-19.2c0-0.2,0.2-0.4,0.4-0.4h4.7c0.3,0,0.4,0.1,0.4,0.3V198h0.7C225.2,198,225.4,198.2,225.4,198.3z
		 M240.5,203.9h-13.8c-0.3-0.1-0.4-0.3-0.4-0.5v-5.5l0.1-0.8l3.7-32.5c0-0.3,0.2-0.5,0.4-0.5h5.9c0.2,0,0.3,0.1,0.3,0.3l-3.5,32.9
		c0,0.3,0.2,0.4,0.4,0.5h4.2c0.2-0.1,0.4-0.2,0.4-0.5v-26.2c0-0.2,0.2-0.4,0.4-0.4h5.5c0.2,0,0.3,0.1,0.3,0.3v27.5
		C244.6,201.7,243.3,203.5,240.5,203.9z"/>
	<path class="st0" d="M292.7,165.6v4.8c0,0.3-0.2,0.4-0.4,0.5h-28.5c-0.2,0-0.4,0.2-0.5,0.4l-1.1,2c-0.1,0.2,0.1,0.3,0.5,0.4h28.7
		c0.3,0.1,0.4,0.2,0.5,0.5v26.9c-0.1,2.7-1.5,4.2-4.2,4.4h-18.7c-0.3,0-0.4-0.2-0.5-0.4v-4.4c0.1-0.2,0.3-0.3,0.6-0.3h14.5
		c0.1,0,0.2,0,0.3-0.1s0.1-0.2,0.1-0.4v-2c0-0.2-0.1-0.3-0.2-0.4h-24.3c-0.2,0-0.4,0.2-0.4,0.4v7.2c0,0.2-0.2,0.4-0.4,0.4h-6.5
		c-0.2,0-0.4-0.2-0.4-0.4v-22.3c0-0.2-0.1-0.3-0.3-0.3h-1.9c-0.2,0-0.4-0.1-0.4-0.3v-5.4c0-0.2,0.2-0.4,0.4-0.4h2.6
		c0.4-0.1,0.6-0.2,0.7-0.5l2-4c0.2-0.4,0.1-0.6-0.4-0.7h-4.8c-0.2,0-0.4-0.2-0.4-0.5v-4.8c0.1-0.3,0.2-0.4,0.4-0.4h8.1
		c0.3,0.1,0.6-0.1,0.7-0.4l1.4-2.7c0.1-0.2,0.2-0.3,0.5-0.3h6.8c0.3,0,0.5,0.1,0.5,0.3l-1.2,2.6c-0.1,0.1-0.1,0.2-0.1,0.3
		c0,0.1,0.1,0.1,0.2,0.2h25.8C292.5,165.3,292.7,165.4,292.7,165.6z M283.6,179.2h-23.9c-0.4,0.1-0.6,0.3-0.6,0.6v2.6
		c0,0.2,0.2,0.4,0.4,0.4h24.1c0.2,0,0.4-0.2,0.4-0.5v-2.5C284,179.5,283.9,179.3,283.6,179.2z M259.1,188.9v2.6
		c0,0.3,0.2,0.4,0.6,0.5h23.9c0.2,0,0.4-0.2,0.4-0.5v-2.6c0-0.3-0.2-0.5-0.4-0.6h-23.9C259.3,188.4,259.1,188.6,259.1,188.9z"/>
	<path class="st0" d="M297.8,169.2v-5.3c0.1-0.3,0.2-0.4,0.4-0.4H340c0.2,0,0.3,0.1,0.3,0.4v5.3c0,0.2-0.1,0.3-0.3,0.3h-41.9
		C297.9,169.4,297.8,169.3,297.8,169.2z M310.7,185.1l-5.4,14.1c0,0.2,0.1,0.4,0.3,0.4h27.2c0.5,0,0.8-0.3,0.9-0.8v-6.7
		c0.1-0.3,0.2-0.5,0.4-0.5h5.8c0.2,0,0.3,0.2,0.3,0.4v8.2c0.2,3.2-1.2,4.9-4,5.1h-37.9c-0.2,0-0.4-0.2-0.4-0.5v-4
		c0.1-0.4,0.3-0.8,0.5-1.1l5.8-15.1c0-0.1,0-0.2-0.2-0.3H298c-0.2-0.1-0.2-0.1-0.2-0.2v-5.4c0.1-0.2,0.2-0.3,0.4-0.3H340
		c0.2,0,0.3,0.1,0.3,0.3v5.3c0,0.2-0.1,0.3-0.3,0.3h-28.6C311,184.5,310.8,184.8,310.7,185.1z"/>
</g>
<rect x="147" y="10.9" transform="matrix(0.9203 -0.3913 0.3913 0.9203 0.9735 66.1018)" class="st1" width="31.3" height="39.4"/>
<g id="XMLID_12_">
	<g>
		<path class="st0" d="M166.2,63l-35.5,52.7l-2.1,3.1c-1.2,1.4-2.4,2.6-3.9,3.7c-2.4,1.9-5.2,3.1-8,4.3v0.1l-31.9,0l55.5-81.9
			L166.2,63z"/>
	</g>
	<g>
		<line class="st2" x1="140.3" y1="45.1" x2="84.9" y2="127"/>
		<path class="st2" d="M116.8,126.9c2.8-1.2,5.7-2.4,8-4.3c1.4-1.2,2.7-2.3,3.9-3.7l2.1-3.1L166.2,63"/>
		<line class="st2" x1="140.3" y1="45.1" x2="166.2" y2="63"/>
		<polyline class="st2" points="117,126.9 116.8,126.9 84.9,127 		"/>
	</g>
</g>
<g id="XMLID_11_">
	<g>
		<path class="st0" d="M209.9,60.6l-38.1,56c-0.9,0.9-1.7,1.8-2.6,2.7c-1.2,1.2-2.3,2.5-3.6,3.6c-2.6,2.1-5.6,3.5-8.9,4.1l-33.2,0
			v-0.1c2.8-2,5.3-4.5,7.4-7.2l54.4-79L209.9,60.6z"/>
	</g>
	<g>
		<line class="st2" x1="185.3" y1="40.7" x2="130.9" y2="119.7"/>
		<line class="st2" x1="209.9" y1="60.6" x2="171.8" y2="116.6"/>
		<line class="st2" x1="185.3" y1="40.7" x2="209.9" y2="60.6"/>
		<polyline class="st2" points="123.3,127 123.5,127 156.7,126.9 157,126.9 		"/>
		<path class="st2" d="M123.5,126.9c2.8-2,5.3-4.5,7.4-7.2"/>
		<path class="st2" d="M156.7,126.9c3.2-0.5,6.3-2,8.9-4.1c1.3-1.1,2.5-2.3,3.6-3.6c0.8-0.9,1.7-1.8,2.6-2.7"/>
	</g>
</g>
<g id="XMLID_10_">
	<g>
		<path class="st0" d="M168.1,125.3c0.9-0.7,1.6-1.6,2.3-2.4c0.5-0.7,1-1.3,1.6-1.9l0-0.1l40.4-58l23.5,20l-24.6,35.1
			c-3.7,4.2-8.7,7.3-14.2,8.8l-31.7,0v-0.1C166.3,126.5,167.2,126,168.1,125.3z"/>
	</g>
	<g>
		<line class="st2" x1="212.3" y1="62.9" x2="171.9" y2="120.9"/>
		<line class="st2" x1="235.8" y1="83" x2="211.2" y2="118.1"/>
		<line class="st2" x1="212.3" y1="62.9" x2="235.8" y2="83"/>
		<polyline class="st2" points="165,127 165.4,127 197,126.9 		"/>
		<path class="st2" d="M165.4,126.9c0.9-0.5,1.9-0.9,2.7-1.6c0.9-0.7,1.6-1.6,2.3-2.4c0.5-0.7,1-1.3,1.6-1.9"/>
		<path class="st2" d="M197,126.9c5.4-1.6,10.4-4.7,14.2-8.8"/>
	</g>
</g>
<g id="XMLID_9_">
	<g>
		<path class="st0" d="M262.3,104.5l-11,15.2c-2.1,1.6-4.3,3.2-6.7,4.3c-0.9,0.5-1.9,0.8-2.9,1.2c-1.3,0.5-2.7,1.1-4,1.6v0.1
			l-31.7,0c3.2-1.7,6.2-4,8.7-6.7L238,85.8L262.3,104.5z"/>
	</g>
	<g>
		<line class="st2" x1="238" y1="85.8" x2="214.7" y2="120.3"/>
		<line class="st2" x1="262.3" y1="104.5" x2="251.3" y2="119.7"/>
		<line class="st2" x1="238" y1="85.8" x2="262.3" y2="104.5"/>
		<polyline class="st2" points="206,127 237.7,126.9 238,126.9 		"/>
		<path class="st2" d="M206,127c3.2-1.7,6.2-4,8.7-6.7"/>
		<path class="st2" d="M237.7,126.9c1.3-0.5,2.7-1.1,4-1.6c1-0.4,1.9-0.8,2.9-1.2c2.4-1.1,4.6-2.7,6.7-4.3"/>
	</g>
</g>
<g>
</g>
<g>
</g>
<g>
</g>
<g>
</g>
<g>
</g>
<g>
</g>
<g>
</g>
<g>
</g>
<g>
</g>
<g>
</g>
<g>
</g>
<g>
</g>
<g>
</g>
<g>
</g>
<g>
</g>
</svg>
