<svg xmlns="http://www.w3.org/2000/svg" viewBox="0 0 240.74 222.16"><defs><style>.cls-1{font-size:60px;font-family:Reeji-CloudZongYi-GB-Regular, Reeji-CloudZongYi-GB;}.cls-1,.cls-2{fill:#231815;}.cls-3{fill:#e60012;}.cls-4{fill:none;stroke:#231815;stroke-miterlimit:10;}</style></defs><title>shenhua-logo-splash_1</title><g id="图层_2" data-name="图层 2"><g id="图层_1-2" data-name="图层 1"><text class="cls-1" transform="translate(0 180.54)">中国神华</text><path class="cls-2" d="M19,216.16a7.77,7.77,0,0,1-8.07,6c-6.13,0-9.29-4.77-9.29-10.68,0-5.67,3.13-10.81,9.35-10.81,4.71,0,7.38,2.65,8,6.15H16.89a5.73,5.73,0,0,0-6-4.29c-4.94,0-7,4.51-7,8.9s2,8.86,7.11,8.86c3.33,0,4.92-1.8,5.85-4.13Z" transform="translate(-1)"/><path class="cls-2" d="M23.34,201h2.14v8.95H37.3V201h2.14v20.94H37.3V211.82H25.48v10.09H23.34Z" transform="translate(-1)"/><path class="cls-2" d="M47.53,201v20.94H45.39V201Z" transform="translate(-1)"/><path class="cls-2" d="M53.49,221.91V201h3c3.15,5,10.3,16.08,11.55,18.36h0c-.19-2.87-.17-6.05-.17-9.47V201H70v20.94H67.2c-3-4.71-10.3-16.45-11.72-18.77h0c.15,2.58.13,5.86.13,9.65v9.12Z" transform="translate(-1)"/><path class="cls-2" d="M78.25,215.1l-2.47,6.81H73.63L81.21,201H83.8l7.91,20.94h-2.3l-2.54-6.81Zm8-1.89c-2.18-5.9-3.33-8.86-3.77-10.35h0c-.51,1.67-1.8,5.3-3.56,10.35Z" transform="translate(-1)"/><path class="cls-2" d="M103.63,216.19c.61,2.66,2.4,4.18,5.66,4.18,3.57,0,5-1.74,5-3.88s-1-3.58-5.46-4.67c-4.66-1.14-6.48-2.7-6.48-5.68s2.13-5.47,6.7-5.47c4.78,0,6.78,2.84,7,5.48h-2.19c-.44-2.07-1.77-3.65-5-3.65-2.81,0-4.36,1.29-4.36,3.47s1.29,3,5.06,3.92c5.93,1.46,6.88,3.81,6.88,6.4,0,3.21-2.36,5.87-7.33,5.87-5.25,0-7.32-3-7.73-6Z" transform="translate(-1)"/><path class="cls-2" d="M120.87,201H123v8.95h11.82V201H137v20.94h-2.14V211.82H123v10.09h-2.14Z" transform="translate(-1)"/><path class="cls-2" d="M155.6,211.85H145V220h11.58l-.3,1.89h-13.4V201h13.2v1.89H145V210H155.6Z" transform="translate(-1)"/><path class="cls-2" d="M160.59,221.91V201h3c3.15,5,10.3,16.08,11.55,18.36h0c-.18-2.87-.16-6.05-.16-9.47V201h2.09v20.94h-2.78c-2.95-4.71-10.29-16.45-11.71-18.77h0c.15,2.58.13,5.86.13,9.65v9.12Z" transform="translate(-1)"/><path class="cls-2" d="M183,201h2.14v8.95H197V201h2.14v20.94H197V211.82H185.17v10.09H183Z" transform="translate(-1)"/><path class="cls-2" d="M207.12,201v12.65c0,5.28,2.95,6.67,5.78,6.67,3.34,0,5.77-1.45,5.77-6.67V201h2.16V213.5c0,6.66-3.6,8.66-8,8.66-4.23,0-7.91-2.18-7.91-8.42V201Z" transform="translate(-1)"/><path class="cls-2" d="M228.28,215.1l-2.48,6.81h-2.15L231.24,201h2.59l7.91,20.94h-2.3l-2.55-6.81Zm8-1.89c-2.18-5.9-3.33-8.86-3.77-10.35h0c-.51,1.67-1.8,5.3-3.56,10.35Z" transform="translate(-1)"/><rect class="cls-3" x="93.73" y="4.55" width="31.26" height="39.43" transform="matrix(0.92, -0.39, 0.39, 0.92, -1.77, 44.73)"/><path class="cls-2" d="M112.94,56.63l-35.52,52.7-2,3.06a27.22,27.22,0,0,1-3.87,3.72,33.4,33.4,0,0,1-8,4.35v.07l-31.91,0L87,38.66Z" transform="translate(-1)"/><line class="cls-4" x1="86.04" y1="38.66" x2="30.55" y2="120.57"/><path class="cls-4" d="M63.46,120.46a33.4,33.4,0,0,0,8-4.35,27.22,27.22,0,0,0,3.87-3.72l2-3.06,35.52-52.7" transform="translate(-1)"/><line class="cls-4" x1="86.04" y1="38.66" x2="111.94" y2="56.63"/><polyline class="cls-4" points="62.74 120.53 62.46 120.53 30.55 120.57"/><path class="cls-2" d="M156.6,54.16l-38.15,56c-.85.91-1.69,1.82-2.54,2.72a36.94,36.94,0,0,1-3.63,3.56,18.82,18.82,0,0,1-8.86,4.06l-33.19,0v-.07a34.42,34.42,0,0,0,7.37-7.24l54.39-79Z" transform="translate(-1)"/><line class="cls-4" x1="130.99" y1="34.29" x2="76.6" y2="113.27"/><line class="cls-4" x1="155.6" y1="54.16" x2="117.45" y2="110.19"/><line class="cls-4" x1="130.99" y1="34.29" x2="155.6" y2="54.16"/><polyline class="cls-4" points="69.04 120.58 69.23 120.58 102.42 120.53 102.74 120.53"/><path class="cls-4" d="M70.23,120.51a34.42,34.42,0,0,0,7.37-7.24" transform="translate(-1)"/><path class="cls-4" d="M103.42,120.53a18.82,18.82,0,0,0,8.86-4.06,36.94,36.94,0,0,0,3.63-3.56c.85-.9,1.69-1.81,2.54-2.72" transform="translate(-1)"/><path class="cls-2" d="M114.76,118.93a14.72,14.72,0,0,0,2.29-2.44l1.55-1.93v-.07L159,56.5l23.49,20.06L157.9,111.68a30.09,30.09,0,0,1-14.16,8.85l-31.69,0v-.06A14.65,14.65,0,0,0,114.76,118.93Z" transform="translate(-1)"/><line class="cls-4" x1="158.02" y1="56.5" x2="117.59" y2="114.49"/><line class="cls-4" x1="181.51" y1="76.56" x2="156.9" y2="111.68"/><line class="cls-4" x1="158.02" y1="56.5" x2="181.51" y2="76.56"/><polyline class="cls-4" points="110.67 120.57 111.05 120.57 142.74 120.53"/><path class="cls-4" d="M112.05,120.51a11.25,11.25,0,0,0,5-4l1.55-1.93" transform="translate(-1)"/><path class="cls-4" d="M143.74,120.53a30.09,30.09,0,0,0,14.16-8.85" transform="translate(-1)"/><path class="cls-2" d="M209,98.14l-11,15.19a40.49,40.49,0,0,1-6.7,4.32c-.94.45-1.92.84-2.89,1.22l-4,1.6v.06l-31.7,0a32.61,32.61,0,0,0,8.7-6.67l23.35-34.49Z" transform="translate(-1)"/><line class="cls-4" x1="183.72" y1="79.41" x2="160.37" y2="113.9"/><line class="cls-4" x1="207.97" y1="98.14" x2="197" y2="113.33"/><line class="cls-4" x1="183.72" y1="79.41" x2="207.97" y2="98.14"/><polyline class="cls-4" points="151.67 120.57 183.37 120.53 183.74 120.53"/><path class="cls-4" d="M152.67,120.57a32.61,32.61,0,0,0,8.7-6.67" transform="translate(-1)"/><path class="cls-4" d="M184.37,120.47l4-1.6c1-.38,2-.77,2.89-1.22a40.49,40.49,0,0,0,6.7-4.32" transform="translate(-1)"/></g></g></svg>