<svg xmlns="http://www.w3.org/2000/svg" viewBox="0 0 458.31 121.08"><defs><style>.cls-1{font-size:60px;font-family:Reeji-CloudZongYi-GB-Regular, Reeji-CloudZongYi-GB;}.cls-1,.cls-2{fill:#231815;}.cls-3{fill:#e60012;}.cls-4{fill:none;stroke:#231815;stroke-miterlimit:10;}</style></defs><title>shenhua-logo</title><g id="图层_2" data-name="图层 2"><g id="图层_1-2" data-name="图层 1"><text class="cls-1" transform="translate(217.57 70.44)">中国神华</text><path class="cls-2" d="M235.57,106.05a7.77,7.77,0,0,1-8.08,6c-6.12,0-9.29-4.77-9.29-10.67,0-5.67,3.14-10.82,9.36-10.82,4.7,0,7.37,2.65,8,6.15h-2.14a5.71,5.71,0,0,0-6-4.28c-4.94,0-7,4.5-7,8.89s2,8.87,7.11,8.87c3.33,0,4.92-1.81,5.85-4.14Z"/><path class="cls-2" d="M239.91,90.86h2.14v9h11.82v-9H256V111.8h-2.14V101.71H242.05V111.8h-2.14Z"/><path class="cls-2" d="M264.1,90.86V111.8H262V90.86Z"/><path class="cls-2" d="M270.06,111.8V90.86h3c3.14,5,10.29,16.09,11.55,18.36h0c-.19-2.87-.16-6-.16-9.46v-8.9h2.09V111.8h-2.78c-2.95-4.71-10.3-16.44-11.71-18.77h0c.14,2.59.13,5.86.13,9.65v9.12Z"/><path class="cls-2" d="M294.82,105l-2.48,6.8h-2.15l7.59-20.94h2.59l7.91,20.94H306l-2.55-6.8Zm8-1.9c-2.19-5.9-3.34-8.86-3.77-10.35h0c-.51,1.67-1.8,5.31-3.56,10.35Z"/><path class="cls-2" d="M320.2,106.09c.6,2.66,2.39,4.17,5.65,4.17,3.58,0,5-1.74,5-3.88s-1.05-3.58-5.47-4.66c-4.65-1.15-6.48-2.7-6.48-5.69s2.14-5.47,6.71-5.47c4.78,0,6.77,2.85,7.05,5.48h-2.2c-.43-2.07-1.76-3.65-4.95-3.65-2.8,0-4.35,1.29-4.35,3.48s1.28,3,5.06,3.92c5.93,1.46,6.88,3.8,6.88,6.39,0,3.22-2.36,5.87-7.33,5.87-5.25,0-7.33-3-7.73-6Z"/><path class="cls-2" d="M337.44,90.86h2.13v9h11.82v-9h2.14V111.8h-2.14V101.71H339.57V111.8h-2.13Z"/><path class="cls-2" d="M372.16,101.74H361.6v8.17h11.58l-.29,1.89h-13.4V90.86h13.19v1.9H361.6v7.08h10.56Z"/><path class="cls-2" d="M377.16,111.8V90.86h3c3.14,5,10.29,16.09,11.55,18.36h0c-.19-2.87-.16-6-.16-9.46v-8.9h2.08V111.8h-2.77c-3-4.71-10.3-16.44-11.71-18.77h0c.15,2.59.14,5.86.14,9.65v9.12Z"/><path class="cls-2" d="M399.59,90.86h2.14v9h11.82v-9h2.14V111.8h-2.14V101.71H401.73V111.8h-2.14Z"/><path class="cls-2" d="M423.69,90.86v12.65c0,5.29,2.94,6.68,5.78,6.68,3.33,0,5.76-1.46,5.76-6.68V90.86h2.17V103.4c0,6.66-3.6,8.65-8,8.65s-7.92-2.18-7.92-8.42V90.86Z"/><path class="cls-2" d="M444.85,105l-2.48,6.8h-2.15l7.58-20.94h2.6l7.91,20.94H456l-2.54-6.8Zm8-1.9c-2.18-5.9-3.33-8.86-3.76-10.35h0c-.51,1.67-1.81,5.31-3.57,10.35Z"/><rect class="cls-3" x="62.59" y="4.55" width="31.26" height="39.43" transform="matrix(0.92, -0.39, 0.39, 0.92, -3.25, 32.55)"/><path class="cls-2" d="M81.8,56.63l-35.52,52.7-2.05,3.06a27.22,27.22,0,0,1-3.87,3.72,33.4,33.4,0,0,1-8,4.35v.07l-31.91,0L55.9,38.66Z"/><line class="cls-4" x1="55.9" y1="38.66" x2="0.41" y2="120.57"/><path class="cls-4" d="M32.32,120.46a33.4,33.4,0,0,0,8-4.35,27.22,27.22,0,0,0,3.87-3.72l2.05-3.06L81.8,56.63"/><line class="cls-4" x1="55.9" y1="38.66" x2="81.8" y2="56.63"/><polyline class="cls-4" points="32.6 120.53 32.32 120.53 0.41 120.57"/><path class="cls-2" d="M125.46,54.16l-38.15,56c-.85.91-1.69,1.82-2.54,2.72a36.94,36.94,0,0,1-3.63,3.56,18.82,18.82,0,0,1-8.86,4.06l-33.19,0v-.07a34.42,34.42,0,0,0,7.37-7.24l54.39-79Z"/><line class="cls-4" x1="100.85" y1="34.29" x2="46.46" y2="113.27"/><line class="cls-4" x1="125.46" y1="54.16" x2="87.31" y2="110.19"/><line class="cls-4" x1="100.85" y1="34.29" x2="125.46" y2="54.16"/><polyline class="cls-4" points="38.9 120.58 39.09 120.58 72.28 120.53 72.6 120.53"/><path class="cls-4" d="M39.09,120.51a34.42,34.42,0,0,0,7.37-7.24"/><path class="cls-4" d="M72.28,120.53a18.82,18.82,0,0,0,8.86-4.06,36.94,36.94,0,0,0,3.63-3.56c.85-.9,1.69-1.81,2.54-2.72"/><path class="cls-2" d="M83.62,118.93a14.72,14.72,0,0,0,2.29-2.44l1.55-1.93v-.07l40.43-58,23.49,20.06-24.61,35.12a30.09,30.09,0,0,1-14.16,8.85l-31.69,0v-.06A14.65,14.65,0,0,0,83.62,118.93Z"/><line class="cls-4" x1="127.88" y1="56.5" x2="87.45" y2="114.49"/><line class="cls-4" x1="151.37" y1="76.56" x2="126.76" y2="111.68"/><line class="cls-4" x1="127.88" y1="56.5" x2="151.37" y2="76.56"/><polyline class="cls-4" points="80.53 120.57 80.91 120.57 112.6 120.53"/><path class="cls-4" d="M80.91,120.51a14.65,14.65,0,0,0,2.71-1.58,14.72,14.72,0,0,0,2.29-2.44l1.55-1.93"/><path class="cls-4" d="M112.6,120.53a30.09,30.09,0,0,0,14.16-8.85"/><path class="cls-2" d="M177.83,98.14l-11,15.19a40.49,40.49,0,0,1-6.7,4.32c-.94.45-1.92.84-2.89,1.22l-4,1.6v.06l-31.7,0a32.61,32.61,0,0,0,8.7-6.67l23.35-34.49Z"/><line class="cls-4" x1="153.58" y1="79.41" x2="130.23" y2="113.9"/><line class="cls-4" x1="177.83" y1="98.14" x2="166.86" y2="113.33"/><line class="cls-4" x1="153.58" y1="79.41" x2="177.83" y2="98.14"/><polyline class="cls-4" points="121.53 120.57 153.23 120.53 153.6 120.53"/><path class="cls-4" d="M121.53,120.57a32.61,32.61,0,0,0,8.7-6.67"/><path class="cls-4" d="M153.23,120.47l4-1.6c1-.38,1.95-.77,2.89-1.22a40.49,40.49,0,0,0,6.7-4.32"/></g></g></svg>