<svg xmlns="http://www.w3.org/2000/svg" viewBox="0 0 127.62 104.14"><defs><style>.cls-1,.cls-2{fill:#c8161d;}.cls-2{fill-rule:evenodd;}</style></defs><title>资源 2</title><g id="图层_2" data-name="图层 2"><g id="图层_1-2" data-name="图层 1"><path class="cls-1" d="M.11,86.79c-.11.09-.12.3-.1.55a4,4,0,0,0,.22.92,5.29,5.29,0,0,0,1.38,1.37,1.67,1.67,0,0,0,1.4.46,3.65,3.65,0,0,0,1.36-.26A2.71,2.71,0,0,0,5,89.37a3.87,3.87,0,0,0,.49-.57A20.54,20.54,0,0,1,9.93,85a5.78,5.78,0,0,1,2.59-1.22,6.8,6.8,0,0,0,3.67-1.08,2.56,2.56,0,0,0,.86-.72,1.83,1.83,0,0,0,.28-.94c0-.14,0-.67-.09-.75s-.29,0-.5,0l-.37.08a7.66,7.66,0,0,0-2.23.77L7.75,84.74A24.87,24.87,0,0,1,1.63,87a2.56,2.56,0,0,1-1.4-.78c-.11-.1-.07,0,0,.09s.1.36,0,.4Z"/><path class="cls-1" d="M9.55,66.24c-.1.32,0,.73.51,1.43a7.63,7.63,0,0,1,.82,3.14,65,65,0,0,1,.3,7.22c0,1.2,0,2.14-.06,3.12v.1c0,.31,1.28-.37,1.58-1a7.72,7.72,0,0,0,.48-2.63,8.42,8.42,0,0,1,.23-1.84c.27-.72,1.3-.7,1.93-.8,1.3-.21,3.6-.4,4.38-1.4a1.93,1.93,0,0,0,.62-1.51,4.32,4.32,0,0,0-.18-.77c-.39-1-6.07,3-6.55,1.87a6.82,6.82,0,0,1,.18-1.91,8.32,8.32,0,0,0,.2-2.94A4.8,4.8,0,0,0,12.45,66a4.29,4.29,0,0,0-2.21-.65,3.08,3.08,0,0,0-.69.86"/><path class="cls-1" d="M53.5,76.37h0a2.83,2.83,0,0,1,1.26.63,6.27,6.27,0,0,1,1,1c.28.23.39.43.53.42a1.52,1.52,0,0,0,.32-.52l.5-1a1.93,1.93,0,0,0,.23-.82c.22-.07.72.52.95.6s.36.35.56.59.53.6.53.94a2.94,2.94,0,0,1-.26,1c-.14.15-.36.24-.59.45s-.32.35-.31.48a.9.9,0,0,0,.19.5c.09.12.23.22.32.36l.49.71s0,0,0,0a6.19,6.19,0,0,0,.42.5,6.31,6.31,0,0,1,.59.84,9.86,9.86,0,0,0,1,1.14l1.42,1.4a6.28,6.28,0,0,0,1.63.89,11.46,11.46,0,0,0,1.18.34c.24.09.44.14.43.24s-.24.21-.46.34a4.64,4.64,0,0,1-1.13.11,2.22,2.22,0,0,0-.37,0l-.33.06a1.56,1.56,0,0,1-.33.05l-.27.08a7.44,7.44,0,0,1-.78.2,3.47,3.47,0,0,1-.89-.19c-.33-.18-.63-.3-.91-.49A4.19,4.19,0,0,1,59,85.56l-.51-1.07a10.14,10.14,0,0,1-.52-1c-.35-.65-.7-1.52-1-2-.41-.13-.85,1-1.07,1.18a7.58,7.58,0,0,0-.5.7A12.1,12.1,0,0,1,54,84.78a16.94,16.94,0,0,1-1.43,1.09,19,19,0,0,1-2,1.06,3.78,3.78,0,0,1-2.42.57,1.59,1.59,0,0,1-.57-.1A5.71,5.71,0,0,0,49.09,87a4.8,4.8,0,0,0,1.82-1.14,9.44,9.44,0,0,0,1-1.06c.4-.43.8-.81,1.18-1.28L54,82.4l.68-1.09h0l.12-.21a4.72,4.72,0,0,0,.4-.58,3,3,0,0,0,.52-.92,6.84,6.84,0,0,0-1.17-1.7c-.22-.22-.34-.59-.6-.85,0-.15-.37-.46-.51-.67m2-4.19h0a4.51,4.51,0,0,1-1,.85c-.09.06-.59.55-.61.58-.32.4-.34.29-.66.55a2.56,2.56,0,0,1-.3.28c-.22.12-.26.25-.44.45a1.49,1.49,0,0,0-.34.76c0,.16.15.3.39.31s.64-.32,1-.51a13.53,13.53,0,0,1,1.28-.63,4.93,4.93,0,0,0,.52-.11,7,7,0,0,0,2.31-1.34,9.62,9.62,0,0,0,.83-1c.21-.2.67-.48.81-.19a.75.75,0,0,1-.06.79.88.88,0,0,0-.23.61s.71-.06.79,0,.5-.15.59-.06a.84.84,0,0,0,.61.1,1.08,1.08,0,0,0,.26-1.75c-.13-.08-.8-.16-1-.27a3.06,3.06,0,0,0-2,.32,12.32,12.32,0,0,0-1.16.76,3.77,3.77,0,0,1-.69.29,5,5,0,0,0-.65.21c-.1,0-.35.07-.29,0a.91.91,0,0,0,.14-.28.8.8,0,0,0,0-.27A1.9,1.9,0,0,1,55.45,72.18Zm.42-6.91a4.89,4.89,0,0,1,2,.53c.21.13.62.25.89.39a1.45,1.45,0,0,1,.81,1.49c0,.14-.38.53.11.27a3,3,0,0,1,.73-.17,6.5,6.5,0,0,0,1.28-.3c.09-.42.44-.32.82-.3a5.24,5.24,0,0,1,.68,0c.14,0,.38-.06.56,0,.34.08.59.31.46.7s-.7.41-1.17.54a8.23,8.23,0,0,0-2.17.91,11.38,11.38,0,0,1-1.88.76c-.24.08-.44.11-.42,0a5.81,5.81,0,0,1,.67-.61,1.11,1.11,0,0,0,.16-.24,2.47,2.47,0,0,0-.65.17l-.9.25-1.46.42c-.33.08-.6.13-1,.21l-.58.06c-.22,0-.55.08-.66.08s-.2-.08-.18-.09l1.32-.57a3.93,3.93,0,0,0,.52-.35,2.84,2.84,0,0,0,.4-.53l.24-.27a.84.84,0,0,0,.12-.31c.09-.21.27-.36.27-.55a3.18,3.18,0,0,0-.43-1.61A1.83,1.83,0,0,0,55.87,65.27Z"/><path class="cls-1" d="M101.45,65.27a4.24,4.24,0,0,1-.55,1.89l-.69,1.57-.93,2.09a8.55,8.55,0,0,0-.61,1.05c-.3.59-.51,1-.64,1.26a6.13,6.13,0,0,1-1.38.26,14.71,14.71,0,0,1-2.9-.29,5,5,0,0,0,.37.51,3.46,3.46,0,0,0,.52.71,14.52,14.52,0,0,1,1.24,1,1.87,1.87,0,0,0,.48.26,5.44,5.44,0,0,1-.86,1.68,14.2,14.2,0,0,1-.91,1.43c-.37.6-.77,1.31-1.18,1.84a34.53,34.53,0,0,1-4.26,4.93c-.15.13-.42.27-.56.4s-.42.35-.62.55c-.55.71-2.47,1.48-2.29,1.51.59.29,2-.48,3-1a18.9,18.9,0,0,0,2.13-1.3c.39-.25.69-.46,1-.69a15.13,15.13,0,0,0,2.87-2.56l1-1.25,1.46-1.91c.44,0,1.2,1.09,1.57,1.68a10,10,0,0,1,.93,1.71,10.26,10.26,0,0,0,1,1.66,4.12,4.12,0,0,0,.93.76c.14.08.26.24.38.3a2.33,2.33,0,0,0,.78.07,1.51,1.51,0,0,0,1.19-.6,3.1,3.1,0,0,1,.71-.77c.14-.19,2-.56,1.79-1.08,0-.08-.42,0-.59,0a2.49,2.49,0,0,0-.78,0c-.38,0-.76,0-1.26-.08a4.34,4.34,0,0,1-1.45-.41,7.09,7.09,0,0,1-.68-.38,35.52,35.52,0,0,1-2.91-2.41c-.42-.29-.74-.55-1.14-.87l.56-1c.49-.68.94-1.75,1.46-2.37.14-.15.4-.35.5-.47a13.16,13.16,0,0,1,1.87-.62,8.2,8.2,0,0,0,2.75-1.35c.18-.16.36-.55.3-.64s-.67-.29-.84-.36l-1.11,0c-.18,0-.32.06-.54-.09-.13.17.18.32-.29.42-.11,0-1.33.29-1.34.15A17.6,17.6,0,0,1,102,69.67a11.37,11.37,0,0,1,.89-1.78,2.61,2.61,0,0,0,.11-1.47,2.48,2.48,0,0,0-1.55-1.15"/><path class="cls-1" d="M44.1,75c-.33,0-.63-.06-.83.2a1.16,1.16,0,0,1-.58.51l-.59.19c-.29.08-.52.1-.5-.08a12.44,12.44,0,0,1,.13-1.43,4.62,4.62,0,0,0,.48-1.62c0-.5-.23-.93-1-1h0l-.18,0-.51-.09h0a2.58,2.58,0,0,0-1.26.77,3.6,3.6,0,0,1-1,.69l-.38.13a12.5,12.5,0,0,1,2.67-3.09c.24-.19.55-.42.84-.69a3.8,3.8,0,0,1,1.36-.82c.32-.14.65-.28,1-.39a2.31,2.31,0,0,0,.72-.35.72.72,0,0,0,.08-.77,1.29,1.29,0,0,0-.61-.63.72.72,0,0,0-.8.09,8.56,8.56,0,0,1-3.65,1.82.14.14,0,0,1-.1,0,1.33,1.33,0,0,1-.07-.52c0-.24,0-.54,0-.82a.19.19,0,0,0,0-.09,2.32,2.32,0,0,0-1.58-.25c-.43.14-.43.65-.43,1.17a2.45,2.45,0,0,1-.19,1.13,1.76,1.76,0,0,1-.84.71,1.9,1.9,0,0,0-.17,1.13c.09.2.62.16.8.15a2.67,2.67,0,0,1,.49,0c.4.15.88-.25,1.21-.46a2.61,2.61,0,0,1,.7-.38.23.23,0,0,1,.32.17c0,.1-.06.19-.18.3a19.81,19.81,0,0,0-2,2.33l-.61.79c-.07.07,0,.15-.19.29a3,3,0,0,1-1.58.75c-.1,0-.21,0-.24,0,0,.43.44.54.62.59s.16,0,.18.12a23,23,0,0,1-1.38,2.34.12.12,0,0,1-.07,0,6.36,6.36,0,0,1-2.13.26c-.07,0-.17,0,0,.07a2.92,2.92,0,0,0,.93.35,3.72,3.72,0,0,0,.88,0A9.83,9.83,0,0,1,33,80c-.75,1.19-1.75,2.76-1.49,3.54a.84.84,0,0,0,.47.29,8.91,8.91,0,0,0,1.33.2,4.73,4.73,0,0,0,1.24-.11,14.21,14.21,0,0,0,1.48-.49c.35-.11,1.4-.38,1.59-.41a4.12,4.12,0,0,1,.62,1.22,7.51,7.51,0,0,0,.39,1.12c.2.18,1.33-.11,1.69-.17.64-.1.85-3.35.85-3.35s.24-.13.41-.25a.83.83,0,0,0,.35-.69c0-.09-.15-.19-.2-.21a.72.72,0,0,0-.52,0,17.38,17.38,0,0,1,.3-3.23s0,0,0,0a5.29,5.29,0,0,1,2-.32,9.22,9.22,0,0,0,1.07-.1,1.94,1.94,0,0,0,1.19-.81,1.26,1.26,0,0,0,.12-.42.57.57,0,0,0-.16-.35C45.35,75,44.62,75,44.1,75m-7.19,0a1.36,1.36,0,0,1,.46.88,2.59,2.59,0,0,1-.51,1.48l-.9.2a.13.13,0,0,1-.14-.07c-.15-.36.67-1.86.89-2.35Zm1.82,8.55a.18.18,0,0,1-.25,0,1,1,0,0,1-.13-.16,2.22,2.22,0,0,0-.4-.41c.1,0,.89-.28.94-.2A1.06,1.06,0,0,1,38.73,83.51ZM34.86,82.1c-.49.11-.84.1-.89-.09a4.48,4.48,0,0,1,.45-1.61,12.34,12.34,0,0,1,1-2.08h0s1.43-.26,1.66-.31c.24.34.76.94.65,1.36a.13.13,0,0,1,0,0c-.06.08-.29.32-.27.4s.16,0,.22,0,.83.17.83.16a1.4,1.4,0,0,0,1-.26l.16-.1c-.09.45-.09.84-.16,1.29A40.32,40.32,0,0,1,34.86,82.1Zm3.41-3.9-.18-.13-.23-.17.27-.06,1.17-.26a1.56,1.56,0,0,1,.51-.08.12.12,0,0,1,.07.07,1.7,1.7,0,0,1,0,.52c0,.28-.09.65-.16,1l0,.27A6.69,6.69,0,0,0,38.27,78.2Zm1.82-1.81c-.31.12-.68.24-1.07.35-.58.17-1.15.32-1.73.47a2.66,2.66,0,0,1,.74-.83,1.13,1.13,0,0,0,.74-.15.69.69,0,0,0,.31-.43c.05-.36,0-.39-.27-.56a13.18,13.18,0,0,0-1.28-.69l.19-.13c.46-.31,1-.64,1.41-.89a2.71,2.71,0,0,1,1.14-.47s0,0,.06.09a6,6,0,0,1,0,1.7,6.25,6.25,0,0,1-.22,1.52Z"/><path class="cls-1" d="M30.11,65.6a7.26,7.26,0,0,0-1.25-.33c-.37,1,.57,1.51,1.35,2,.61.34,1.13.63,1.06,1.08a2.08,2.08,0,0,1-.18.39c-.09.17-.2.36-.25.48s.28-.17.35-.24a2.09,2.09,0,0,1,.79-.5h.07a1.64,1.64,0,0,0,.6.09c.4,0,.82,0,1-.44a2.21,2.21,0,0,0,.12-.72c0-1.09-1.17-1.28-2.2-1.44a6.18,6.18,0,0,1-1-.19l-.47-.15"/><path class="cls-1" d="M24,85c-.22.22-.59.58-.6.9,0,.78.68,2.12,1.59,2.18a1.46,1.46,0,0,0,1.19-.89c.13-.29.33-.76.43-1a33.08,33.08,0,0,1,1.71-3c1-1.76,1.89-3.54,2.85-5.3.23-.5-.16,0-.4.38-.7,1-3.84,5.22-4.43,5.22,0,0-.29,0-.32-.06s-.07-.17-.05-.34c.45-1.49,3.39-6.49,4.77-7.17l.33-.1a1.2,1.2,0,0,0,.48-.19.86.86,0,0,0,.3-.66c0-.42-.51-.83-1-1.27-.23-.19-.47-.39-.68-.6-.92-.92-1.4-1-1.53-1-.49,0-.52,1.25-.54,1.59,0,.11,0,.19,0,.23,0,.3.54.79.88,1.09s.39.33.4.44a1.66,1.66,0,0,1-.11,1,42.66,42.66,0,0,1-2.87,4.93A37.54,37.54,0,0,1,24,85"/><path class="cls-1" d="M113.2,74.29c.18.07.32,0,.56-.19.46-.47.37-.92.2-1.5a2.62,2.62,0,0,0-.59-.85,15.45,15.45,0,0,0-1.21-1.37c-.08-.08-.12-.08-.11,0,.06.73.31,1.48.41,2.34.06.55.31,1.38.74,1.54"/><path class="cls-1" d="M123.58,80.66a5.57,5.57,0,0,0-1-.42c-.52-.25-.93.29-1.37.5a15.08,15.08,0,0,0-1.64.41,9.74,9.74,0,0,0-1.92.77l-3,1.47a1.21,1.21,0,0,1-.81.1,3.79,3.79,0,0,1-.62-.23.88.88,0,0,0,0,.46c.23.47.27.92,1,.91h.33a4.23,4.23,0,0,0,2.08-.85c.29-.19.52-.43.89-.64s.89-.47,1.37-.69a2.7,2.7,0,0,1,0,.75c-.16.87-.23,1.9-.32,2.54a19.07,19.07,0,0,0-.09,2c0,.45-.1.83-.3.93s-.32-.08-.68-.13c-.7-.11-1.68-.24-2.11-.29a5.29,5.29,0,0,1-1.84-.51c-.77-.4-1.32-.72-1.28-.58a6.67,6.67,0,0,0,1.53,1.18l1.56,1,2.33,1.22a4.42,4.42,0,0,1,.69.34c.23.17.4.41.74.44a.89.89,0,0,0,.93-.81l0-1.94c0-.52,0-1,0-1.54,0-.74-.15-1.5-.15-2.27s-.16-2.12-.68-2.54a4.1,4.1,0,0,1,1.4-.33c.68,0-.71.41-.82.55s.72.25.79.22a2.58,2.58,0,0,1,1.11-.12c.38,0,.56-.27,1-.38s1-.11,1.23-.36,0-.79-.45-1.12"/><path class="cls-1" d="M125.71,73.3c-.18.07-1.69.36-1.95.44l-1.82.55c.12-.25.35-.63.52-1h0a29.39,29.39,0,0,1,3.77-5.73l.86-1.07a7.7,7.7,0,0,0,.36-.69c.18-.28.22-.55.05-.7a3.44,3.44,0,0,0-1.17-.28c-.6.18-1.56.43-2.46.78-.67.27-1.31.5-1.74.72a22.31,22.31,0,0,0-3,1.57,2.34,2.34,0,0,0-.35-.13c-.16-.09-.42-.12-.38-.15s1.45-1.09,1.65-1.29c.55-.35,2.47-1.59,2.5-2.26a2.41,2.41,0,0,0-1.2-1.74,3.88,3.88,0,0,0-1-.5c.08.4.46.71.46,1.12a2,2,0,0,1-.21.57,17.5,17.5,0,0,1-1.78,2.95,7.5,7.5,0,0,1-.74,1,1,1,0,0,1-.52,0c-.35-.08-.39-.07-.37.06a4.72,4.72,0,0,0,.48.91c.08.15.28.37.23.6a8.54,8.54,0,0,1-.57,1.52,4.72,4.72,0,0,1-.32.7.91.91,0,0,1-.59.28c.12-.21.08-.46-.13-.86l-.68-1.36c-.67-.93-1.18-2.22-1.89-2.62A11.47,11.47,0,0,0,114,68c.14.58.44,1.49.5,1.91s.33,1.08.41,1.63c0,.29-.2.32-.17.38.16.31.48.33.81.16l.31-.18c0,.16.46.2.44.35a6.3,6.3,0,0,1-1.06,2.23c-.4.56-.47.41-.47.56s.44,0,.71-.23l1-1c.17-.18.44-.65.61-.82a.52.52,0,0,1,.32.15c.12.11.21.31.38.41a6.46,6.46,0,0,0,.67.29c.07,0,.29,0,.35.07s0,.13,0,.18,0,.36,0,.61a1.81,1.81,0,0,0,.07.49c-.75.36-1.12.52-1.38.64a20.46,20.46,0,0,0-1.94,1A11.45,11.45,0,0,0,113,79c-.33.34-1.83,2-2.22,2s1.37-2.73,1.55-3.15.46-.84.57-1.1a20.28,20.28,0,0,0-2.12,3.29c-.1.25-.56.79-.53,1.09,0,.67-.06,1.07.34,1.16.17,0,.3-.15.45-.26a5,5,0,0,0,1.61-1.64c1.18-2,1.94-2.93,4-3.79l1.8-.74c.16-.07.48-.17.75-.27a.88.88,0,0,0,.68.29,3.12,3.12,0,0,0,1.32-.85c.33-.07.78-.24,1.1-.33l1.93-.55a6.34,6.34,0,0,1,1.61-.33c0,.44-1.3,1-1.68,1.19L121,76.42c-.3.13-1,.42-1.39.63-.15.07-.32.22-.42.26-.6.22-1.29.56-1.06.55a6,6,0,0,0,1.66-.33,15.74,15.74,0,0,1,2.86-.71,11.15,11.15,0,0,0,3.21-1.09c.49-.29,1.39-1,1.54-1.59a.76.76,0,0,0-.16-.74c-.3-.28-1.25-.15-1.57-.1m-6.76-2h0s0,.19-.06.36,0,.39,0,.58v.06c-.07,0-.11.09-.26.06a.74.74,0,0,1-.46-.28c0-.17.12-.3.2-.48a6.91,6.91,0,0,1,1.31-1.71c.16-.15.48-.2.54-.35.19-.41-.08-1-.71-1.33.28-.13.62-.32.81-.27s.9,1,1,1.35a1.57,1.57,0,0,1,0,1.35A3.73,3.73,0,0,1,119.49,72c-.12,0-.3.15-.41.21C119,71.85,119,71.28,119,71.33Zm1.63,2.44c-.32.32-.52.73-.73.76-.58.09-.64-1.46-.72-1.89a2.38,2.38,0,0,0,.29-.13,9.31,9.31,0,0,0,1.89-.85c.39-.13.65,0,1-.66.14-.44.08-.74-.23-1.67a4.08,4.08,0,0,0-1.43-1.76,12,12,0,0,1,1.53-.77c.32-.1.82-.37,1.33-.53.13-.08,2.12-1,2.54-.74.09.06,0,.25-.09.45-1.16,2.35-3,4.46-4.43,6.64C121.15,73.06,120.69,73.66,120.58,73.77Z"/><path class="cls-1" d="M118.19,80.35a.43.43,0,0,0-.27.33c0,.2.74.18,1,0,.44-.21,1.62-1.43,1.62-1.9,0-.28-.16-.3-.41-.28a4.49,4.49,0,0,0-.88,0c-.11,0-.14.17-.28.26a3.65,3.65,0,0,1-1,.42,3.85,3.85,0,0,1-2.25.19c-.35,0,.52.89,1,.89a4.89,4.89,0,0,0,1.87-.56c.35-.36-.08.42-.36.56"/><path class="cls-1" d="M73.21,83.05A1.85,1.85,0,0,0,72.7,82s-.74-.65-.76-.49c0,.43.27.19.29,1.52,0,.09-.15.28-.11.44.09.39,1.2.27,1.09-.37"/><path class="cls-1" d="M81.86,75.72h0A11.91,11.91,0,0,0,82.51,73a1.46,1.46,0,0,0,0-.88c-.24-.45-1-.53-1.52-.41a5.31,5.31,0,0,0-1.76,1,10.94,10.94,0,0,0-3.66,4.44c-.09.2-.09-.58-.09-.71s.18-1,.07-.85a3,3,0,0,0-.78,1.23c-.25,1.52-1.68,4.31,0,5.48.13.09.52-.24.72-.12s.16-.4.26-.59c.29-.56-.11-1.07-.16-1.7-.1-1,1.08-3.39,1.78-4.22l1.13-1.45,1.28-.94a3.74,3.74,0,0,1,1-.72c1.08-.66-.25,4.2-.33,4.62a13.11,13.11,0,0,0-.46,2.52c-.19,1-.14,2-.28,2.94-.1.62-.33.2-.88.15s-.31-1.54-.2-2-.12-1.28.31-1.51a5.25,5.25,0,0,0,1-1c.32-.71-.28-1-.84-1.11-.83-.2-.14-1.89-.75-2.27s-.47,1-.47,1.13c0,.34-.4.41-.8.54-.17.06,0,0,0,0a.28.28,0,0,1,.23.19c.18.78-.63,1.6-.76,2.37,0,.15-.57.82-.29,1a1.33,1.33,0,0,0,.6.19c.17,0,.31-.2.46-.16a21,21,0,0,1,0,2.57c0,.44-.4.47,0,.81s.82-.35.93-.46.14-.28.2-.26a1.79,1.79,0,0,1,.85,1,1,1,0,0,0,.65.51c.68-.25.72-1.91.84-2.48-.05-.6.27-1.54.28-2.09a27.88,27.88,0,0,1,.71-4m-4.7,3.45c.34-.41.23.2.15.27C77.05,79.63,77.11,79.28,77.16,79.17Z"/><path class="cls-1" d="M74.92,70.81a4.77,4.77,0,0,0,1.85-.6,15.37,15.37,0,0,0,1.16-1.1c.85-.77,1.7-1.59,2.59-2.31a7.27,7.27,0,0,1,1.3-.89,8.73,8.73,0,0,1-1.89,2.51,2.1,2.1,0,0,0-.13,1.25c.06.19.21.14.33.25s-1.82,1.86-1.67,1.87.24-.05.33,0A1.53,1.53,0,0,0,80,71.43c.19-.11.64-.24.82-.34.68-.36,1.6-.62,1.15-1.53-.13-.25-.42-.32-.55-.42-.52-.36-.06-.58.3-1,.19-.24.6-.7.81-1,.47-.74,1-.88,1.21-1.63.06-.17.42-.49.38-.67-.19-.9-.54-.75-1.12-.73a1.66,1.66,0,0,0-.59,0c-.23.1-.28.32-.5.5a11.93,11.93,0,0,1-1.28.65C79.18,66.1,77.8,67,76.45,68s-2.27,2.08-3.78,2.63c0,.63,2,.26,2.25.2"/><path class="cls-1" d="M84.33,86.3c-1.4.1-3,.49-4.39.12-2.08-.55-4-1.29-6-1.89a45.65,45.65,0,0,1-5.3-1.47,4.26,4.26,0,0,0,1.78,1.41c.83.27,2.61.91,3.57,1.35A32.67,32.67,0,0,1,77.67,88c.93.61,2,1.54,3,1.23a3.74,3.74,0,0,0,1.15-1c.55-.58,1.39-.6,2-.94.38-.2,1.52-1.06.44-1"/><path class="cls-1" d="M71.26,79.47a3.78,3.78,0,0,0,1.28.19c1.32-.75-1.11-3.22-2-3.2a7.35,7.35,0,0,0,.61,2.37c.16.35-.09.3.07.64"/><path class="cls-2" d="M63.81,0A28.12,28.12,0,1,0,91.93,28.12,28.15,28.15,0,0,0,63.81,0ZM91.24,28.12A27.43,27.43,0,1,1,63.81.69,27.46,27.46,0,0,1,91.24,28.12Z"/><path class="cls-2" d="M63.81,1.05A27.07,27.07,0,1,0,90.88,28.12,27.1,27.1,0,0,0,63.81,1.05ZM90.62,28.12A26.81,26.81,0,1,1,63.81,1.31,26.84,26.84,0,0,1,90.62,28.12Z"/><path class="cls-2" d="M55.26,4c0,1,.9.48,1.5.43.21,0,2.1-.75,1.83,0-.16.48-.78.32-1.16.36a5.24,5.24,0,0,0-1.4.41c-.41.19-.1.45.23.37a3,3,0,0,1,.89-.08,4.15,4.15,0,0,1,2.14.69c.32.22,1.2,1.1.65,1.37-.34.16-.81-.31-1-.52a3.08,3.08,0,0,0-1.17-.81,2.65,2.65,0,0,0-2.6.53A3.63,3.63,0,0,0,53.8,8.84c-.06.36-.22,1.66-.81,1.23s.28-2,.45-2.3a3.87,3.87,0,0,1,.43-.51l.57-.65A6.34,6.34,0,0,1,55,6.05c.21-.16.29-.45-.09-.44s-.53.23-1,.42-1.58,1.23-1.79.61,1.43-1.07,1.89-1.25l.37-.14a1,1,0,0,0,.22-.13.53.53,0,0,0,.12-.4A2.39,2.39,0,0,1,54.52,4,.62.62,0,0,1,55.26,4Z"/><path class="cls-2" d="M53.76,35l-2-1.07-.66,1.16a1.86,1.86,0,0,1,.77,1.38l3.54,1.9,1.08-1.9-1.77-1L60.23,25.3a.09.09,0,0,0,0-.12l-.84-.44c-.06,0-.09,0-.12,0L53.76,35Z"/><path class="cls-2" d="M57,35.78H71.45a.54.54,0,0,1,.54.54v3.31a.54.54,0,0,1-.54.54H57a.54.54,0,0,1-.53-.54V36.32a.54.54,0,0,1,.53-.54Zm.18.47h0a.22.22,0,0,0-.22.22v2.94a.3.3,0,0,0,.29.3H71.23a.3.3,0,0,0,.29-.3V36.54a.29.29,0,0,0-.29-.29Z"/><rect class="cls-1" x="56.08" y="19.38" width="4.9" height="1.07"/><rect class="cls-1" x="56.08" y="21" width="4.9" height="1.07"/><rect class="cls-1" x="56.08" y="22.63" width="4.9" height="1.07"/><path class="cls-2" d="M74.9,29.77h.3c.09,0,.15.05.15.12v.35a.51.51,0,0,0,.27-.44V28.34a.49.49,0,0,0-.27-.44v.28a.14.14,0,0,1-.15.13h-.3a.15.15,0,0,1-.16-.13V27.9a.5.5,0,0,0-.26.44V29.8a.52.52,0,0,0,.26.44v-.35c0-.07.07-.12.16-.12ZM55.06,25.55c-.18,0-.34,0-.43.15a5.38,5.38,0,0,0-.2,2H53.17l-.31-.31v-2.1c.3-.49,1.07-.86,2.48-.86H58.4c.1,0,.13.08.1.13l-1.67,3.13H55.06V25.55Zm4.36,2.75h0L61.18,25a.11.11,0,0,0,0-.17l-.7-.36h16.9v1.22c0-.05,0,.52-1.53.78-.15,0-.29.05-.44.07v.72a.84.84,0,0,1,.75.82v1.95a.83.83,0,0,1-.75.82V32a.83.83,0,0,1,.75.82v1.91a.83.83,0,0,1-.83.82h-.46a.83.83,0,0,1-.83-.82V32.78a.83.83,0,0,1,.75-.82V30.87a.83.83,0,0,1-.75-.82V28.1a.83.83,0,0,1,.75-.82v-.62a5.09,5.09,0,0,0-3.24,1.57H70.43a4.64,4.64,0,0,0-.94.64A3.11,3.11,0,0,0,68.63,30h-.37a1.86,1.86,0,0,0-.34.28h-.09a.78.78,0,0,0-.19.57c.09.54.25.66.74,1.07a15,15,0,0,1,1.76,1.81c.32.43.37,1,.11,1.2a.33.33,0,0,1-.15,0H58.27c-.42,0-.42-.74-.05-1.24A15.1,15.1,0,0,1,60,32c.49-.41.65-.53.73-1.07s-.61-.95-.61-.95h-.37a3.14,3.14,0,0,0-.65-.87h4.8a.28.28,0,0,0,.27-.28v-.28a.27.27,0,0,0-.27-.27Zm15.93,4.28v.26a.14.14,0,0,1-.15.13h-.3a.15.15,0,0,1-.16-.13v-.26a.5.5,0,0,0-.26.44v1.42a.5.5,0,0,0,.51.5h.12a.5.5,0,0,0,.51-.5V33a.49.49,0,0,0-.27-.44ZM60,33.36a.28.28,0,0,0-.27.28v.28a.28.28,0,0,0,.27.27H68.3a.28.28,0,0,0,.28-.27v-.28a.29.29,0,0,0-.28-.28Zm1.47-1.79a.28.28,0,0,0-.28.28v.28a.28.28,0,0,0,.28.27h5.38a.27.27,0,0,0,.27-.27v-.28a.28.28,0,0,0-.27-.28Zm.2-1.69a.28.28,0,0,0-.27.28v.28a.27.27,0,0,0,.27.27h5a.27.27,0,0,0,.27-.27v-.28a.28.28,0,0,0-.27-.28ZM66,28.3a.27.27,0,0,0-.27.27v.28a.28.28,0,0,0,.27.28h2.24a.28.28,0,0,0,.27-.28v-.28a.27.27,0,0,0-.27-.27Z"/><rect class="cls-1" x="61.37" y="19.38" width="0.84" height="1.07"/><path class="cls-2" d="M56.71,18.4a11.69,11.69,0,0,0,4.53-1.3l.44,1A13,13,0,0,1,57,19.39Z"/><polygon class="cls-2" points="62.38 16.56 61.62 16.92 62.05 17.89 62.82 17.51 62.38 16.56 62.38 16.56"/><rect class="cls-1" x="61.37" y="21" width="0.84" height="1.07"/><rect class="cls-1" x="61.37" y="22.63" width="0.84" height="1.07"/><path class="cls-2" d="M67.33,17.81,68.88,17l3.26,5.9-1.55.86-3.26-5.91Zm1,.82.19.32.69-.38L69,18.24l-.69.39Zm.39.71.19.33.7-.39L69.41,19Z"/><path class="cls-2" d="M65.51,16.19h1.86v7.52H65.51V16.19Zm-2.69-.7H64.9v8.22H62.82V15.49Zm.64,1.07v.37h.8v-.37Zm0,.81v.37h.8v-.37Zm0,.82v.37h.8v-.37Zm0,.81v.37h.8V19ZM66,17.37v.37h.8v-.37Zm0,.82v.37h.8v-.37ZM66,19v.37h.8V19Z"/><path class="cls-2" d="M63.8,44.11a16,16,0,1,1,16-16,16,16,0,0,1-16,16ZM83.28,27.6l-1.52-.2a.2.2,0,0,1-.14-.08c0-.25,0-.49,0-.73a.14.14,0,0,1,.12-.09l1.49-.4a.09.09,0,0,0,0-.08c0-.12,0-.27-.06-.44h0c0-.16,0-.31-.07-.44s0-.06-.06-.06H81.51a.17.17,0,0,1-.14-.06q-.08-.34-.15-.72a.16.16,0,0,1,.11-.1l1.43-.59s0,0,0-.09-.06-.26-.11-.42h0c-.05-.16-.09-.31-.12-.44a.07.07,0,0,0-.08-.05L81,22.78a.17.17,0,0,1-.15,0c-.07-.24-.15-.46-.23-.69a.18.18,0,0,1,.09-.13L82,21.16s0,0,0-.08a2.22,2.22,0,0,0-.16-.42h0c-.07-.16-.13-.29-.18-.42s-.05,0-.08,0l-1.49.41a.16.16,0,0,1-.16,0c-.1-.22-.21-.43-.32-.63a.18.18,0,0,1,.08-.15l1.22-.94s0,0,0-.08l-.22-.39a0,0,0,0,0,0,0h0c-.08-.15-.15-.28-.22-.39a.06.06,0,0,0-.09,0l-1.42.6a.17.17,0,0,1-.17,0l-.39-.58a.16.16,0,0,1,0-.17l1.09-1.09s0,0,0-.09-.17-.22-.27-.35h0c-.09-.14-.18-.25-.26-.36s-.07,0-.09,0l-1.33.76a.19.19,0,0,1-.18,0c-.15-.17-.3-.35-.46-.52A.2.2,0,0,1,77,16l1-1.22a.06.06,0,0,0,0-.09c-.09-.1-.19-.21-.31-.32h0a4.26,4.26,0,0,0-.32-.3.06.06,0,0,0-.09,0L76,14.93a.17.17,0,0,1-.17,0l-.52-.45a.19.19,0,0,1,0-.18L76.08,13a.06.06,0,0,0,0-.08l-.36-.27h0a4.4,4.4,0,0,1-.35-.27s-.07,0-.09,0l-1.09,1.09a.17.17,0,0,1-.16.06l-.59-.4a.17.17,0,0,1,0-.17l.6-1.41s0-.06,0-.09l-.39-.23h0a0,0,0,0,0,0,0L73.17,11a.07.07,0,0,0-.09,0l-.93,1.22a.16.16,0,0,1-.15.08L71.37,12a.14.14,0,0,1,0-.16l.4-1.48s0-.06,0-.08l-.41-.18h0l-.42-.17a.06.06,0,0,0-.08,0L70,11.27a.17.17,0,0,1-.13.1c-.23-.09-.46-.17-.7-.24a.16.16,0,0,1,0-.15l.21-1.53s0,0,0-.06l-.43-.12h0l-.43-.11c-.06,0-.07,0-.08,0l-.59,1.41a.14.14,0,0,1-.11.11l-.72-.14a.18.18,0,0,1-.06-.15V8.89s0-.06-.06-.06l-.44-.07h0l-.44,0c-.06,0-.07,0-.07,0l-.41,1.49a.18.18,0,0,1-.09.13l-.73,0a.17.17,0,0,1-.07-.14l-.2-1.53a.07.07,0,0,0-.07-.05h-.92c-.05,0-.06,0-.06.05l-.2,1.53a.18.18,0,0,1-.08.14l-.73,0a.2.2,0,0,1-.08-.13l-.4-1.49s0-.05-.07,0l-.45,0h0l-.44.07a.06.06,0,0,0-.06.06v1.53a.15.15,0,0,1,0,.15l-.73.14a.15.15,0,0,1-.11-.11l-.58-1.41s0,0-.08,0l-.44.11h0l-.42.12c-.06,0,0,0,0,.06L58.46,11a.19.19,0,0,1,0,.15c-.23.07-.47.15-.7.24a.17.17,0,0,1-.12-.1l-.77-1.33a.06.06,0,0,0-.08,0l-.42.17h0l-.4.18c-.06,0-.06.06,0,.08l.39,1.48a.18.18,0,0,1,0,.16l-.64.32a.17.17,0,0,1-.15-.08L54.54,11a.07.07,0,0,0-.09,0l-.39.22h0l-.39.23s0,.06,0,.09l.59,1.41a.15.15,0,0,1,0,.17l-.58.4a.17.17,0,0,1-.16-.06l-1.09-1.09a.06.06,0,0,0-.09,0l-.35.27h0l-.35.27s0,.06,0,.08l.77,1.34a.19.19,0,0,1,0,.18c-.18.14-.34.3-.51.45a.19.19,0,0,1-.18,0L50.42,14a.06.06,0,0,0-.09,0l-.32.3h0l-.31.32a.06.06,0,0,0,0,.09L50.62,16a.17.17,0,0,1,0,.17l-.45.52a.19.19,0,0,1-.18,0l-1.34-.76s0,0-.07,0a3.78,3.78,0,0,0-.29.36h0c-.1.13-.19.26-.27.35s0,.07,0,.09l1.1,1.09a.18.18,0,0,1,.06.17c-.14.19-.27.38-.4.58a.17.17,0,0,1-.17,0l-1.42-.6s0,0-.08,0-.15.24-.23.39h0a4.09,4.09,0,0,0-.22.39s0,.07,0,.08l1.23.94a.17.17,0,0,1,.07.15c-.11.2-.21.41-.32.63a.16.16,0,0,1-.16,0L46,20.18a.07.07,0,0,0-.08,0c0,.13-.11.26-.17.42h0c-.06.15-.11.29-.17.42a.07.07,0,0,0,0,.08l1.32.76a.17.17,0,0,1,.1.13c-.09.23-.15.45-.24.69a.15.15,0,0,1-.14,0l-1.53-.21a.06.06,0,0,0-.07.05c0,.13-.08.28-.12.44h0l-.11.42a.07.07,0,0,0,0,.09l1.42.59a.16.16,0,0,1,.11.1c0,.25-.1.49-.14.72a.17.17,0,0,1-.15.06H44.57s0,0-.06.06,0,.28-.07.44h0c0,.17,0,.32,0,.44s0,.07,0,.08l1.49.4a.18.18,0,0,1,.13.09c0,.24,0,.48,0,.73a.17.17,0,0,1-.14.08l-1.53.2s0,0,0,.06,0,.29,0,.45h0c0,.16,0,.3,0,.44s0,.06,0,.06l1.53.2a.17.17,0,0,1,.14.08c0,.25,0,.48,0,.73a.18.18,0,0,1-.13.09l-1.49.4s0,0,0,.08,0,.28,0,.44h0c0,.16,0,.31.07.44s0,.06.06.06h1.54a.2.2,0,0,1,.15.05c0,.25.09.48.14.73a.16.16,0,0,1-.11.1l-1.42.6s0,0,0,.08l.11.42h0c0,.16.08.31.12.44a.06.06,0,0,0,.07.05l1.53-.21a.15.15,0,0,1,.14,0c.07.24.15.47.24.7a.13.13,0,0,1-.1.11l-1.32.78a.07.07,0,0,0,0,.08c.06.13.11.26.17.41h0c.07.16.13.29.18.42a.06.06,0,0,0,.08,0l1.49-.4a.16.16,0,0,1,.16,0l.32.64a.16.16,0,0,1-.08.15l-1.22.93a.07.07,0,0,0,0,.09c.07.12.14.24.21.38s0,0,0,0h0c.08.15.16.28.23.39a.06.06,0,0,0,.08,0l1.42-.6a.2.2,0,0,1,.17,0c.13.2.26.39.4.58a.18.18,0,0,1-.06.17L48,39.56s0,0,0,.09a4.28,4.28,0,0,1,.26.36h0c.1.13.19.24.29.35s0,0,.07,0L50,39.62a.17.17,0,0,1,.18,0l.45.52a.16.16,0,0,1,0,.16l-.95,1.22a.06.06,0,0,0,0,.09c.09.1.19.21.31.32h0l.32.31a.06.06,0,0,0,.09,0l1.22-.95a.2.2,0,0,1,.17,0c.16.15.34.31.51.45a.17.17,0,0,1,0,.18l-.76,1.34s0,0,0,.09l.36.27h0l.36.27s.06,0,.08,0l1.1-1.09a.17.17,0,0,1,.16-.06l.58.4a.17.17,0,0,1,0,.17l-.6,1.42a.06.06,0,0,0,0,.08c.11.08.24.14.39.23h0l.39.22a.07.07,0,0,0,.09,0L55.46,44a.16.16,0,0,1,.15-.08l.63.32a.16.16,0,0,1,0,.16l-.39,1.48s0,.06,0,.07l.4.18h0l.42.16c.05,0,.07,0,.08,0L57.61,45a.13.13,0,0,1,.12-.09l.7.23a.19.19,0,0,1,0,.15l-.2,1.52s0,.06.05.07l.43.13h0l.43.11c.06,0,.07,0,.08,0l.59-1.42a.19.19,0,0,1,.1-.1l.74.14a.16.16,0,0,1,0,.14v1.53s0,.06.06.07l.44.06h0l.44.06a.07.07,0,0,0,.08-.05l.4-1.48a.15.15,0,0,1,.08-.12l.73,0a.2.2,0,0,1,.08.13l.2,1.53s0,.05.06.06h.92a.09.09,0,0,0,.07-.06l.2-1.53a.19.19,0,0,1,.07-.13l.73,0a.18.18,0,0,1,.1.12l.4,1.48s0,.05.07.05l.44-.06h0l.45-.06s0,0,0-.07V45.81a.17.17,0,0,1,.06-.14l.72-.14a.16.16,0,0,1,.11.1l.59,1.42s0,.06.08,0l.44-.11h0l.43-.13s0,0,0-.07l-.21-1.52a.19.19,0,0,1,0-.15l.7-.23A.15.15,0,0,1,70,45l.76,1.32a.06.06,0,0,0,.09,0l.42-.16h0L71.7,46s0,0,0-.07l-.4-1.48a.18.18,0,0,1,0-.16l.64-.32a.14.14,0,0,1,.14.08l.94,1.22a.06.06,0,0,0,.08,0l.4-.22h0c.15-.09.28-.15.39-.23s0,0,0-.08l-.59-1.42a.17.17,0,0,1,0-.17c.2-.13.4-.26.59-.4a.17.17,0,0,1,.16.06l1.09,1.09s0,0,.09,0l.35-.27h0l.35-.27a.07.07,0,0,0,0-.09l-.77-1.34a.19.19,0,0,1,0-.18c.19-.14.35-.3.52-.45a.23.23,0,0,1,.18,0l1.22.95s0,0,.08,0l.33-.31h0c.12-.11.23-.22.32-.32a.07.07,0,0,0,0-.09L77,40.29a.17.17,0,0,1,0-.16c.16-.17.31-.35.46-.52a.17.17,0,0,1,.18,0l1.33.76s0,0,.09,0,.17-.22.28-.35h0l.27-.36s0-.07,0-.09l-1.09-1.09a.18.18,0,0,1,0-.17l.39-.58a.2.2,0,0,1,.17,0l1.43.6s0,0,.08,0,.14-.24.22-.39h0c.08-.14.16-.26.22-.38s0-.07,0-.09l-1.22-.93a.18.18,0,0,1-.08-.15l.32-.64a.16.16,0,0,1,.16,0l1.49.4a.06.06,0,0,0,.08,0c0-.13.12-.26.18-.42h0a2.15,2.15,0,0,0,.16-.41c0-.05,0-.07,0-.08l-1.34-.78a.11.11,0,0,1-.08-.11c.07-.23.15-.46.22-.7a.17.17,0,0,1,.15,0l1.53.21a.07.07,0,0,0,.08-.05c0-.13.07-.28.12-.44h0c0-.15.08-.3.11-.42s0-.07,0-.08l-1.43-.6a.16.16,0,0,1-.11-.1c.06-.25.1-.48.15-.73a.16.16,0,0,1,.14-.05h1.54s0,0,.06-.06,0-.28.07-.44h0c0-.16,0-.31.06-.44a.09.09,0,0,0,0-.08l-1.49-.4a.14.14,0,0,1-.12-.09c0-.25,0-.48,0-.73a.2.2,0,0,1,.14-.08l1.52-.2s0,0,.07-.06v-.44h0v-.45C83.33,27.61,83.31,27.6,83.28,27.6Z"/><path class="cls-2" d="M62.37,38.57a.14.14,0,0,1-.14.13H60.82a.14.14,0,0,1-.14-.13v-.29a.14.14,0,0,1,.14-.13h1.41a.14.14,0,0,1,.14.13v.29Zm-1.66-1.21a.13.13,0,0,1,.14-.12H62.2a.14.14,0,0,1,.15.12v.28a.14.14,0,0,1-.15.13H60.85a.13.13,0,0,1-.14-.13v-.28Zm2.12.59h0l-.05,0,.05,0h0a.34.34,0,0,0,.18-.3v-.42a.35.35,0,0,0-.35-.34H60.37a.34.34,0,0,0-.34.34v.42a.37.37,0,0,0,.18.3h0l.05,0-.05,0h0a.35.35,0,0,0-.21.32v.49a.32.32,0,0,0,.31.33h2.42a.32.32,0,0,0,.31-.33v-.49A.34.34,0,0,0,62.83,38Z"/><path class="cls-2" d="M59.11,39.09h-.72v-1.7c0-.06,0-.06-.07-.06H58.2l-.53.13v-.41l.56-.14.07,0,.29-.06H59a.09.09,0,0,1,.09.1Z"/><path class="cls-2" d="M43,16.41c-.18-.19.18-.75.35-.4s-.19.46-.35.4Zm3.7-2.61a7.11,7.11,0,0,0-1.6.29A2.75,2.75,0,0,0,44,15.18c-.14.21-.28.49-.52.28s-.34.08-.55,0-.21-.26-.29-.43-.41,0-.57,0-.05-.45-.17-.54c-.42,0-.51.26-.42.6s-.23.56-.21.91a.34.34,0,0,0,.41,0c.16.07.21.25.27.4s.19.11.38.1c1,0,.31,1.2.18,1.68a1.24,1.24,0,0,0,0,.89c.09.16.33.63.38.74.23.39,1.35.93,1,.08-.25-.55-.77-.89-.67-1.55a7.26,7.26,0,0,1,.58-2.06A4.33,4.33,0,0,1,45,14.88a1.3,1.3,0,0,1,.81-.35,2.48,2.48,0,0,0,1,0c.14-.19,0-.55-.14-.7ZM45,17.59h0c0,.43-.42.45-.46.31s.19-.58.41-.46a.31.31,0,0,1,0,.1v.05Zm-.78-.21c-.2-.3.16-.66.24-.95,0-.05,0-.11.14-.12s0,0,.16.08-.34,1.29-.54,1Zm1.51-2.09c.13,0,.52,0,.59.09.33.4-.07.76-.12,1.14-.16.54-.43.72-.09,1.28.22.38,0,1.09-.53,1-.17-.13,0-.5-.13-.59-.63-.09-.62,1.07-1.5.72l-.06-.07c-.08-.36.21-.42.29-.65-.12-.18-.4-.15-.5-.34A3.32,3.32,0,0,1,44.29,16c.15-.27.38-.47.7-.32s.11.79.29,1.08c.53,0,.22-1.06.36-1.39,0,0,0-.05.06-.05Zm-3.51-1c-.09.06-.38.31-.39.07s.26-.61.41-.9.38-.56.75-.42a3,3,0,0,1,.76.52,1.17,1.17,0,0,1,.25.77c0,.36-.14,1.11-.66.94-.15-.42.35-.53.09-.88-.32,0-.2.29-.52.27-.33-.21.1-.62-.11-.86a.39.39,0,0,0-.34.27c-.07.14-.12.14-.24.22ZM42.28,17c.24.34-.05.91-.27,1.19s-.88.11-1.18,0-.69-.39-.47-.78a1.2,1.2,0,0,0,.11-.35c0-.3.06-.7.45-.45.15.08-.29.81-.27.9s.1.1.2.13c.41-.22,0-1,.66-.84.21.21-.09.62.09.75s.21-.51.55-.58A.18.18,0,0,1,42.28,17Z"/><path class="cls-2" d="M74.34,5.82s0,0,0-.05A2.09,2.09,0,0,0,73,5.2l-.09,0,0,0c-.09-.1-.23-.48.08-.38s.34.13.59.22a8.32,8.32,0,0,1,.8.3h0l0,0h0l.1.07c.27.25.17.51-.19.42Zm-1,.9c.07-.41.58,0,.46.3l-.06,0a.41.41,0,0,1-.17-.12,1.81,1.81,0,0,1-.23-.21ZM74,7.9c-.09.25-.76-.2-.74-.51,0,0,0,0,0,0,.21,0,.81.29.72.55ZM73.5,9a.48.48,0,0,0-.06-.7l-.06,0c-.1-.07-.21-.1-.3-.16a.36.36,0,0,0-.21,0,.4.4,0,0,0-.39.4c0,.42.57.61.93.59l.09,0ZM72.22,7.26c-.1,0-.47-.24-.43-.39s.26-.2.67.07a.34.34,0,0,1,0,.12c0,.16,0,.31-.28.2Zm-.74,1c.22.14.7,0,.7-.3,0-.52-.81-.58-1-.19-.06.11.11.35.33.49Zm.88-1.9c.08-.21.39-.09.44.09,0,0,0,.05,0,.05a.4.4,0,0,1-.4-.09s0,0,0,0Zm-2.2.91c.08-.07.21-.16.45,0,0,0,0,.06,0,.08.09.71-1,.39-.5-.12Zm-1.08.4c.23.09,1-.8.53-1.09s-.75,1-.53,1.09ZM75.2,5.2a7.75,7.75,0,0,0-2.5-1c-.44-.08-.86.87-.43,1.13.18.1.87.07.84.37h0c0,.18-.7-.17-1.23.13a.13.13,0,0,0-.07,0,3.55,3.55,0,0,0-.44.43c-.15.14-.37.45-.61.41s-.52-.34-.49-.39.33-.06.48-.25c.27-.36.21-.77.37-1.16s.84-.3.85-.91c0-.24-.23-.38-.39-.55l-.21-.15c-.1-.06-.51,0-.45.26,0,.14.3.56,0,.62a2.76,2.76,0,0,1-1.23-.16,5.5,5.5,0,0,0-.58-.16A.25.25,0,0,0,69,4a.45.45,0,0,0,0,.56h0l0,0a3.29,3.29,0,0,0,.38,0,2.09,2.09,0,0,1,.67.16h0c.23.11.36.19.11.27h0c-.36.12-1-.2-1.38,0l0,0c0,.05-.14.26,0,.32a1.11,1.11,0,0,0,.35.1c.08,0,.54,0,.76,0a1.16,1.16,0,0,0,.16,0,.33.33,0,0,1,.13,0c.16,0,.29,0,.22.19s-1,.48-1.17.42-.48.25-.49.29a2.63,2.63,0,0,1-.12.66c-.12.3-.39.7-.25,1a5.39,5.39,0,0,0,1.47.25l.16,0a5.9,5.9,0,0,1,1.39.35l.39.16A6.89,6.89,0,0,1,73,9.52c.45.51,1.13,1.35,1.39,1A2.44,2.44,0,0,0,74,9.58c-.06-.13.12-.19.18-.27a3,3,0,0,0,.41-1.24c.07-.33.12-.67.21-1s-.42-.63-.75-.73c0,0-.13-.1-.12-.12.06-.27.56,0,.86.14.12.07.42.06.49-.05s.15-.37.24-.5C75.69,5.49,75.45,5.34,75.2,5.2Z"/><path class="cls-2" d="M85.61,16.17c0,.43-.48.72-.84.92s-.83-.26-.9-.56c0-.14-.08-.59,0-.69s.36,0,.51-.15a.16.16,0,0,0,0-.1c0-.42.6-.16.94.11a.92.92,0,0,1,.22.47ZM86.49,19a4,4,0,0,1-.13-.66h0a14.82,14.82,0,0,0-.22-1.61c0-.24-.17-1.13.25-1.13,0,0,.1-.09.11-.12,0-.44-.25-.61-.65-.45a.47.47,0,0,1-.54,0s-.47-.27-.86-.53-1-.73-1-.73c-.34-.21-.68-.72-.88-.13.26.52.85.71,1.26,1.08.19.17.33.56-.07.42a7,7,0,0,1-1.1-.77c-.22-.13-.75-.18-.57.23a1.11,1.11,0,0,0,.55.58c.14.07.61.22.64.33a.87.87,0,0,1-.06.67c-.18.21-.66-.13-.88-.31l-.26-.16a7.44,7.44,0,0,0-.69-.34L81,15.14c-.24-.07-1-.26-.85.29a.2.2,0,0,0,0,.05,3.16,3.16,0,0,0,.47.29c.2.11,1.12.39,1.45.58a3.85,3.85,0,0,1,1,.51.6.6,0,0,1,.18.3,7,7,0,0,1,.14.89,5.72,5.72,0,0,1-.27,1.58c-.12.42-.5,1.11.18,1.14s.65-2.2.69-2.69c0-.15.07-.82.36-.57.49.41.36,1.07.42,1.62,0,.16.16.2.29.24a.38.38,0,0,0,.24,0,1,1,0,0,0,.12-.61,3.14,3.14,0,0,1-.05-1.22c.1-.2.26-.27.33,0v0a2.7,2.7,0,0,1,.06.36,10.45,10.45,0,0,0,.16,1.49c.16.21.45.32.65.05C86.62,19.34,86.51,19.07,86.49,19Z"/><path class="cls-2" d="M66.25,37.68a.13.13,0,0,1-.14.13H64.72a.13.13,0,0,1-.14-.13v-.32a.13.13,0,0,1,.14-.12h1.39a.14.14,0,0,1,.14.12v.32Zm.38-.84H64.2a.32.32,0,0,0-.3.34v.7a.32.32,0,0,0,.3.34h1.91a.14.14,0,0,1,.14.13v.22a.13.13,0,0,1-.14.13H64.72a.14.14,0,0,1-.13-.08H63.9v.14a.31.31,0,0,0,.3.33h2.43a.32.32,0,0,0,.3-.33V37.18A.32.32,0,0,0,66.63,36.84Z"/><path class="cls-2" d="M68.47,38.25a.14.14,0,0,1,.15-.13H70a.13.13,0,0,1,.14.13v.32a.13.13,0,0,1-.14.13H68.62a.14.14,0,0,1-.15-.12v-.32Zm-.37.84h2.42a.32.32,0,0,0,.31-.33v-.71a.33.33,0,0,0-.31-.34h-1.9a.14.14,0,0,1-.15-.12v-.23a.14.14,0,0,1,.15-.12H70a.13.13,0,0,1,.13.07h.7v-.14a.32.32,0,0,0-.31-.33H68.1a.33.33,0,0,0-.31.34v1.58A.32.32,0,0,0,68.1,39.09Z"/><path class="cls-2" d="M39.16,29.12c0-.17,0-.57,0-.83l.55,0v0a1.24,1.24,0,0,0-.27.81c0,.27.16.44.39.43a.48.48,0,0,0,.39-.24c.16-.24.26-.52.46-.78a.86.86,0,0,1,.72-.37c.27,0,.79.11.84,1.11,0,.19,0,.49,0,.74-.14,0-.35-.07-.54-.09v0A.69.69,0,0,0,42,29.3c0-.34-.21-.5-.41-.49s-.36.06-.65.63-.57.75-.85.77S39.2,30.06,39.16,29.12Z"/><path class="cls-2" d="M41.17,33.09a10.71,10.71,0,0,0-1.47.32,3,3,0,0,0,0-.37,4.19,4.19,0,0,0-.09-.42c.43,0,1-.12,1.38-.17,0-.22,0-.33-.07-.49s-.06-.33-.1-.52c-.49.09-.91.17-1.35.29,0-.17,0-.3,0-.37s0-.19-.09-.41c.42,0,1.16-.13,1.49-.18s1.38-.2,1.48-.37h0c0,.18,0,.29,0,.42s.05.27.08.41a7.14,7.14,0,0,0-1.29.16c0,.24,0,.33.07.5s0,.25.1.5a3.35,3.35,0,0,0,1.25-.33h0c0,.15,0,.25.06.43s.06.3.08.41A13.65,13.65,0,0,0,41.17,33.09Z"/><path class="cls-2" d="M42.5,34.52v0H41.41l.08.31c0,.15.07.21.11.31.3-.18.61-.39.9-.59Zm-2,1.68c0-.14-.08-.26-.13-.4a6.43,6.43,0,0,0,1-.52c0-.14-.07-.28-.11-.41s-.09-.27-.13-.37a2.87,2.87,0,0,0-1.06.17L40,34.32c0-.12-.08-.22-.12-.35.18,0,.52.08.66.1l1,.06,1.12,0A.64.64,0,0,0,43,34.1h0c0,.14.08.25.12.34s.09.25.14.38L42.9,35l-.87.57-.89.62a3.36,3.36,0,0,0-.49.42C40.6,36.46,40.56,36.33,40.52,36.2Z"/><path class="cls-2" d="M43.14,38.67c-.19.09-1,.43-1.3.62a2.27,2.27,0,0,0-.26-.49c.23-.36.7-1,.9-1.29l.63-.85h0l-.79.36a11,11,0,0,0-1.21.69,2,2,0,0,0-.12-.29,2.59,2.59,0,0,0-.14-.29,10.66,10.66,0,0,0,1.71-.65,4.09,4.09,0,0,0,1-.58h0a3.33,3.33,0,0,0,.16.4c.07.14.13.28.19.38-.15.18-.5.59-.66.83l-.71,1h0l.53-.24a6.66,6.66,0,0,0,1.23-.72,2.48,2.48,0,0,0,.13.3,1.46,1.46,0,0,0,.14.28A11.67,11.67,0,0,0,43.14,38.67Z"/><path class="cls-2" d="M44.16,41.81a5.64,5.64,0,0,0-.51.33,5,5,0,0,1-.68-.88c-.52-.81-.42-1.45.53-2a1.39,1.39,0,0,1,2.14.52c.19.31.4.68.5.86a3.51,3.51,0,0,0-.57.21l0,0a1.13,1.13,0,0,0-.18-.92c-.33-.52-.87-.44-1.48-.05-.86.55-.87,1-.56,1.43.13.22.26.17.38.09l.27-.17a.92.92,0,0,0,.38-.36h0l.21.36.22.32A5.44,5.44,0,0,0,44.16,41.81Z"/><path class="cls-2" d="M46.8,43.76a10.68,10.68,0,0,0-1.09,1l-.24-.29c-.06-.08-.13-.15-.28-.32.35-.24.84-.64,1.09-.85-.13-.18-.2-.26-.31-.39l-.34-.39c-.38.33-.7.61-1,.94l-.24-.29a3.78,3.78,0,0,0-.27-.31c.34-.23.92-.7,1.18-.92s1.08-.88,1.08-1.07h0c.12.14.19.24.27.34l.28.3a8,8,0,0,0-1,.8c.14.19.21.27.32.4l.33.38a3.64,3.64,0,0,0,.92-.92h0a3.63,3.63,0,0,0,.27.34c.08.1.2.23.28.31C47.68,43.05,47.12,43.5,46.8,43.76Z"/><path class="cls-2" d="M48.68,44.32l0,0c-.34.19-.63.36-.93.55a2.28,2.28,0,0,0,.22.22,2.18,2.18,0,0,0,.26.22c.16-.31.32-.65.47-1Zm-.85,2.45c-.1-.09-.2-.18-.32-.27a5.65,5.65,0,0,0,.56-.94c-.1-.1-.2-.2-.31-.29L47.47,45a3.14,3.14,0,0,0-.84.68l-.25-.25-.28-.24a6.35,6.35,0,0,0,.61-.25l.92-.47c.25-.14.66-.36,1-.55a.7.7,0,0,0,.28-.23l0,0,.27.24.32.25a4.14,4.14,0,0,0-.21.39c-.15.28-.33.65-.46.93-.22.46-.35.73-.45,1a4.27,4.27,0,0,0-.21.62Z"/><path class="cls-2" d="M49,47.65l-.35-.25a14.44,14.44,0,0,0,1-1.17,4.8,4.8,0,0,0,.8-1.28h0l.31.25.37.26a11.4,11.4,0,0,0-.89,1.09,11.89,11.89,0,0,0-.91,1.35Z"/><path class="cls-2" d="M52.48,48.11,52,49c-.25.44-.65.63-1.62.2l.09-.27c.39.18.63.18.9-.21.09-.13.31-.5.47-.78a5.55,5.55,0,0,0,.75-1.52v0l.37.23c.11.07.23.12.36.19A10.72,10.72,0,0,0,52.48,48.11Z"/><path class="cls-2" d="M53.22,50.23a3.09,3.09,0,0,0-.34-.18l-.39-.18a13.56,13.56,0,0,0,.73-1.33,4.62,4.62,0,0,0,.55-1.41h0l.35.19.41.19a10.9,10.9,0,0,0-.67,1.23,13.19,13.19,0,0,0-.65,1.5Z"/><path class="cls-2" d="M55.75,48.69h0c-.25.3-.46.56-.67.85l.29.12.32.11c0-.35.06-.73.08-1.08Zm.11,2.6a2.35,2.35,0,0,0-.4-.14,5.83,5.83,0,0,0,.18-1.07,3.2,3.2,0,0,0-.39-.16l-.37-.13a3.19,3.19,0,0,0-.53.94L54,50.59l-.35-.12c.15-.12.38-.36.48-.46s.47-.53.67-.77.49-.58.72-.87a.67.67,0,0,0,.17-.32v0l.35.13.39.11a3.62,3.62,0,0,0-.06.44c0,.32-.07.73-.09,1,0,.52,0,.82,0,1.08a3.26,3.26,0,0,0,0,.66Z"/><path class="cls-2" d="M57.71,50.31c-.16.69-.09,1.21.43,1.33s.86-.43,1-1,.19-1.24-.41-1.38-.87.42-1,1.07Zm2.13.46a1.33,1.33,0,0,1-1.77,1.17c-.73-.18-1.35-.55-1-1.8.17-.72.55-1.48,1.77-1.2C59.83,49.19,60.06,49.81,59.84,50.77Z"/><path class="cls-2" d="M63.67,50h0a2.31,2.31,0,0,0-.81-.16c0,.1-.05.7-.09,1.35a10.83,10.83,0,0,0,0,1.38l-.4,0a2.87,2.87,0,0,0-.42,0A12.86,12.86,0,0,0,62.1,51c0-.32,0-.9,0-1.2a2.66,2.66,0,0,0-.88.07h0a1.56,1.56,0,0,0,.08-.42c.44,0,.79.07,1.19.1s.85,0,1.28,0A2,2,0,0,0,63.67,50Z"/><path class="cls-2" d="M64.52,51.09c0,.71.27,1.18.81,1.15S66,51.57,66,51s-.18-1.23-.79-1.19-.71.65-.67,1.32Zm2.18-.18c0,.69-.1,1.55-1.35,1.63-.76.05-1.46-.13-1.54-1.41-.05-.74.1-1.58,1.34-1.66C66.22,49.4,66.63,49.92,66.7,50.91Z"/><path class="cls-2" d="M69.55,50.42c0,.2.2,1,.31,1.4a4.26,4.26,0,0,0-.54.15c-.3-.32-.82-.91-1-1.17l-.69-.8h0l.17.85a12.39,12.39,0,0,0,.4,1.33l-.31,0-.31.08a12.46,12.46,0,0,0-.24-1.82,4.29,4.29,0,0,0-.34-1.13v0l.43-.08a3.52,3.52,0,0,0,.41-.1,9.1,9.1,0,0,0,.65.84c.38.42.6.68.82.91h0l-.12-.57A7.48,7.48,0,0,0,68.73,49l.31,0a1.67,1.67,0,0,0,.3-.08A13.58,13.58,0,0,0,69.55,50.42Z"/><path class="cls-2" d="M72.83,50.14a5.45,5.45,0,0,0,.22.58,5.36,5.36,0,0,1-1,.46c-.91.31-1.51.07-1.88-1a1.39,1.39,0,0,1,1-2c.35-.11.75-.23,1-.28a2.4,2.4,0,0,0,.07.6h0a1.15,1.15,0,0,0-.94,0c-.58.2-.63.75-.39,1.44.33,1,.72,1.06,1.26.87.25-.08.23-.22.18-.35l-.1-.31a1,1,0,0,0-.27-.45v0l.4-.12.37-.14A5.69,5.69,0,0,0,72.83,50.14Z"/><path class="cls-2" d="M76.12,46.9c.16.31.35.66.52,1,.28.49.28,1-.53,1.45s-1.24.28-1.55-.26l-.43-.77a3.38,3.38,0,0,0-.68-1h0l.37-.19.37-.23a9.07,9.07,0,0,0,.62,1.25,4.53,4.53,0,0,0,.55.85A.53.53,0,0,0,76,49c.56-.31.41-.67.07-1.26a5,5,0,0,0-.95-1.4l.31-.17a1.83,1.83,0,0,0,.29-.18A3.83,3.83,0,0,0,76.12,46.9Z"/><path class="cls-2" d="M78.85,45.64c.12.16.63.84.89,1.12a3.19,3.19,0,0,0-.43.37c-.4-.15-1.13-.45-1.45-.59l-1-.42h0l.53.69a11.36,11.36,0,0,0,.94,1l-.26.18-.25.21a11,11,0,0,0-1-1.53,4.74,4.74,0,0,0-.79-.88l0,0,.36-.25.32-.26c.21.11.69.35,1,.46.52.21.84.35,1.14.46h0l-.35-.46a5.9,5.9,0,0,0-1-1l.26-.19a2,2,0,0,0,.24-.2A11,11,0,0,0,78.85,45.64Z"/><path class="cls-2" d="M80.7,45.88a4.08,4.08,0,0,0-.31.3,15,15,0,0,0-1-1.15,4.59,4.59,0,0,0-1.13-1h0a3.85,3.85,0,0,0,.3-.27c.1-.09.21-.2.32-.32a10.72,10.72,0,0,0,.92,1.07A10,10,0,0,0,81,45.62Z"/><path class="cls-2" d="M81.12,41.82l.56,1,.75,1.29a2.51,2.51,0,0,0-.32.41l-1.47-.65-1-.43a1.89,1.89,0,0,0-.49-.13h0c.1-.09.2-.21.3-.32l.3-.35a2.78,2.78,0,0,0,.38.25c.19.11.54.27.92.44l.71.3h0c-.11-.21-.36-.62-.49-.81a3.6,3.6,0,0,0-.81-1l.23-.24a3,3,0,0,0,.22-.26A3.47,3.47,0,0,0,81.12,41.82Z"/><path class="cls-2" d="M84.59,41.25c-.27.36-.43.59-.6.84s-.24.33-.52.76a12.84,12.84,0,0,0-1.18-.92A4.73,4.73,0,0,0,81,41.14h0l.58-.81c.12-.16.31-.45.56-.82a1.7,1.7,0,0,0,.3.3v0a3.54,3.54,0,0,0-.72.83c.21.19.62.47.81.61a5.23,5.23,0,0,0,.44-.71,2.89,2.89,0,0,0,.31.28,3.68,3.68,0,0,0-.51.59l.44.31c.41.29.51.28.67.06a2.35,2.35,0,0,0,.41-.87l0,0A2.12,2.12,0,0,0,84.59,41.25Z"/><path class="cls-2" d="M83.09,38.37c-.07.12-.11.21-.15.29a4.45,4.45,0,0,0,.48.28l.43.24c.06-.09.09-.15.13-.22.15-.27.13-.52-.28-.74a.39.39,0,0,0-.61.15Zm2.86.45-.19.39A4.82,4.82,0,0,0,85,39a1.26,1.26,0,0,0-.62,0c-.11.05-.17.17-.26.34a11.65,11.65,0,0,0,1.27.59c-.08.11-.15.24-.22.36s-.12.24-.17.36a14.67,14.67,0,0,0-1.32-.79,5.91,5.91,0,0,0-1.36-.62h0l.33-.58.37-.69c.29-.54.65-.55,1-.37a.76.76,0,0,1,.35,1h0a.47.47,0,0,1,.49-.25l.43.06a2.6,2.6,0,0,0,.89.06l0,0C86.07,38.61,86,38.73,86,38.82Z"/><path class="cls-2" d="M86.65,37.33c-.07.16-.24.51-.36.75a5.4,5.4,0,0,0-.49-.27v0a1.19,1.19,0,0,0,.59-.62.38.38,0,0,0-.18-.55.44.44,0,0,0-.45.06c-.25.14-.46.36-.75.51a.85.85,0,0,1-.8,0c-.25-.1-.67-.44-.3-1.37.07-.17.2-.44.31-.67.12.09.29.21.45.31v0a.7.7,0,0,0-.49.48c-.13.31,0,.53.17.6s.35.11.85-.29.84-.44,1.1-.34S87,36.46,86.65,37.33Z"/><path class="cls-2" d="M87.37,35.24c-.05.14-.07.23-.12.42a13.73,13.73,0,0,0-1.42-.52,5,5,0,0,0-1.48-.33h0c0-.13.09-.25.13-.38s.08-.28.12-.43a12.33,12.33,0,0,0,1.33.47,10.76,10.76,0,0,0,1.57.41A3.58,3.58,0,0,0,87.37,35.24Z"/><path class="cls-2" d="M85.59,31.55v0a2.35,2.35,0,0,0-.28.77l1.31.31a11.56,11.56,0,0,0,1.38.21,4,4,0,0,0-.11.39c0,.14,0,.24-.07.41a13.27,13.27,0,0,0-1.48-.4L85.15,33a2.42,2.42,0,0,0-.07.88v0a2.21,2.21,0,0,0-.41-.14c.12-.43.2-.77.29-1.16s.18-.84.24-1.26A2.16,2.16,0,0,0,85.59,31.55Z"/><path class="cls-2" d="M85.82,28.54a13.88,13.88,0,0,0,1.33.9c.3,0,.46,0,.67,0a3.7,3.7,0,0,0,.6,0,3.51,3.51,0,0,0,0,.41,4,4,0,0,0,0,.42,2.62,2.62,0,0,0-.57-.11l-.68-.07c-.72.3-1.33.62-1.48.69a1.8,1.8,0,0,0-.35.24h0c0-.16,0-.31,0-.47l0-.51a.7.7,0,0,0,.32-.05c.24-.09.57-.19,1.09-.42v0c-.28-.17-.69-.38-.94-.5a1.12,1.12,0,0,0-.39-.1c0-.11,0-.19,0-.36a2,2,0,0,0,0-.34A2.81,2.81,0,0,0,85.82,28.54Z"/><path class="cls-1" d="M.15,98.28A2.12,2.12,0,0,0,1.2,100l.31.25c.54.42.65.71.65,1a.77.77,0,0,1-.85.71.89.89,0,0,1-.92-.64l0-.33c0-.17-.1-.2-.15-.2S0,101,0,101.06,0,102,0,102c0,.17,0,.24.18.3a2.4,2.4,0,0,0,1,.19,2,2,0,0,0,1.14-.3A1.45,1.45,0,0,0,3,100.9c0-.69-.32-1.18-1.17-1.82l-.19-.14c-.59-.45-.7-.67-.7-.94s.29-.64.74-.64a.81.81,0,0,1,.7.31.73.73,0,0,1,.16.41c0,.18.09.2.15.2s.15-.18.15-.28l0-.71v-.12c0-.12-.11-.14-.15-.15a3.27,3.27,0,0,0-.93-.12c-1,0-1.67.57-1.67,1.38"/><path class="cls-1" d="M7.94,97.79H7s-.21,0-.21.13,0,.13.18.13l.21,0c.17,0,.2.08.21.25v1.38H5.22V98.31c0-.19,0-.23.17-.25l.16,0c.16,0,.18-.09.18-.13s-.07-.13-.2-.13H3.84c-.13,0-.2,0-.2.13s0,.13.18.13l.22,0c.17,0,.2.08.21.25v2.27l0,1.25c0,.19-.06.23-.13.24l-.19,0c-.12,0-.17.07-.17.14s0,.13.19.13l.78,0h1c.18,0,.19-.1.19-.13a.15.15,0,0,0-.17-.14l-.3,0c-.12,0-.15-.08-.17-.24l0-1.23v-.41H7.43v.41l0,1.23c0,.19-.06.23-.12.24l-.21,0a.15.15,0,0,0-.17.14s0,.13.21.13l.8,0h1c.18,0,.19-.1.19-.13a.15.15,0,0,0-.17-.14l-.29,0c-.14,0-.16-.08-.19-.24l0-1.25V98.31c0-.2.06-.23.16-.25l.17,0c.17,0,.18-.11.18-.13s-.15-.13-.2-.13Z"/><path class="cls-1" d="M11.66,97.92h0l-1.59,3.69c-.12.31-.21.44-.44.47H9.46a.14.14,0,0,0-.15.14c0,.09.07.13.19.13h.7l.68,0c.15,0,.17-.08.17-.13a.14.14,0,0,0-.16-.14H10.8c-.17,0-.17,0-.17-.09l.08-.33.33-.79h1.41l.47,1.17c-.12,0-.14.11-.14.17s.11.11.22.12h1.2c.2,0,.34,0,.34-.13a.14.14,0,0,0-.16-.14l-.22,0c-.06,0-.22,0-.46-.59l-1.55-3.61c-.06-.14-.11-.23-.24-.23s-.19.13-.25.28m.09,1.16c.07.19.46,1.22.51,1.33h-1C11.26,100.31,11.68,99.24,11.75,99.08Z"/><path class="cls-1" d="M15.43,98h0l0,3.48c0,.5,0,.61-.13.64l-.26,0a.15.15,0,0,0-.17.14c0,.13.15.13.21.13h1.44c.14,0,.21,0,.21-.13s-.05-.14-.17-.14l-.3,0c-.06,0-.14-.11-.15-.57,0,0-.06-1.93-.07-2.22l.2.2,1.11,1.14,1.78,1.69a.42.42,0,0,0,.3.14c.08,0,.17-.07.17-.26l.07-3.7c0-.33.05-.38.17-.41L20,98c.12,0,.18-.07.18-.13s-.15-.13-.21-.13H18.55c-.08,0-.23,0-.23.13s0,.13.17.13l.29,0c.1,0,.16.08.17.45,0,0,.05,2.18.05,2.46l-1.21-1.22L16,98l-.1-.09c-.13-.13-.21-.22-.31-.22s-.18.11-.18.28"/><path class="cls-1" d="M21.7,98.08a2.25,2.25,0,0,0-1.1,2c0,1.75,1.49,2.37,2.89,2.37a3.89,3.89,0,0,0,1.51-.27c.12-.06.12-.11.12-.28v-1.34c0-.19.05-.23.17-.25l.15,0a.14.14,0,0,0,.15-.14c0-.13-.13-.13-.2-.13l-.71,0-.93,0c-.06,0-.2,0-.2.13a.15.15,0,0,0,.17.14l.21,0c.17,0,.21.09.21.25v1.22c0,.09,0,.12-.08.14a.84.84,0,0,1-.39.06,2,2,0,0,1-2-2.11,1.5,1.5,0,0,1,1.66-1.7,1.83,1.83,0,0,1,1.26.42.72.72,0,0,1,.19.44c0,.12.08.15.13.15s.16-.06.16-.21l0-.89V98c0-.13-.11-.14-.15-.15l-.47-.06a6.85,6.85,0,0,0-1.1-.1,3.11,3.11,0,0,0-1.67.39"/><path class="cls-1" d="M30.35,97.79h-.91c-.05,0-.2,0-.2.13s0,.13.18.13l.21,0c.16,0,.2.08.21.25v1.38H27.63V99.6l0-1.29c0-.19.05-.23.16-.25L28,98c.17,0,.19-.09.19-.13s-.07-.13-.2-.13h-1.7c-.13,0-.21,0-.21.13s.05.13.18.13l.22,0c.17,0,.2.08.21.25v2.27l0,1.25c0,.19-.06.23-.12.24l-.2,0c-.12,0-.17.07-.17.14s0,.13.19.13l.78,0h1c.18,0,.2-.1.2-.13a.15.15,0,0,0-.17-.14l-.3,0c-.13,0-.15-.08-.17-.24l0-1.23v-.41h2.22v.41l0,1.23c0,.19-.06.23-.13.24l-.2,0a.15.15,0,0,0-.17.14s0,.13.2.13l.8,0h1c.18,0,.2-.1.2-.13a.15.15,0,0,0-.17-.14l-.3,0c-.13,0-.16-.08-.18-.24l0-1.25v-1l0-1.24c0-.2.06-.23.16-.25l.16,0c.18,0,.19-.11.19-.13s-.16-.13-.21-.13Z"/><path class="cls-1" d="M34.14,97.92h0l-1.59,3.69c-.13.31-.22.44-.44.47h-.17a.14.14,0,0,0-.15.14c0,.09.06.13.19.13h.7l.68,0c.14,0,.17-.08.17-.13s0-.14-.17-.14h-.09c-.16,0-.16,0-.16-.09l.08-.33.32-.79h1.42l.47,1.17c-.12,0-.14.11-.14.17s.11.11.22.12h1.2c.19,0,.33,0,.33-.13a.13.13,0,0,0-.15-.14l-.22,0c-.06,0-.22,0-.46-.59l-1.55-3.61c-.06-.14-.11-.23-.25-.23s-.18.13-.24.28m.08,1.16.51,1.33h-1Z"/><path class="cls-1" d="M38.29,97.79h-.81c-.06,0-.22,0-.22.12s0,.14.17.14l.2,0c.1,0,.14.07.16.24v2.27l0,1.27c0,.18-.06.21-.13.22l-.19,0c-.12,0-.17.07-.17.14s0,.13.19.13l.79,0h1c.14,0,.19-.07.19-.13a.15.15,0,0,0-.17-.14l-.3,0c-.13,0-.16-.07-.18-.21l0-1.28V98.31c0-.19,0-.23.17-.25l.16,0c.15,0,.17-.09.17-.14s0-.12-.19-.12Z"/><path class="cls-1" d="M43.32,97h-1c-.06,0-.22,0-.22.13s0,.14.19.14l.25,0c.18,0,.23.1.24.32v3.49c0,1.32,0,2-.49,2.48l-.32.24c-.12.07-.19.11-.19.2a.12.12,0,0,0,.13.12l.18,0,.34-.18a2.73,2.73,0,0,0,1.21-1.34,3.93,3.93,0,0,0,.17-1.25l0-1V97.61c0-.25.07-.3.2-.32l.18,0c.13,0,.2,0,.2-.14s-.16-.13-.22-.13Z"/><path class="cls-1" d="M45.91,97.79h-.82c-.05,0-.21,0-.21.12s0,.14.17.14l.2,0c.1,0,.14.07.15.24v2.27l0,1.27c0,.18-.05.21-.12.22l-.2,0c-.12,0-.17.07-.17.14s0,.13.19.13l.8,0h1c.14,0,.19-.07.19-.13a.15.15,0,0,0-.17-.14l-.3,0c-.14,0-.16-.07-.18-.21l0-1.28V98.31c0-.19,0-.23.17-.25l.17,0c.15,0,.17-.09.17-.14s0-.12-.2-.12Z"/><path class="cls-1" d="M49.68,97.92h0l-1.59,3.69c-.12.31-.22.44-.44.47h-.17a.14.14,0,0,0-.15.14c0,.09.07.13.19.13h.7l.68,0c.15,0,.17-.08.17-.13a.14.14,0,0,0-.16-.14h-.09c-.17,0-.17,0-.17-.09l.08-.33.33-.79h1.41l.47,1.17c-.11,0-.14.11-.14.17s.11.11.22.12h1.2c.19,0,.34,0,.34-.13a.14.14,0,0,0-.16-.14l-.22,0c-.06,0-.22,0-.46-.58l-1.55-3.62c-.06-.14-.11-.23-.24-.23s-.19.13-.25.28m.08,1.16c.08.19.47,1.22.51,1.33h-1Z"/><path class="cls-1" d="M52.41,100.07A2.36,2.36,0,0,0,55,102.44,2.44,2.44,0,0,0,57.59,100,2.25,2.25,0,0,0,55,97.69a2.39,2.39,0,0,0-2.62,2.38m1-.18c0-1.51.88-1.74,1.4-1.74a1.8,1.8,0,0,1,1.69,2c0,1.62-.93,1.79-1.33,1.79A1.86,1.86,0,0,1,53.45,99.89Z"/><path class="cls-1" d="M59.8,97.09s-.14.68-.14.81,0,.18.13.18.13,0,.15-.14l.11-.21c.08-.12.21-.16.61-.17l1,0v2.76c0,.63,0,1.17,0,1.46s-.06.3-.14.32l-.24,0c-.16,0-.18.08-.18.13s0,.14.21.14l.87,0h1.08c.19,0,.21-.11.21-.14s0-.13-.18-.13l-.35,0c-.13,0-.18-.09-.2-.31a14.32,14.32,0,0,1,0-1.47V97.53l.8,0c.45,0,.72.13.74.32V98c0,.07,0,.2.14.2s.13-.13.14-.17,0-.81,0-.81,0-.22-.13-.22l-.12,0h-.08l-.46,0H61l-.69,0-.2,0-.1,0c-.11,0-.14.12-.16.19"/><path class="cls-1" d="M64.71,100.07a2.35,2.35,0,0,0,2.55,2.37A2.44,2.44,0,0,0,69.88,100a2.25,2.25,0,0,0-2.55-2.27,2.39,2.39,0,0,0-2.62,2.38m1-.18c0-1.51.87-1.74,1.4-1.74,1,0,1.68.83,1.68,2,0,1.62-.92,1.79-1.32,1.79A1.85,1.85,0,0,1,65.75,99.89Z"/><path class="cls-1" d="M70.77,98h0l0,3.48c0,.5,0,.61-.13.64l-.26,0a.15.15,0,0,0-.17.14c0,.13.15.13.21.13h1.44c.14,0,.22,0,.22-.13s-.06-.14-.18-.14l-.29,0c-.07,0-.15-.11-.16-.57,0,0-.06-1.93-.07-2.22l.2.2,1.11,1.14,1.78,1.69a.44.44,0,0,0,.3.14c.08,0,.17-.07.17-.26l.07-3.7c0-.33.06-.38.17-.41l.16,0c.13,0,.18-.07.18-.13s-.15-.13-.21-.13H73.89c-.07,0-.22,0-.22.13s0,.13.17.13l.29,0c.09,0,.15.08.16.45,0,0,0,2.18.06,2.46l-1.22-1.22L71.37,98l-.11-.1c-.12-.13-.21-.22-.31-.22s-.18.11-.18.28"/><path class="cls-1" d="M77,98.08a2.25,2.25,0,0,0-1.1,2c0,1.75,1.5,2.37,2.88,2.37a3.9,3.9,0,0,0,1.52-.27c.12-.06.12-.11.12-.27v-1.35c0-.19,0-.23.17-.25l.15,0a.14.14,0,0,0,.15-.14c0-.13-.13-.13-.19-.13L80,100l-.94,0c-.06,0-.2,0-.2.13a.15.15,0,0,0,.17.14l.21,0c.17,0,.2.09.21.25v1.22c0,.09,0,.12-.08.14A.84.84,0,0,1,79,102a2,2,0,0,1-2-2.11,1.5,1.5,0,0,1,1.66-1.7,1.83,1.83,0,0,1,1.26.42.72.72,0,0,1,.19.44c0,.12.08.15.13.15s.16-.06.16-.21l0-.89V98c0-.13-.11-.14-.14-.15l-.48-.06a6.7,6.7,0,0,0-1.09-.1,3.12,3.12,0,0,0-1.68.39"/><path class="cls-1" d="M88.09,97H87.9l-.8,0c-.06,0-.21,0-.21.13s0,.14.18.14l.24,0c.18,0,.23.1.24.32v2.33a2.34,2.34,0,0,1-.38,1.66,1.32,1.32,0,0,1-.9.35,1.25,1.25,0,0,1-.82-.27c-.26-.22-.51-.57-.51-1.64v-1l0-1.46c0-.25.07-.3.19-.32l.19,0c.16,0,.18-.09.18-.14s-.15-.13-.22-.13l-.85,0h-1c-.07,0-.22,0-.22.13s0,.14.19.14l.25,0c.18,0,.23.1.24.32v2.47a2.39,2.39,0,0,0,.64,1.88,2.29,2.29,0,0,0,1.59.5,2.12,2.12,0,0,0,1.48-.52,2.64,2.64,0,0,0,.68-2.13v-2.2c0-.25.08-.3.2-.32l.18,0c.14,0,.2,0,.2-.14s-.15-.13-.22-.13Z"/><path class="cls-1" d="M89.59,98h0l0,3.48c0,.5,0,.61-.13.64l-.26,0a.15.15,0,0,0-.17.14c0,.13.14.13.21.13h1.44c.14,0,.22,0,.22-.13s-.06-.14-.18-.14l-.3,0c-.06,0-.14-.11-.16-.57,0,0,0-1.93-.06-2.22l.2.2,1.11,1.14,1.78,1.69a.44.44,0,0,0,.3.14c.08,0,.17-.07.17-.26l.07-3.7c0-.33,0-.38.16-.41l.17,0c.12,0,.18-.07.18-.13s-.15-.13-.21-.13H92.71c-.07,0-.23,0-.23.13s0,.13.18.13l.29,0c.09,0,.15.08.15.45,0,0,.06,2.18.06,2.46L92,99.76,90.18,98l-.1-.1c-.13-.13-.21-.22-.31-.22s-.18.11-.18.28"/><path class="cls-1" d="M96,97.79h-.82c-.06,0-.22,0-.22.12s0,.14.17.14l.2,0c.1,0,.14.07.16.24v2.27l0,1.27c0,.18-.06.21-.13.22l-.19,0c-.12,0-.17.07-.17.14s0,.13.19.13l.79,0h1c.14,0,.19-.07.19-.13a.15.15,0,0,0-.17-.14l-.3,0c-.13,0-.16-.07-.18-.21l0-1.28V98.31c0-.19,0-.23.17-.25l.16,0C97,98,97,98,97,97.9s0-.12-.19-.12Z"/><path class="cls-1" d="M101.71,97.79h-.64c-.09,0-.25,0-.25.13s.07.13.18.13l.22,0s0,0,0,0l0,.19c-.14.37-.83,2-1.13,2.74l-1-2.49a2.16,2.16,0,0,1-.13-.41.07.07,0,0,1,0-.06l.19,0c.12,0,.18-.07.18-.13s0-.13-.22-.13H97.49c-.07,0-.23,0-.23.13a.13.13,0,0,0,.15.13l.22,0c.19,0,.26.08.39.39L99.55,102c.12.26.18.4.32.4s.2-.12.36-.47l.35-.78.46-1,.29-.64.44-1c.15-.36.23-.44.29-.48a.39.39,0,0,1,.24-.06c.14,0,.19-.07.19-.13s0-.13-.2-.13Z"/><path class="cls-1" d="M105.78,97.75h-.08l-.2,0H103s-.21,0-.21.13,0,.13.17.13l.22,0c.17,0,.21.08.22.25v2.27l0,1.25c0,.19-.06.23-.13.24l-.2,0a.15.15,0,0,0-.17.14s0,.13.19.13h1.47l1.12,0c.24,0,.34,0,.4-.21a3.61,3.61,0,0,0,.09-.67c0-.14-.05-.21-.13-.21s-.13.1-.15.15c0,.23-.09.33-.22.38a1.6,1.6,0,0,1-.54.07c-.63,0-.73-.09-.75-.42v-1.34s.91,0,.91,0c.21,0,.25.1.27.18s0,.13,0,.13v.07a.12.12,0,0,0,.13.11s.14,0,.14-.2l0-.39,0-.23,0-.2a.13.13,0,0,0-.12-.14l-.11.06,0,0a.41.41,0,0,1-.25.07H104.3l0-1.44s.91.05.91.05c.28,0,.31.09.35.17l0,.18c0,.13.07.15.12.15s.13-.11.14-.14,0-.29,0-.29v-.12l0-.31v-.07c0-.1-.06-.13-.11-.13Z"/><path class="cls-1" d="M107.77,97.79h-.83s-.21,0-.21.13,0,.13.17.13l.22,0c.17,0,.2.08.22.25v2.27l0,1.25c0,.19,0,.23-.12.24l-.2,0a.15.15,0,0,0-.17.14s0,.13.2.13h1.69c.18,0,.2-.1.2-.13a.15.15,0,0,0-.16-.14l-.28,0c-.13,0-.15-.07-.18-.24l0-1.25v-.08l.52,0,.06,0,.18.26.39.53a2.58,2.58,0,0,0,.85.89,1.44,1.44,0,0,0,.7.12h.58c.15,0,.19-.07.19-.13a.15.15,0,0,0-.15-.14h-.13a1.09,1.09,0,0,1-.62-.37c-.34-.34-.73-.83-1.24-1.45l0-.05a1.72,1.72,0,0,0,.82-1.3,1.09,1.09,0,0,0-.46-.87,2.24,2.24,0,0,0-1.2-.26Zm.5,2.25h0V98.26s.34,0,.34,0a.87.87,0,0,1,.55.19,1,1,0,0,1,.3.78.91.91,0,0,1-.36.81c-.08.06-.15.08-.38.08Z"/><path class="cls-1" d="M112.29,99c0,.58.29,1,1,1.39l.35.21c.52.31.57.54.57.77a.63.63,0,0,1-.2.47.82.82,0,0,1-.57.2c-.17,0-.75,0-.9-.53l0-.28c0-.16-.1-.17-.13-.17s-.15.06-.15.22,0,.78,0,.78c0,.16,0,.22.16.27a2.53,2.53,0,0,0,1,.16,1.85,1.85,0,0,0,1.06-.26A1.32,1.32,0,0,0,115,101,1.67,1.67,0,0,0,114,99.54l-.25-.14c-.56-.31-.6-.5-.6-.71s.38-.55.75-.55a.72.72,0,0,1,.62.25.54.54,0,0,1,.14.34c0,.16.1.17.14.17s.15,0,.15-.26v-.7c0-.07,0-.12-.14-.15a3.85,3.85,0,0,0-.88-.1c-.93,0-1.61.53-1.61,1.26"/><path class="cls-1" d="M116.7,97.79h-.81c-.06,0-.22,0-.22.12s0,.14.17.14l.2,0c.1,0,.14.07.15.24v2.27l0,1.27c0,.18,0,.21-.12.22l-.2,0c-.12,0-.17.07-.17.14s0,.13.19.13l.8,0h1c.14,0,.19-.07.19-.13a.15.15,0,0,0-.17-.14l-.3,0c-.13,0-.16-.07-.18-.21l0-1.28v-1l0-1.24c0-.19,0-.23.16-.25l.17,0c.15,0,.17-.09.17-.14s0-.12-.2-.12Z"/><path class="cls-1" d="M118.23,97.86a6.43,6.43,0,0,0-.13.73c0,.15.09.17.13.17a.15.15,0,0,0,.14-.13l.09-.18c.06-.09.16-.14.53-.15l.83,0v2.3l0,1.25c0,.19-.06.23-.12.24l-.2,0c-.12,0-.17.07-.17.14s0,.13.19.13l.79,0h1c.13,0,.19-.07.19-.13a.15.15,0,0,0-.17-.14l-.3,0c-.13,0-.16-.08-.18-.24l0-1.25v-2.3l.69,0c.39,0,.63.1.65.27v.06c0,.06,0,.18.14.18s.13-.12.13-.16,0-.72,0-.72,0-.2-.13-.2h-.06l-.11,0-.4,0h-2.47l-.6,0-.17,0-.1,0c-.11,0-.13.13-.14.17"/><path class="cls-1" d="M126.79,97.79h-.6c-.15,0-.18.07-.18.13s.1.12.15.13.09,0,.09.07l-.08.27-.63,1.12-.21.35c-.09-.17-.94-1.62-.94-1.62l-.07-.16.08,0c.06,0,.14,0,.14-.13s0-.13-.16-.13h-1.45c-.16,0-.19.07-.19.13a.15.15,0,0,0,.16.13l.23.07a1.15,1.15,0,0,1,.36.39c.22.31,1,1.6,1.08,1.68a1.06,1.06,0,0,1,.13.58v.49l0,.58c0,.19-.07.23-.13.24l-.2,0a.15.15,0,0,0-.17.14c0,.09.07.13.21.13l.78,0h1c.18,0,.2-.09.2-.13a.15.15,0,0,0-.17-.14l-.3,0c-.12,0-.17-.08-.18-.24l0-.58v-.61a1.06,1.06,0,0,1,.07-.42c.11-.23,1-1.62,1.17-1.86a.93.93,0,0,1,.29-.26l.24-.06c.11,0,.19-.06.19-.14s0-.12-.19-.12Z"/></g></g></svg>