<svg xmlns="http://www.w3.org/2000/svg" viewBox="0 0 212.98 56.4"><defs><style>.cls-1,.cls-2{fill:#c8161d;}.cls-1{fill-rule:evenodd;}</style></defs><title>资源 1</title><g id="图层_2" data-name="图层 2"><g id="图层_1-2" data-name="图层 1"><path class="cls-1" d="M28.2,0A28.2,28.2,0,1,0,56.4,28.2,28.23,28.23,0,0,0,28.2,0ZM55.71,28.2A27.51,27.51,0,1,1,28.2.69,27.54,27.54,0,0,1,55.71,28.2Z"/><path class="cls-1" d="M28.2,1.05A27.15,27.15,0,1,0,55.35,28.2,27.18,27.18,0,0,0,28.2,1.05ZM55.09,28.2A26.89,26.89,0,1,1,28.2,1.31,26.92,26.92,0,0,1,55.09,28.2Z"/><path class="cls-1" d="M19.63,4c0,1,.9.48,1.5.44.21,0,2.1-.76,1.84,0-.17.48-.79.32-1.17.37a4.9,4.9,0,0,0-1.4.41c-.41.19-.1.45.22.37a3,3,0,0,1,.9-.09,4.19,4.19,0,0,1,2.15.7c.31.22,1.21,1.11.65,1.37-.35.16-.81-.31-1.06-.52a3.13,3.13,0,0,0-1.16-.81,2.66,2.66,0,0,0-2.61.53,3.53,3.53,0,0,0-1.32,2.12c-.07.36-.22,1.66-.82,1.23s.28-2,.45-2.3a3.32,3.32,0,0,1,.43-.51l.57-.66a6.34,6.34,0,0,1,.59-.56c.21-.17.3-.46-.09-.44s-.52.23-1,.42-1.58,1.24-1.8.61S18,5.59,18.43,5.4l.37-.13A1.05,1.05,0,0,0,19,5.13a.48.48,0,0,0,.13-.4A2.14,2.14,0,0,1,18.88,4,.63.63,0,0,1,19.63,4Z"/><path class="cls-1" d="M18.12,35.09l-2-1.06-.66,1.15a1.86,1.86,0,0,1,.77,1.39l3.56,1.9,1.08-1.9-1.78-1,5.51-10.25a.08.08,0,0,0,0-.11l-.84-.45c-.06,0-.1,0-.12,0L18.12,35.09Z"/><path class="cls-1" d="M21.41,35.89H35.87a.54.54,0,0,1,.53.54v3.32a.54.54,0,0,1-.53.54H21.41a.54.54,0,0,1-.53-.54V36.43a.54.54,0,0,1,.53-.54Zm.18.47h0a.22.22,0,0,0-.22.22v3a.29.29,0,0,0,.29.29h14a.29.29,0,0,0,.29-.29V36.65a.29.29,0,0,0-.29-.29Z"/><rect class="cls-2" x="20.44" y="19.44" width="4.91" height="1.07"/><rect class="cls-2" x="20.44" y="21.07" width="4.91" height="1.07"/><rect class="cls-2" x="20.44" y="22.7" width="4.91" height="1.07"/><path class="cls-1" d="M39.32,29.85h.3a.15.15,0,0,1,.16.13v.35a.52.52,0,0,0,.26-.44V28.42a.52.52,0,0,0-.26-.44v.29a.15.15,0,0,1-.16.12h-.3c-.08,0-.16-.06-.16-.12V28a.51.51,0,0,0-.25.44v1.47a.51.51,0,0,0,.25.44V30a.15.15,0,0,1,.16-.13Zm-19.9-4.22c-.17,0-.33,0-.42.15a5.19,5.19,0,0,0-.21,2H17.53l-.32-.31V25.4c.31-.49,1.08-.86,2.5-.85h3.06c.1,0,.14.08.11.13L21.2,27.82H19.42V25.63Zm4.38,2.75h0l1.76-3.29a.12.12,0,0,0,0-.17l-.71-.36h17v1.22c0-.05,0,.53-1.54.78l-.44.08v.72a.84.84,0,0,1,.75.83v1.95a.82.82,0,0,1-.75.82v1.1a.82.82,0,0,1,.75.82v1.91a.83.83,0,0,1-.82.83h-.47a.83.83,0,0,1-.83-.83V32.88a.83.83,0,0,1,.76-.82V31a.83.83,0,0,1-.76-.82V28.19a.84.84,0,0,1,.76-.83v-.62a5.1,5.1,0,0,0-3.26,1.58H34.84a4.33,4.33,0,0,0-.94.63A3.26,3.26,0,0,0,33,30.09h-.37a2.33,2.33,0,0,0-.34.28h0s0,0,0,0h0a.74.74,0,0,0-.18.57c.08.54.24.66.73,1.08a14.38,14.38,0,0,1,1.77,1.81c.32.43.36,1,.11,1.2a.24.24,0,0,1-.15,0H22.64c-.41,0-.41-.74,0-1.24a14.38,14.38,0,0,1,1.77-1.81c.49-.42.65-.54.74-1.08s-.62-.95-.62-.95h-.37a3.34,3.34,0,0,0-.65-.88h4.81a.28.28,0,0,0,.28-.27v-.28a.29.29,0,0,0-.28-.28Zm16,4.29v.27c0,.07-.07.12-.16.12h-.3c-.08,0-.16-.05-.16-.12v-.27a.53.53,0,0,0-.25.45v1.42a.5.5,0,0,0,.5.51h.13a.51.51,0,0,0,.5-.51V33.12a.53.53,0,0,0-.26-.45Zm-15.4.79a.29.29,0,0,0-.28.28V34a.29.29,0,0,0,.28.28H32.7A.28.28,0,0,0,33,34v-.28a.28.28,0,0,0-.28-.28Zm1.46-1.79a.28.28,0,0,0-.28.27v.28a.29.29,0,0,0,.28.28h5.4a.29.29,0,0,0,.28-.28v-.28a.28.28,0,0,0-.28-.27Zm.21-1.7a.28.28,0,0,0-.28.28v.28a.28.28,0,0,0,.28.27h5a.28.28,0,0,0,.28-.27v-.28A.29.29,0,0,0,31,30Zm4.33-1.59a.28.28,0,0,0-.28.28v.28a.28.28,0,0,0,.28.27h2.24a.27.27,0,0,0,.27-.27v-.28a.28.28,0,0,0-.27-.28Z"/><rect class="cls-2" x="25.75" y="19.44" width="0.85" height="1.07"/><path class="cls-1" d="M21.08,18.46a11.75,11.75,0,0,0,4.54-1.31l.45,1a13.16,13.16,0,0,1-4.73,1.32Z"/><polygon class="cls-1" points="26.77 16.61 26 16.98 26.44 17.94 27.21 17.56 26.77 16.61 26.77 16.61"/><rect class="cls-2" x="25.75" y="21.07" width="0.85" height="1.07"/><rect class="cls-2" x="25.75" y="22.7" width="0.85" height="1.07"/><path class="cls-1" d="M31.73,17.86,33.29,17l3.26,5.92L35,23.79l-3.27-5.93Zm1,.82.19.33.7-.39-.19-.33-.7.39Zm.4.72.19.32.69-.38L33.82,19Z"/><path class="cls-1" d="M29.91,16.24h1.86v7.54H29.91V16.24Zm-2.7-.7h2.08v8.24H27.21V15.54Zm.64,1.07V17h.8v-.37Zm0,.81v.37h.8v-.37Zm0,.82v.37h.8v-.37Zm0,.82v.37h.8v-.37Zm2.59-1.64v.37h.8v-.37Zm0,.82v.37h.8v-.37Zm0,.82v.37h.8v-.37Z"/><path class="cls-1" d="M28.2,44.24a16,16,0,1,1,16-16,16.06,16.06,0,0,1-16,16ZM47.73,27.68l-1.53-.2a.17.17,0,0,1-.14-.08c0-.24,0-.49,0-.73a.14.14,0,0,1,.12-.09l1.49-.4a.07.07,0,0,0,0-.08c0-.13,0-.28-.06-.44v0h0c0-.16,0-.31-.06-.44s0-.06-.06-.06H46a.17.17,0,0,1-.14-.06l-.15-.73a.16.16,0,0,1,.11-.1l1.44-.59s0,0,0-.08-.06-.27-.11-.43h0c-.05-.16-.09-.31-.12-.44a.07.07,0,0,0-.08-.05l-1.54.21a.16.16,0,0,1-.14,0c-.07-.24-.15-.47-.24-.7A.25.25,0,0,1,45.1,22l1.35-.76s0,0,0-.08-.1-.27-.16-.42h0c-.07-.16-.13-.28-.18-.42s0,0-.08,0l-1.49.4a.16.16,0,0,1-.16,0c-.1-.22-.21-.43-.32-.63a.18.18,0,0,1,.08-.15l1.22-.94s.05,0,0-.09-.13-.25-.21-.38,0,0,0,0h0L44.94,18a.06.06,0,0,0-.09,0l-1.43.59a.15.15,0,0,1-.16,0q-.19-.3-.39-.57a.16.16,0,0,1,.05-.17L44,16.73s0,0,0-.09l-.27-.35h0l-.27-.36s-.07,0-.09,0L42,16.67a.19.19,0,0,1-.18,0c-.15-.18-.3-.36-.46-.52a.17.17,0,0,1,0-.17l1-1.23s0,0,0-.09a3,3,0,0,0-.31-.31h0a3,3,0,0,0-.32-.31.06.06,0,0,0-.09,0L40.41,15a.17.17,0,0,1-.17,0l-.52-.45a.15.15,0,0,1,0-.17L40.51,13a.06.06,0,0,0,0-.08l-.36-.28h0l-.36-.27s-.07,0-.09,0l-1.09,1.09a.17.17,0,0,1-.16.06l-.59-.4a.17.17,0,0,1,0-.17l.6-1.42a.06.06,0,0,0,0-.09L38,11.24h0L37.59,11a.06.06,0,0,0-.09,0l-.93,1.22a.18.18,0,0,1-.15.08L35.78,12a.16.16,0,0,1,0-.16l.41-1.49s0-.06,0-.08l-.42-.18h0l-.42-.17a.06.06,0,0,0-.08,0l-.76,1.33a.17.17,0,0,1-.13.1c-.23-.09-.46-.17-.7-.24a.15.15,0,0,1,0-.15l.21-1.53s0-.06,0-.07l-.44-.12h0l-.43-.1c-.06,0-.07,0-.08,0l-.59,1.43a.16.16,0,0,1-.1.11l-.73-.15a.17.17,0,0,1-.06-.14V8.91s0-.05-.06-.05l-.44-.07h0l-.44,0c-.06,0-.07,0-.07,0l-.41,1.49a.18.18,0,0,1-.09.13L29,10.35a.17.17,0,0,1-.07-.14l-.2-1.53a.07.07,0,0,0-.07,0h-.92c-.05,0-.06,0-.06,0l-.2,1.53a.18.18,0,0,1-.08.14l-.74.05a.2.2,0,0,1-.08-.13l-.39-1.49s0,0-.08,0l-.44,0h0l-.45.07a.06.06,0,0,0-.06.05v1.55a.14.14,0,0,1-.05.14l-.73.15a.15.15,0,0,1-.11-.11l-.58-1.43a.06.06,0,0,0-.08,0l-.44.1h0l-.43.12c-.06,0-.05,0-.05.07l.2,1.53a.15.15,0,0,1,0,.15c-.23.07-.47.15-.7.24a.14.14,0,0,1-.11-.1L21.21,10a.06.06,0,0,0-.08,0l-.42.17h0l-.41.18a.06.06,0,0,0,0,.08l.4,1.49a.18.18,0,0,1,0,.16l-.65.32a.15.15,0,0,1-.14-.08L18.9,11a.06.06,0,0,0-.09,0l-.39.22h0l-.39.23s0,.06,0,.09L18.58,13a.15.15,0,0,1,0,.17l-.58.4a.18.18,0,0,1-.17-.06L16.74,12.4a.06.06,0,0,0-.09,0l-.36.27h0l-.35.28c-.05,0,0,.06,0,.08l.78,1.35a.17.17,0,0,1,0,.17c-.18.14-.35.3-.52.45A.19.19,0,0,1,16,15L14.77,14a.06.06,0,0,0-.09,0,4.45,4.45,0,0,0-.32.31h0l-.31.31a.06.06,0,0,0,0,.09L15,16a.17.17,0,0,1,0,.17c-.15.16-.3.34-.45.52a.19.19,0,0,1-.18,0L13,15.91s0,0-.08,0-.18.22-.28.36h0c-.11.13-.2.25-.27.35s0,.07,0,.09l1.09,1.1a.18.18,0,0,1,.06.17c-.13.18-.27.37-.39.57a.17.17,0,0,1-.17,0L11.55,18s-.05,0-.08,0-.15.23-.23.38h0v0c-.08.13-.15.26-.21.38s0,.07,0,.09l1.23.94a.17.17,0,0,1,.07.15c-.11.2-.21.41-.32.63a.16.16,0,0,1-.16,0l-1.49-.4a.08.08,0,0,0-.08,0c0,.14-.11.26-.17.42h0c-.07.15-.12.29-.17.42a.06.06,0,0,0,0,.08L11.3,22a.15.15,0,0,1,.09.13c-.09.23-.16.46-.24.7a.14.14,0,0,1-.14,0l-1.54-.21a.06.06,0,0,0-.07.05c0,.13-.08.28-.12.44h0c0,.16-.08.3-.1.43s0,.07,0,.08l1.43.59a.16.16,0,0,1,.11.1c-.05.25-.1.49-.14.73a.17.17,0,0,1-.15.06H8.91s-.05,0-.06.06,0,.28-.07.44h0v0c0,.16,0,.31,0,.44s0,.07,0,.08l1.49.4a.18.18,0,0,1,.13.09c0,.24,0,.49-.05.73,0,.06-.07.07-.14.08l-1.54.2s0,0,0,.06,0,.29,0,.45h0c0,.16,0,.31,0,.45s0,.06,0,.06l1.54.2a.17.17,0,0,1,.14.08c0,.24,0,.48.05.73a.18.18,0,0,1-.13.09l-1.49.4s0,0,0,.08,0,.28,0,.44h0a2.7,2.7,0,0,0,.07.44c0,.06,0,.06.06.06h1.54a.2.2,0,0,1,.15.05c0,.25.09.49.14.74a.16.16,0,0,1-.11.1l-1.43.6s0,0,0,.08.06.26.1.42h0c0,.16.08.31.12.44a.06.06,0,0,0,.07.05L11,33.56a.14.14,0,0,1,.14,0c.07.24.15.47.24.7a.13.13,0,0,1-.09.12L10,35.19a.06.06,0,0,0,0,.08c.05.13.1.27.17.42h0c.07.16.13.29.18.42a.06.06,0,0,0,.08,0l1.49-.4a.16.16,0,0,1,.16,0c.1.21.21.43.32.63a.18.18,0,0,1-.08.16L11,37.51a.07.07,0,0,0,0,.09q.11.18.21.39h0c.08.15.16.28.23.39a.06.06,0,0,0,.08,0L13,37.83a.17.17,0,0,1,.17,0c.12.2.26.39.39.57a.18.18,0,0,1-.06.17l-1.09,1.1s0,0,0,.09l.26.36h0c.1.14.19.24.28.35s.06,0,.08,0l1.34-.76a.17.17,0,0,1,.18,0l.45.51a.17.17,0,0,1,0,.17l-1,1.23a.06.06,0,0,0,0,.09c.09.1.19.21.31.32a0,0,0,0,0,0,0h0a4.45,4.45,0,0,0,.32.31.06.06,0,0,0,.09,0L16,41.44a.17.17,0,0,1,.17,0l.52.45a.17.17,0,0,1,0,.18l-.77,1.34s0,0,0,.09l.36.27h0l.37.27s.06,0,.08,0l1.09-1.09a.18.18,0,0,1,.17-.06l.58.4a.17.17,0,0,1,0,.17L18,44.85a.07.07,0,0,0,0,.09l.39.23h0l.39.22a.07.07,0,0,0,.09,0l.93-1.23a.16.16,0,0,1,.14-.08l.64.32a.16.16,0,0,1,0,.16L20.24,46s0,.06,0,.08l.41.18h0l.42.16c.05,0,.07,0,.08,0L22,45.11a.13.13,0,0,1,.11-.1c.23.09.46.17.7.24a.16.16,0,0,1,0,.15l-.21,1.52s0,.06.05.07l.44.13h0l.43.11c.06,0,.07,0,.08,0l.59-1.44a.13.13,0,0,1,.11-.09l.73.13a.16.16,0,0,1,.05.14v1.55s0,0,.06.06a2.75,2.75,0,0,0,.44.06h0l.43.06c.07,0,.07,0,.09-.05l.39-1.49a.15.15,0,0,1,.08-.12l.74,0a.2.2,0,0,1,.08.14l.2,1.53s0,.05.06.06h.92a.08.08,0,0,0,.07-.06l.2-1.53a.19.19,0,0,1,.07-.14l.74,0a.18.18,0,0,1,.1.12l.4,1.49s0,.05.07.05l.44-.06h0a2.89,2.89,0,0,0,.45-.06c.05,0,.05,0,.05-.06V45.94a.17.17,0,0,1,.06-.14l.73-.13a.14.14,0,0,1,.11.09l.58,1.44a.06.06,0,0,0,.08,0l.44-.11h0l.43-.13s0,0,0-.07l-.21-1.52a.19.19,0,0,1,0-.15c.24-.07.47-.15.7-.24a.17.17,0,0,1,.13.1l.76,1.32a.06.06,0,0,0,.09,0l.42-.16h0l.42-.18c.05,0,0,0,0-.08l-.41-1.48a.18.18,0,0,1,0-.16l.65-.32a.17.17,0,0,1,.14.08l.94,1.23a.06.06,0,0,0,.08,0l.4-.22h0l.39-.23a.06.06,0,0,0,0-.09l-.59-1.42a.17.17,0,0,1,0-.17c.2-.13.4-.26.59-.4a.17.17,0,0,1,.16.06L39.67,44s0,0,.09,0l.36-.27h0l.35-.27a.07.07,0,0,0,0-.09L39.73,42a.17.17,0,0,1,0-.18c.18-.14.35-.3.52-.45a.19.19,0,0,1,.18,0l1.22.94s0,0,.08,0a4.4,4.4,0,0,0,.33-.31h0l.32-.32a.06.06,0,0,0,0-.09l-.94-1.23a.16.16,0,0,1,0-.17c.16-.16.31-.34.46-.51a.17.17,0,0,1,.18,0l1.33.76s.05,0,.09,0l.28-.35h0l.27-.36c0-.05,0-.07,0-.09l-1.09-1.1a.18.18,0,0,1-.05-.17q.2-.27.39-.57a.15.15,0,0,1,.16,0l1.44.59a.07.07,0,0,0,.08,0l.23-.39h0a3.85,3.85,0,0,0,.21-.39c0-.05,0-.07,0-.09l-1.22-.93a.21.21,0,0,1-.08-.16c.11-.2.22-.42.32-.63a.16.16,0,0,1,.16,0l1.49.4a.06.06,0,0,0,.08,0c.06-.13.12-.26.18-.42h0c.06-.15.12-.29.16-.42s0-.07,0-.08l-1.35-.77A.15.15,0,0,1,45,34.3c.08-.23.16-.46.23-.7a.16.16,0,0,1,.14,0l1.54.21a.07.07,0,0,0,.08-.05c0-.13.07-.28.12-.44h0c0-.16.08-.31.11-.42s0-.07,0-.08l-1.44-.6a.16.16,0,0,1-.11-.1c.06-.25.1-.49.15-.74a.16.16,0,0,1,.14-.05H47.5s0,0,.06-.06,0-.28.06-.44h0c0-.16,0-.31.06-.44a.07.07,0,0,0,0-.08l-1.49-.4a.14.14,0,0,1-.12-.09c0-.25,0-.49,0-.73a.2.2,0,0,1,.14-.08l1.53-.2s.05,0,.07-.06v-.45h0v-.45S47.75,27.68,47.73,27.68Z"/><path class="cls-1" d="M26.76,38.68a.14.14,0,0,1-.15.13h-1.4a.14.14,0,0,1-.15-.13V38.4a.14.14,0,0,1,.15-.13h1.4a.14.14,0,0,1,.15.13v.28Zm-1.67-1.2a.13.13,0,0,1,.14-.13h1.36a.13.13,0,0,1,.14.13v.27a.13.13,0,0,1-.14.13H25.23a.13.13,0,0,1-.14-.13v-.27Zm2.13.59h0l-.05,0,.05,0h0a.34.34,0,0,0,.19-.3v-.42a.36.36,0,0,0-.35-.34H24.74a.34.34,0,0,0-.33.34v.42a.32.32,0,0,0,.19.3h0l.05,0-.05,0h0a.33.33,0,0,0-.21.31v.49a.33.33,0,0,0,.31.34h2.43a.33.33,0,0,0,.31-.34v-.49A.33.33,0,0,0,27.22,38.07Z"/><path class="cls-1" d="M23.48,39.2h-.71V37.51a.07.07,0,0,0-.08-.07l-.12,0-.53.12v-.41L22.6,37l.08,0A.93.93,0,0,1,23,37h.42a.08.08,0,0,1,.09.09Z"/><path class="cls-1" d="M7.27,16.46c-.17-.19.19-.75.36-.4s-.19.46-.36.4ZM11,13.84a7.3,7.3,0,0,0-1.61.3,2.75,2.75,0,0,0-1.1,1.09c-.14.2-.28.48-.52.27s-.35.08-.55,0-.21-.26-.3-.42-.41,0-.57.05,0-.46-.17-.55c-.42,0-.51.26-.42.6s-.23.57-.21.92a.35.35,0,0,0,.41,0,.6.6,0,0,1,.27.4c.08.25.2.11.39.1,1,0,.31,1.2.17,1.68a1.27,1.27,0,0,0,0,.9c.09.15.33.63.38.74.23.39,1.35.93,1,.08-.25-.55-.77-.89-.67-1.55A7.32,7.32,0,0,1,8,16.4a4.36,4.36,0,0,1,1.32-1.48,1.35,1.35,0,0,1,.82-.35,2.69,2.69,0,0,0,1,0,.65.65,0,0,0-.14-.71ZM9.3,17.64h0c0,.42-.41.44-.46.3s.19-.58.41-.45c0,0,.06.07.05.09v0Zm-.78-.21c-.2-.3.16-.66.24-.95,0-.05.05-.11.14-.12s0,0,.16.08-.33,1.29-.54,1ZM10,15.33c.13,0,.52,0,.58.1.34.4-.06.75-.11,1.14s-.43.72-.09,1.28c.22.38,0,1.1-.53,1-.17-.14,0-.51-.13-.6-.63-.09-.63,1.08-1.51.72L8.19,19c-.08-.36.22-.42.29-.65-.12-.18-.4-.16-.5-.35A3.32,3.32,0,0,1,8.62,16c.15-.27.38-.47.71-.33s.1.8.29,1.09c.53,0,.22-1.06.36-1.39l.06-.06Zm-3.53-1c-.08.06-.38.31-.39.07s.27-.61.42-.9.38-.56.75-.42a3,3,0,0,1,.76.52,1.18,1.18,0,0,1,.25.78c0,.36-.14,1.1-.66.93-.15-.42.36-.53.09-.88-.32,0-.2.3-.52.27-.34-.21.1-.61-.11-.86a.41.41,0,0,0-.35.27c-.07.14-.12.14-.24.22Zm.1,2.7c.24.35-.06.91-.27,1.2s-.88.1-1.19,0-.69-.4-.46-.79a1.73,1.73,0,0,0,.1-.35c0-.31.06-.7.46-.45.14.08-.3.81-.27.91s.09.1.19.13c.41-.23,0-1,.66-.85.22.21-.09.62.1.75s.21-.51.54-.58A.29.29,0,0,1,6.61,17Z"/><path class="cls-1" d="M38.76,5.83l0,0a2,2,0,0,0-1.28-.57l-.09,0,0,0c-.09-.09-.22-.47.09-.38s.34.14.59.23a8.32,8.32,0,0,1,.8.3h0l0,0h0l.1.07c.27.24.18.51-.19.41Zm-1,.91c.07-.41.59,0,.46.3,0,0,0,0-.06,0A.5.5,0,0,1,38,7a2.68,2.68,0,0,1-.23-.22Zm.63,1.18c-.09.25-.76-.19-.75-.51,0,0,0,0,0,0,.21,0,.81.3.72.55ZM37.92,9a.48.48,0,0,0-.06-.7l-.06-.05a2.79,2.79,0,0,0-.3-.15.25.25,0,0,0-.21,0,.4.4,0,0,0-.4.4c0,.42.57.6.93.59a.24.24,0,0,0,.1-.05ZM36.64,7.29c-.11,0-.48-.25-.43-.4s.25-.2.66.07a.22.22,0,0,1,.05.12c0,.16-.05.31-.28.21Zm-.75,1c.22.13.71,0,.71-.31,0-.52-.82-.57-1-.19-.06.11.11.36.33.5Zm.88-1.91c.08-.21.4-.1.44.09,0,0,0,0,0,0a.39.39,0,0,1-.39-.09s0,0,0,0Zm-2.2.92c.08-.08.21-.17.45,0a.2.2,0,0,1,0,.08c.1.71-1,.39-.49-.11Zm-1.08.39c.22.1.94-.8.53-1.09s-.75,1-.53,1.09Zm6.13-2.45a7.77,7.77,0,0,0-2.5-1c-.44-.07-.87.88-.43,1.14.18.1.87.07.84.36h0c0,.19-.71-.16-1.24.14l-.07,0a4.57,4.57,0,0,0-.44.44c-.15.14-.37.45-.61.41s-.52-.34-.5-.39.34-.06.49-.25c.27-.36.21-.77.37-1.17s.85-.3.86-.9c0-.25-.23-.39-.4-.56l-.21-.14c-.1-.07-.51-.06-.45.25,0,.15.31.56,0,.63a2.75,2.75,0,0,1-1.23-.17,5.5,5.5,0,0,0-.58-.16l-.13,0a.43.43,0,0,0,0,.56h0l0,0a3.8,3.8,0,0,0,.38,0,1.85,1.85,0,0,1,.67.16h0c.23.1.36.19.11.27h0c-.36.13-1-.2-1.39,0l0,0c0,.06-.13.26,0,.33a1,1,0,0,0,.35.1h.76l.16,0,.13,0c.16,0,.29,0,.22.2s-1,.48-1.18.42-.48.24-.48.29A3.17,3.17,0,0,1,33,7c-.13.3-.4.7-.25,1a4.91,4.91,0,0,0,1.47.25l.16,0a6.68,6.68,0,0,1,1.4.36l.39.16a7.06,7.06,0,0,1,1.22.74c.44.52,1.13,1.36,1.39,1a2.29,2.29,0,0,0-.38-.93c-.06-.13.12-.19.19-.28A3.12,3.12,0,0,0,39,8.09c.08-.33.12-.67.21-1s-.41-.63-.75-.73c0,0-.13-.1-.12-.12.07-.28.56-.06.86.14.12.07.43.06.49,0s.16-.37.24-.5C40.12,5.51,39.88,5.36,39.62,5.22Z"/><path class="cls-1" d="M50.07,16.22c0,.43-.49.72-.85.93s-.82-.27-.9-.57c0-.14-.08-.59,0-.7s.36,0,.51-.15a.13.13,0,0,0,0-.09c0-.43.61-.16.94.11a.94.94,0,0,1,.23.47ZM51,19a4.43,4.43,0,0,1-.13-.67h0a14.85,14.85,0,0,0-.23-1.61c0-.24-.16-1.14.26-1.13a.24.24,0,0,0,.1-.12c0-.44-.24-.62-.64-.46a.5.5,0,0,1-.55,0s-.47-.27-.86-.53-1-.74-1-.74c-.34-.2-.68-.72-.89-.13.27.53.86.72,1.27,1.08.19.18.33.56-.08.42a6.84,6.84,0,0,1-1.09-.77c-.23-.13-.76-.18-.57.24a1.11,1.11,0,0,0,.55.58c.13.06.61.22.64.33a.83.83,0,0,1-.07.67c-.17.21-.65-.13-.88-.31a1.31,1.31,0,0,0-.25-.16c-.15-.09-.48-.24-.7-.35l-.41-.15c-.25-.07-1-.26-.86.28a.12.12,0,0,0,0,.06l.47.29c.2.11,1.12.39,1.46.58a3.85,3.85,0,0,1,1,.51.52.52,0,0,1,.17.3,5.59,5.59,0,0,1,.15.9,5.72,5.72,0,0,1-.27,1.58c-.13.42-.5,1.12.18,1.14s.65-2.21.69-2.7c0-.15.07-.82.36-.57.49.41.37,1.08.43,1.63,0,.16.15.2.29.24a.38.38,0,0,0,.24,0,1,1,0,0,0,.11-.62c0-.36-.19-.86,0-1.21s.25-.28.32,0v0a2.58,2.58,0,0,1,0,.36,9,9,0,0,0,.17,1.5.38.38,0,0,0,.65,0C51.08,19.4,51,19.13,51,19Z"/><path class="cls-1" d="M30.65,37.79a.13.13,0,0,1-.14.13H29.12a.14.14,0,0,1-.15-.13v-.31a.14.14,0,0,1,.15-.13h1.39a.14.14,0,0,1,.14.13v.31ZM31,37H28.6a.32.32,0,0,0-.31.34V38a.32.32,0,0,0,.31.33h1.91a.14.14,0,0,1,.14.13v.22a.14.14,0,0,1-.14.13h-1.4a.14.14,0,0,1-.12-.07h-.7v.13a.32.32,0,0,0,.31.34H31a.32.32,0,0,0,.3-.34V37.29A.32.32,0,0,0,31,37Z"/><path class="cls-1" d="M32.88,38.36a.13.13,0,0,1,.14-.13h1.39a.13.13,0,0,1,.14.13v.32a.13.13,0,0,1-.14.13H33a.13.13,0,0,1-.14-.13v-.32Zm-.38.85h2.43a.33.33,0,0,0,.31-.34v-.71a.32.32,0,0,0-.31-.33H33a.13.13,0,0,1-.14-.13v-.22a.13.13,0,0,1,.14-.13h1.39a.16.16,0,0,1,.13.07h.7v-.13a.33.33,0,0,0-.31-.34H32.5a.33.33,0,0,0-.31.34v1.58A.33.33,0,0,0,32.5,39.21Z"/><path class="cls-1" d="M3.48,29.21c0-.17,0-.57,0-.84l.55,0v0a1.22,1.22,0,0,0-.27.81c0,.27.16.44.39.43a.47.47,0,0,0,.39-.25c.17-.24.26-.52.46-.78a.89.89,0,0,1,.72-.37c.27,0,.8.11.84,1.12a6.07,6.07,0,0,1,0,.74A5.26,5.26,0,0,0,6,30.05v0a.71.71,0,0,0,.24-.64c0-.33-.21-.49-.4-.48s-.37.05-.66.63-.57.75-.85.77S3.52,30.15,3.48,29.21Z"/><path class="cls-1" d="M5.49,33.19A10.71,10.71,0,0,0,4,33.51a3.22,3.22,0,0,0,0-.38,3.81,3.81,0,0,0-.08-.41c.42,0,1.05-.12,1.38-.17,0-.22,0-.33-.07-.5s-.06-.33-.1-.51a13.59,13.59,0,0,0-1.36.29,2.2,2.2,0,0,0-.05-.38c0-.1,0-.19-.08-.41.42,0,1.16-.13,1.49-.18s1.38-.2,1.48-.37h0c0,.18,0,.3.06.42s0,.27.08.41a9.9,9.9,0,0,0-1.3.16c0,.24,0,.34.07.51s0,.25.1.5a3.56,3.56,0,0,0,1.26-.33h0a3.68,3.68,0,0,0,.06.43c0,.13.06.31.08.41C6.62,33,5.9,33.12,5.49,33.19Z"/><path class="cls-1" d="M6.83,34.62v0H5.74a1.47,1.47,0,0,0,.08.3,2.92,2.92,0,0,0,.11.32c.3-.19.61-.4.9-.6Zm-2,1.69c0-.14-.09-.26-.15-.41a5.68,5.68,0,0,0,1-.51A4,4,0,0,0,5.55,35c0-.13-.09-.27-.13-.37a2.85,2.85,0,0,0-1.06.16c-.05-.16-.06-.23-.09-.34s-.08-.23-.12-.36a4.42,4.42,0,0,0,.66.1l1,.06,1.12,0a.74.74,0,0,0,.36,0h0c.05.14.08.25.11.34l.15.39-.38.22c-.28.17-.62.39-.87.57-.43.28-.68.46-.9.61a5.67,5.67,0,0,0-.49.43C4.92,36.57,4.89,36.44,4.85,36.31Z"/><path class="cls-1" d="M7.46,38.79c-.18.09-1,.43-1.29.62a3.38,3.38,0,0,0-.27-.5c.24-.36.7-1,.91-1.29l.62-.85h0l-.8.36a11,11,0,0,0-1.21.69l-.11-.29-.15-.29a11.21,11.21,0,0,0,1.72-.65,4.27,4.27,0,0,0,1-.58h0c0,.12.1.26.16.4l.19.38c-.15.18-.5.59-.67.83l-.7,1h0l.53-.24a6.67,6.67,0,0,0,1.24-.71c0,.08.08.2.13.3a1.74,1.74,0,0,0,.14.27A12.36,12.36,0,0,0,7.46,38.79Z"/><path class="cls-1" d="M8.49,41.93a4.39,4.39,0,0,0-.51.34,5.34,5.34,0,0,1-.68-.88c-.52-.82-.42-1.46.53-2.07a1.4,1.4,0,0,1,2.15.53c.19.31.4.68.49.86a3.4,3.4,0,0,0-.56.21l0,0A1.17,1.17,0,0,0,9.71,40c-.33-.52-.88-.44-1.49,0-.87.55-.87.95-.57,1.43.14.22.27.17.39.1l.27-.17a1,1,0,0,0,.38-.37h0c.07.12.14.25.22.36a2.7,2.7,0,0,0,.22.33A6,6,0,0,0,8.49,41.93Z"/><path class="cls-1" d="M11.14,43.89a10.82,10.82,0,0,0-1.1,1,3.24,3.24,0,0,0-.23-.3l-.29-.32c.35-.24.85-.64,1.1-.85-.13-.18-.2-.26-.31-.39L10,42.68a13.3,13.3,0,0,0-1,1l-.23-.3c-.07-.09-.13-.15-.28-.31.34-.24.93-.7,1.19-.92S10.7,41.22,10.7,41h0c.11.15.19.24.27.34s.18.21.28.31a7.16,7.16,0,0,0-1,.8c.14.19.21.26.32.4l.33.38a3.48,3.48,0,0,0,.92-.93h0l.27.34c.08.1.2.23.28.31A15.13,15.13,0,0,0,11.14,43.89Z"/><path class="cls-1" d="M13,44.45v0c-.34.19-.64.36-.94.56l.23.22.25.21c.17-.31.33-.65.47-1Zm-.85,2.46c-.1-.09-.19-.18-.32-.28a5.59,5.59,0,0,0,.56-.93l-.3-.29-.3-.26a3,3,0,0,0-.84.69c-.11-.11-.16-.17-.25-.25a3.22,3.22,0,0,0-.28-.24,6.21,6.21,0,0,0,.61-.26l.92-.47c.26-.14.66-.36,1-.55a.73.73,0,0,0,.29-.23v0l.28.24.32.25a4.14,4.14,0,0,0-.21.39c-.16.29-.33.65-.47.93-.22.47-.34.74-.45,1a4.55,4.55,0,0,0-.2.62C12.38,47.1,12.28,47,12.17,46.91Z"/><path class="cls-1" d="M13.3,47.79,13,47.54a12.89,12.89,0,0,0,1-1.17,4.77,4.77,0,0,0,.81-1.28v0a3.56,3.56,0,0,0,.31.26l.37.25a12.7,12.7,0,0,0-.89,1.1A13.22,13.22,0,0,0,13.6,48Z"/><path class="cls-1" d="M16.83,48.26l-.52.92c-.26.44-.66.63-1.63.2l.09-.27c.39.17.63.18.9-.21.1-.14.32-.51.48-.79a5.09,5.09,0,0,0,.74-1.52v0l.38.23.36.19A10.17,10.17,0,0,0,16.83,48.26Z"/><path class="cls-1" d="M17.58,50.38a3.09,3.09,0,0,0-.34-.18,2.92,2.92,0,0,0-.39-.18c.28-.44.57-1,.73-1.33a4.82,4.82,0,0,0,.55-1.41v0l.35.19.41.19a10.11,10.11,0,0,0-.67,1.24,11,11,0,0,0-.65,1.5Z"/><path class="cls-1" d="M20.11,48.84h0c-.25.3-.46.57-.67.86l.28.12.33.11c0-.35.06-.73.07-1.08Zm.12,2.6a3.73,3.73,0,0,0-.4-.14A6.82,6.82,0,0,0,20,50.23l-.39-.16-.38-.13a3.17,3.17,0,0,0-.52.94l-.33-.14L18,50.62c.15-.12.38-.36.48-.46l.68-.77c.19-.23.49-.59.71-.87a.6.6,0,0,0,.18-.33v0l.34.12.4.12a3.35,3.35,0,0,0-.06.44c0,.32-.07.72-.09,1,0,.52-.05.82-.06,1.09a4.47,4.47,0,0,0,0,.65Z"/><path class="cls-1" d="M22.08,50.46c-.16.69-.08,1.21.44,1.34s.86-.44,1-1,.18-1.24-.41-1.38-.87.42-1,1.07Zm2.14.46a1.33,1.33,0,0,1-1.77,1.17c-.74-.17-1.36-.54-1.06-1.8.17-.73.55-1.49,1.77-1.2C24.21,49.33,24.45,50,24.22,50.92Z"/><path class="cls-1" d="M28.06,50.13h0a2.31,2.31,0,0,0-.81-.16c0,.1-.06.7-.09,1.35a9.28,9.28,0,0,0,0,1.39l-.41,0h-.42a10.93,10.93,0,0,0,.16-1.52c0-.32,0-.91.06-1.21a2.52,2.52,0,0,0-.89.06h0a3.43,3.43,0,0,0,.08-.42c.43,0,.79.07,1.19.09s.85.05,1.28,0A2.87,2.87,0,0,0,28.06,50.13Z"/><path class="cls-1" d="M28.91,51.24c.05.71.28,1.18.81,1.15s.7-.67.66-1.27-.18-1.24-.79-1.2-.72.66-.68,1.32Zm2.19-.18c0,.7-.1,1.55-1.36,1.64-.76,0-1.45-.13-1.54-1.42,0-.74.1-1.58,1.35-1.66C30.62,49.55,31,50.07,31.1,51.06Z"/><path class="cls-1" d="M34,50.57c0,.21.2,1,.31,1.4a3.49,3.49,0,0,0-.54.15c-.3-.31-.83-.91-1-1.17l-.7-.8h0l.18.86a9.82,9.82,0,0,0,.4,1.33l-.32,0-.31.08a12.62,12.62,0,0,0-.24-1.83,4.82,4.82,0,0,0-.33-1.14v0l.43-.07.41-.1a10.4,10.4,0,0,0,.66.84l.81.91h0l-.12-.57a6.74,6.74,0,0,0-.42-1.37l.32,0,.3-.08A11.71,11.71,0,0,0,34,50.57Z"/><path class="cls-1" d="M37.25,50.29c0,.11.11.35.21.58a5,5,0,0,1-1,.46c-.92.32-1.52.07-1.89-1a1.39,1.39,0,0,1,1-2c.34-.12.75-.24,1-.29a3,3,0,0,0,.07.6h0a1.15,1.15,0,0,0-.94,0c-.58.2-.63.75-.38,1.44.33,1,.72,1.06,1.26.88.24-.09.22-.23.18-.36l-.11-.31a1,1,0,0,0-.27-.45v0a3.1,3.1,0,0,0,.4-.13,2,2,0,0,0,.37-.14A5.39,5.39,0,0,0,37.25,50.29Z"/><path class="cls-1" d="M40.54,47c.17.31.36.67.53,1,.28.49.28,1-.54,1.45s-1.24.28-1.55-.26l-.43-.78a3.21,3.21,0,0,0-.68-1h0l.37-.2.37-.23a8.15,8.15,0,0,0,.63,1.26,5.11,5.11,0,0,0,.54.85.56.56,0,0,0,.65,0c.56-.32.4-.67.06-1.26a4.94,4.94,0,0,0-.94-1.41l.31-.17c.13-.07.19-.12.29-.18A4.67,4.67,0,0,0,40.54,47Z"/><path class="cls-1" d="M43.28,45.78c.13.16.64.84.89,1.12a3.08,3.08,0,0,0-.42.37c-.4-.15-1.14-.45-1.46-.6l-1-.41h0l.53.69a10.14,10.14,0,0,0,.94,1l-.26.18-.24.21a11.88,11.88,0,0,0-1-1.53,4.49,4.49,0,0,0-.8-.88v0l.35-.25.33-.27c.21.12.69.36.95.47l1.14.46h0l-.36-.46a6.27,6.27,0,0,0-1-1.05l.27-.19a1.92,1.92,0,0,0,.23-.19A12.27,12.27,0,0,0,43.28,45.78Z"/><path class="cls-1" d="M45.14,46l-.31.3a13.26,13.26,0,0,0-1-1.15,4.66,4.66,0,0,0-1.13-1h0l.31-.27.32-.32a10.72,10.72,0,0,0,.92,1.07,11.8,11.8,0,0,0,1.17,1.14Z"/><path class="cls-1" d="M45.57,42l.56,1c.19.34.57,1,.75,1.29a2.78,2.78,0,0,0-.33.42c-.48-.23-1-.44-1.47-.66l-1-.43a1.89,1.89,0,0,0-.49-.13h0a3.33,3.33,0,0,0,.31-.33c.1-.12.21-.24.29-.35a2.65,2.65,0,0,0,.39.26,9.59,9.59,0,0,0,.92.43c.28.13.48.22.72.31h0c-.12-.21-.37-.62-.5-.82a3.5,3.5,0,0,0-.81-1l.23-.24a2.75,2.75,0,0,0,.22-.26A3,3,0,0,0,45.57,42Z"/><path class="cls-1" d="M49.05,41.37c-.28.36-.44.6-.61.84s-.24.34-.52.77a10.52,10.52,0,0,0-1.19-.92,4.36,4.36,0,0,0-1.31-.79h0l.59-.81c.11-.16.3-.45.56-.82a1.22,1.22,0,0,0,.3.3v0a3.53,3.53,0,0,0-.73.83c.22.2.63.47.82.61a4.68,4.68,0,0,0,.44-.71,2.12,2.12,0,0,0,.31.28,3.23,3.23,0,0,0-.51.59l.44.31c.41.3.51.29.67.06a2.28,2.28,0,0,0,.41-.87l0,0A1.34,1.34,0,0,0,49.05,41.37Z"/><path class="cls-1" d="M47.54,38.48a1.66,1.66,0,0,0-.15.3c.18.12.41.24.48.28l.43.24.13-.22c.15-.27.13-.52-.28-.75a.4.4,0,0,0-.61.15Zm2.87.46c-.07.12-.12.23-.19.38a6.87,6.87,0,0,0-.78-.19,1.31,1.31,0,0,0-.61,0c-.12,0-.18.17-.27.34a12.6,12.6,0,0,0,1.27.59l-.21.36a4,4,0,0,0-.18.36A13.4,13.4,0,0,0,48.12,40a5.91,5.91,0,0,0-1.36-.62h0l.33-.59.36-.69c.3-.54.66-.55,1-.37a.75.75,0,0,1,.35,1h0a.46.46,0,0,1,.5-.25l.42.06a2.91,2.91,0,0,0,.89.06h0C50.53,38.73,50.46,38.84,50.41,38.94Z"/><path class="cls-1" d="M51.11,37.44c-.07.16-.25.51-.36.76a3.72,3.72,0,0,0-.49-.27v0a1.21,1.21,0,0,0,.59-.63.39.39,0,0,0-.18-.56.47.47,0,0,0-.45.07c-.25.14-.46.36-.75.51a.87.87,0,0,1-.81,0c-.25-.1-.67-.44-.29-1.37.07-.18.19-.45.3-.67.12.09.29.2.45.3v0a.7.7,0,0,0-.49.48c-.12.31,0,.53.17.6s.35.11.85-.3.84-.44,1.1-.33S51.46,36.57,51.11,37.44Z"/><path class="cls-1" d="M51.83,35.35a3.27,3.27,0,0,0-.12.42,11.81,11.81,0,0,0-1.43-.52,4.65,4.65,0,0,0-1.48-.33h0c.05-.14.09-.26.13-.39l.13-.43a13.56,13.56,0,0,0,1.32.48A11.33,11.33,0,0,0,52,35C51.89,35.18,51.85,35.27,51.83,35.35Z"/><path class="cls-1" d="M50,31.65v0a2.35,2.35,0,0,0-.28.77l1.31.3a10.35,10.35,0,0,0,1.38.22,3.75,3.75,0,0,0-.1.39c0,.14-.05.24-.08.41a13.27,13.27,0,0,0-1.48-.4l-1.18-.24a2.48,2.48,0,0,0-.08.88v0a2.21,2.21,0,0,0-.41-.14c.13-.43.2-.78.29-1.17s.18-.83.24-1.25A2.16,2.16,0,0,0,50,31.65Z"/><path class="cls-1" d="M50.27,28.63c.24.18.48.35,1.34.9l.67,0a3.76,3.76,0,0,0,.61,0,3.77,3.77,0,0,0,0,.41c0,.13,0,.2,0,.42a2.62,2.62,0,0,0-.57-.11l-.68-.06c-.72.29-1.33.61-1.49.69a1.21,1.21,0,0,0-.35.24h0c0-.16,0-.31.05-.47s0-.33,0-.51a.83.83,0,0,0,.32-.05c.24-.09.58-.19,1.1-.42v0c-.28-.17-.7-.39-.94-.5a1.24,1.24,0,0,0-.4-.1,3,3,0,0,0,0-.36c0-.12,0-.24,0-.35A2.4,2.4,0,0,0,50.27,28.63Z"/><path class="cls-2" d="M65.57,33c-.12.1-.14.35-.11.64a4.67,4.67,0,0,0,.25,1.07,6.33,6.33,0,0,0,1.6,1.58,1.91,1.91,0,0,0,1.61.52,4.22,4.22,0,0,0,1.58-.29,3.35,3.35,0,0,0,.77-.53,5.2,5.2,0,0,0,.57-.66A23.85,23.85,0,0,1,76.93,31c.74-.49,2.07-1.45,3-1.4a8,8,0,0,0,4.25-1.26,2.68,2.68,0,0,0,1-.83,1.9,1.9,0,0,0,.32-1.09c0-.16,0-.76-.09-.87s-.34,0-.59.07l-.42.09a8.91,8.91,0,0,0-2.57.89l-7.4,4.09a28.9,28.9,0,0,1-7.07,2.61,2.89,2.89,0,0,1-1.61-.91c-.14-.11-.09,0,0,.11s.1.41,0,.46Z"/><path class="cls-2" d="M76.49,9.29c-.12.37,0,.84.58,1.65a8.69,8.69,0,0,1,1,3.63,75.18,75.18,0,0,1,.35,8.35c0,1.38,0,2.47-.07,3.6v.11c0,.37,1.47-.42,1.83-1.11a9.29,9.29,0,0,0,.55-3,9.52,9.52,0,0,1,.27-2.11c.31-.84,1.5-.82,2.23-.94,1.5-.23,4.16-.45,5.06-1.62A2.21,2.21,0,0,0,89,16.07a4.58,4.58,0,0,0-.21-.89c-.45-1.14-7,3.43-7.57,2.16a8,8,0,0,1,.2-2.2,9.63,9.63,0,0,0,.24-3.4A5.61,5.61,0,0,0,79.84,9a4.8,4.8,0,0,0-2.56-.74,3.23,3.23,0,0,0-.79,1"/><path class="cls-2" d="M127.3,21h0a3.2,3.2,0,0,1,1.45.72A8.45,8.45,0,0,1,130,22.9c.31.26.44.5.6.49a1.76,1.76,0,0,0,.38-.6l.58-1.21a2.29,2.29,0,0,0,.26-.95c.26-.08.83.6,1.09.69s.43.4.66.68.61.7.61,1.09a3.46,3.46,0,0,1-.3,1.18c-.17.18-.42.28-.69.53s-.36.41-.35.55a1.06,1.06,0,0,0,.21.58c.11.14.27.26.38.41l.56.83v0c.17.18.3.39.49.59a7,7,0,0,1,.69,1,10.16,10.16,0,0,0,1.12,1.31l1.64,1.61a6.72,6.72,0,0,0,1.88,1,12.46,12.46,0,0,0,1.36.39c.27.11.51.17.5.28s-.28.25-.53.39a5.19,5.19,0,0,1-1.31.13,2,2,0,0,0-.43,0L139,34c-.16,0-.26.06-.38.07a1.81,1.81,0,0,0-.31.09c-.3.1-.6.14-.91.22a4,4,0,0,1-1-.21,10.12,10.12,0,0,1-1.05-.57,4.77,4.77,0,0,1-1.64-2l-.6-1.24a10.91,10.91,0,0,1-.59-1.11c-.42-.75-.82-1.76-1.19-2.32-.47-.15-1,1.1-1.24,1.37a7,7,0,0,0-.57.81,12.74,12.74,0,0,1-1.61,1.58A16.94,16.94,0,0,1,126.23,32a20.24,20.24,0,0,1-2.3,1.22,4.33,4.33,0,0,1-2.79.67,1.89,1.89,0,0,1-.66-.12,7.73,7.73,0,0,0,1.71-.48A5.47,5.47,0,0,0,124.3,32a11.57,11.57,0,0,0,1.2-1.23c.47-.5.93-.94,1.36-1.47L127.92,28l.78-1.26h0c0-.08.1-.16.15-.25a6.26,6.26,0,0,0,.46-.67,3.64,3.64,0,0,0,.6-1.06,8.09,8.09,0,0,0-1.35-2c-.26-.25-.4-.68-.7-1,0-.17-.42-.53-.58-.77m2.25-4.85h0a5.2,5.2,0,0,1-1.16,1,9.35,9.35,0,0,0-.7.67c-.37.47-.39.34-.76.64a3.6,3.6,0,0,1-.36.33c-.25.13-.29.28-.5.51a1.71,1.71,0,0,0-.39.88c0,.19.17.35.44.36s.74-.36,1.2-.58a12.5,12.5,0,0,1,1.48-.73c.18-.06.36-.05.6-.14a8,8,0,0,0,2.67-1.54,12.28,12.28,0,0,0,1-1.17c.24-.24.77-.56.94-.21a.86.86,0,0,1-.08.91,1,1,0,0,0-.26.7,8.12,8.12,0,0,0,.91-.06c.12,0,.58-.18.68-.07a1,1,0,0,0,.71.12,1.26,1.26,0,0,0,.3-2c-.15-.09-.92-.18-1.19-.31a3.54,3.54,0,0,0-2.37.37,14.62,14.62,0,0,0-1.33.88,3.91,3.91,0,0,1-.79.33c-.26.09-.55.15-.76.25s-.4.08-.34,0a.77.77,0,0,0,.17-.32,1.05,1.05,0,0,0,0-.31A1.36,1.36,0,0,1,129.55,16.15Zm.48-8a5.77,5.77,0,0,1,2.33.61c.25.15.72.3,1,.46a1.69,1.69,0,0,1,.93,1.72c0,.16-.44.61.13.31a3.35,3.35,0,0,1,.84-.19,7.31,7.31,0,0,0,1.48-.35c.11-.49.51-.37.95-.34a5.07,5.07,0,0,1,.78,0c.17,0,.45-.06.65,0,.4.09.68.36.54.81s-.81.47-1.35.62a10.13,10.13,0,0,0-2.52,1.05,12.85,12.85,0,0,1-2.17.89c-.28.09-.51.12-.48,0a6.64,6.64,0,0,1,.76-.72.77.77,0,0,0,.19-.27,2.67,2.67,0,0,0-.74.2c-.2,0-.59.15-1,.29s-1.13.33-1.68.47c-.38.1-.7.15-1.18.25-.12,0-.37,0-.67.08s-.64.08-.77.08-.23-.08-.21-.1l1.53-.66A4.93,4.93,0,0,0,130,13a5.82,5.82,0,0,0,.46-.61c0-.06.16-.19.27-.32s.09-.22.14-.36.31-.41.31-.63a3.66,3.66,0,0,0-.49-1.86A2.18,2.18,0,0,0,130,8.16Z"/><path class="cls-2" d="M182.73,8.16a4.9,4.9,0,0,1-.64,2.19l-.8,1.81-1.08,2.43a9,9,0,0,0-.7,1.2c-.35.69-.59,1.13-.74,1.47a8.18,8.18,0,0,1-1.59.29,16.68,16.68,0,0,1-3.36-.34,5.35,5.35,0,0,0,.43.59,3.88,3.88,0,0,0,.6.82,17.89,17.89,0,0,1,1.43,1.13,2.08,2.08,0,0,0,.56.31,6.33,6.33,0,0,1-1,1.94,16.92,16.92,0,0,1-1,1.66c-.43.69-.9,1.51-1.37,2.13a40.45,40.45,0,0,1-4.93,5.69c-.16.16-.48.31-.64.47s-.48.4-.72.63c-.63.82-2.85,1.71-2.64,1.74.68.34,2.36-.55,3.42-1.11a25.26,25.26,0,0,0,2.46-1.51c.45-.29.8-.54,1.17-.8A17.49,17.49,0,0,0,174.86,28L176,26.5l1.68-2.21c.52,0,1.4,1.27,1.83,1.94a11.67,11.67,0,0,1,1.07,2,11.84,11.84,0,0,0,1.09,1.92,5.77,5.77,0,0,0,1.08.88c.16.09.3.27.44.34s.55,0,.9.08a1.74,1.74,0,0,0,1.38-.69,3.7,3.7,0,0,1,.82-.89c.17-.21,2.3-.64,2.07-1.25,0-.09-.49,0-.68-.06a3,3,0,0,0-.91,0c-.44,0-.88,0-1.46-.1a4.52,4.52,0,0,1-1.66-.47c-.19-.08-.44-.23-.79-.43a40,40,0,0,1-3.37-2.79c-.48-.33-.85-.64-1.31-1l.64-1.18c.57-.78,1.09-2,1.69-2.73.15-.18.46-.4.57-.55a15.16,15.16,0,0,1,2.17-.71A9.64,9.64,0,0,0,186.45,17c.21-.19.42-.63.35-.74s-.78-.33-1-.42l-1.27,0c-.21,0-.38.07-.64-.1-.14.19.22.37-.32.49-.14,0-1.55.34-1.55.17a20.52,20.52,0,0,1,1.32-3.18,12.82,12.82,0,0,1,1-2.06,3.11,3.11,0,0,0,.12-1.69,2.89,2.89,0,0,0-1.79-1.34"/><path class="cls-2" d="M116.42,19.37c-.38,0-.73-.07-1,.23a1.38,1.38,0,0,1-.67.59c-.18.06-.45.15-.69.21s-.6.12-.57-.09a16.39,16.39,0,0,1,.14-1.65,5.09,5.09,0,0,0,.56-1.87c0-.58-.26-1.08-1.15-1.2h0l-.21,0-.58-.1h0a3.22,3.22,0,0,0-1.46.89,3.87,3.87,0,0,1-1.13.8l-.44.16a14.44,14.44,0,0,1,3.08-3.58c.29-.22.64-.49,1-.8a4.27,4.27,0,0,1,1.57-.94,12.08,12.08,0,0,1,1.13-.45,2.9,2.9,0,0,0,.83-.4.82.82,0,0,0,.1-.9,1.46,1.46,0,0,0-.71-.72.84.84,0,0,0-.93.1,9.74,9.74,0,0,1-4.21,2.1.19.19,0,0,1-.12,0,1.55,1.55,0,0,1-.07-.6c0-.28,0-.63,0-1a.18.18,0,0,0,0-.09,2.68,2.68,0,0,0-1.83-.3c-.49.17-.49.75-.5,1.35a2.67,2.67,0,0,1-.22,1.31,2,2,0,0,1-1,.83,2.21,2.21,0,0,0-.19,1.3c.11.23.71.18.92.17a2.68,2.68,0,0,1,.57,0c.46.17,1-.3,1.39-.54a3.74,3.74,0,0,1,.81-.44c.2,0,.33,0,.38.2s-.07.22-.21.35A24.28,24.28,0,0,0,108.77,17c-.32.43-.58.78-.7.91s0,.18-.23.34a3.44,3.44,0,0,1-1.82.87c-.11,0-.25,0-.28,0,0,.49.51.63.72.68s.19,0,.21.14a26.13,26.13,0,0,1-1.6,2.71.18.18,0,0,1-.07.05,7.32,7.32,0,0,1-2.46.3c-.09,0-.21,0-.06.08a3.17,3.17,0,0,0,1.07.41,4.3,4.3,0,0,0,1,0,11,11,0,0,1-.94,1.67c-.87,1.38-2,3.2-1.73,4.09a1,1,0,0,0,.54.34,10.62,10.62,0,0,0,1.54.23,5.52,5.52,0,0,0,1.44-.13c.56-.12,1.11-.37,1.71-.56.4-.14,1.62-.45,1.84-.48a5.06,5.06,0,0,1,.72,1.41,8.71,8.71,0,0,0,.45,1.3c.22.2,1.54-.13,2-.2.74-.11,1-3.87,1-3.87,0-.15.28-.15.47-.29a1,1,0,0,0,.41-.79c0-.11-.17-.22-.23-.25a.89.89,0,0,0-.6,0,20,20,0,0,1,.34-3.73l0,0a6.1,6.1,0,0,1,2.27-.36c.56,0,1.06-.08,1.24-.12a2.25,2.25,0,0,0,1.38-.94,1.45,1.45,0,0,0,.13-.48.58.58,0,0,0-.18-.41c-.44-.46-1.29-.42-1.89-.47m-8.3,0a1.51,1.51,0,0,1,.52,1,3,3,0,0,1-.58,1.7c-.35.08-.69.17-1,.24a.15.15,0,0,1-.17-.09c-.17-.41.78-2.14,1-2.71Zm2.1,9.88a.23.23,0,0,1-.3,0s-.1-.13-.15-.19a2.05,2.05,0,0,0-.46-.47c.12,0,1-.33,1.1-.23A1.34,1.34,0,0,1,110.22,29.25Zm-4.47-1.62c-.58.11-1,.11-1-.11a5.5,5.5,0,0,1,.52-1.86,14.35,14.35,0,0,1,1.14-2.41h0c.06-.06,1.67-.3,1.93-.36.27.4.87,1.09.75,1.57a.33.33,0,0,1,0,.06c-.07.09-.34.37-.31.47s.18,0,.25,0,1,.2,1,.19a1.66,1.66,0,0,0,1.19-.31l.18-.11c-.1.52-.1,1-.18,1.49A51.2,51.2,0,0,1,105.75,27.63Zm3.93-4.52-.21-.15-.26-.19.32-.08,1.35-.3a2.26,2.26,0,0,1,.59-.09s.07.05.07.08a1.48,1.48,0,0,1,0,.61c0,.32-.1.75-.18,1.2l-.06.3A7.94,7.94,0,0,0,109.68,23.11ZM111.79,21c-.36.13-.79.27-1.24.4-.66.2-1.33.38-2,.55a3.27,3.27,0,0,1,.85-1,1.32,1.32,0,0,0,.87-.16.81.81,0,0,0,.35-.51c.06-.41,0-.44-.31-.64a15.16,15.16,0,0,0-1.48-.8l.22-.15c.53-.36,1.12-.74,1.63-1a3.32,3.32,0,0,1,1.32-.55s0,.07.07.11a7.08,7.08,0,0,1,0,2,7.46,7.46,0,0,1-.25,1.76A.05.05,0,0,1,111.79,21Z"/><path class="cls-2" d="M100.25,8.55a9.71,9.71,0,0,0-1.44-.39c-.43,1.13.65,1.75,1.57,2.26.69.4,1.29.74,1.22,1.26a2.7,2.7,0,0,1-.22.45c-.1.19-.22.42-.28.55s.32-.19.4-.27a2.44,2.44,0,0,1,.91-.58h.09a1.7,1.7,0,0,0,.69.1c.46,0,1,0,1.13-.5a2.44,2.44,0,0,0,.14-.83c0-1.27-1.35-1.48-2.54-1.67a7.81,7.81,0,0,1-1.13-.22l-.54-.17"/><path class="cls-2" d="M93.15,30.94c-.26.25-.68.67-.7,1,0,.9.79,2.45,1.84,2.52a1.7,1.7,0,0,0,1.38-1c.14-.33.38-.88.49-1.2.26-.72,1.52-2.72,2-3.52,1.15-2,2.2-4.09,3.3-6.13.27-.57-.18,0-.47.44-.8,1.2-4.43,6.05-5.11,6.05,0,0-.33,0-.37-.08a.46.46,0,0,1-.06-.39c.52-1.73,3.92-7.5,5.51-8.29a2.91,2.91,0,0,1,.39-.12,1.5,1.5,0,0,0,.55-.22,1,1,0,0,0,.35-.76c0-.49-.59-1-1.19-1.46-.27-.23-.54-.46-.79-.71-1.07-1.06-1.62-1.14-1.76-1.14-.57,0-.62,1.45-.63,1.85,0,.12,0,.21,0,.26,0,.34.61.91,1,1.26s.45.38.46.5a1.87,1.87,0,0,1-.12,1.13,49.68,49.68,0,0,1-3.32,5.7,45.34,45.34,0,0,1-2.71,4.3"/><path class="cls-2" d="M196.31,18.59c.21.08.37.06.64-.22.54-.54.43-1.06.24-1.73a3.08,3.08,0,0,0-.68-1,19.19,19.19,0,0,0-1.4-1.58c-.1-.09-.14-.09-.13,0,.07.84.36,1.71.47,2.7.08.64.36,1.59.86,1.78"/><path class="cls-2" d="M208.32,26a6.91,6.91,0,0,0-1.11-.49c-.6-.29-1.07.33-1.58.58a15.86,15.86,0,0,0-1.9.47,11.69,11.69,0,0,0-2.22.89l-3.46,1.7a1.39,1.39,0,0,1-.93.12,5.11,5.11,0,0,1-.72-.27.85.85,0,0,0,0,.53c.26.55.3,1.07,1.14,1.06h.37a5.08,5.08,0,0,0,2.41-1c.33-.22.6-.5,1-.74s1-.55,1.58-.8a2.84,2.84,0,0,1,0,.87c-.19,1-.27,2.19-.37,2.94s-.08,1.56-.11,2.32c0,.52-.12,1-.34,1.07a6.11,6.11,0,0,1-.8-.15c-.8-.12-1.94-.27-2.43-.33a6.14,6.14,0,0,1-2.13-.59c-.88-.46-1.52-.84-1.48-.67a7.45,7.45,0,0,0,1.77,1.36l1.8,1.12,2.7,1.4a5.43,5.43,0,0,1,.8.4c.26.2.46.47.85.51a1,1,0,0,0,1.08-.94l0-2.24c0-.61,0-1.19.05-1.78,0-.86-.17-1.74-.17-2.63s-.19-2.45-.79-2.94a5.09,5.09,0,0,1,1.62-.38c.79,0-.82.48-.95.63s.84.29.92.27a3,3,0,0,1,1.28-.15c.44,0,.65-.3,1.1-.43s1.15-.13,1.42-.42.06-.91-.51-1.29"/><path class="cls-2" d="M210.77,17.45c-.21.08-2,.41-2.26.51l-2.1.63c.14-.29.41-.73.6-1.15h0a34.59,34.59,0,0,1,4.36-6.62l1-1.24c.16-.2.3-.63.42-.8s.24-.64,0-.81a4,4,0,0,0-1.35-.33c-.69.22-1.81.5-2.85.91-.77.3-1.51.58-2,.83a27.05,27.05,0,0,0-3.5,1.82,2.37,2.37,0,0,0-.4-.15c-.19-.11-.49-.15-.44-.18.21-.18,1.68-1.26,1.9-1.49.64-.41,2.86-1.84,2.89-2.61a2.75,2.75,0,0,0-1.38-2,4.06,4.06,0,0,0-1.19-.58c.09.46.53.82.53,1.29a1.78,1.78,0,0,1-.25.65,19.33,19.33,0,0,1-2.05,3.43,10.1,10.1,0,0,1-.85,1.13,1.07,1.07,0,0,1-.61,0c-.4-.09-.46-.08-.43.07a5.3,5.3,0,0,0,.55,1c.1.18.33.43.28.7a11.14,11.14,0,0,1-.66,1.75,6.32,6.32,0,0,1-.38.81,1,1,0,0,1-.68.33c.14-.25.09-.54-.14-1L199,12.82c-.77-1.08-1.36-2.58-2.19-3a14.33,14.33,0,0,0,.43,1.55c.16.67.51,1.73.57,2.21s.39,1.25.48,1.88c0,.33-.23.37-.19.44.18.36.54.38.93.18l.36-.2c0,.18.53.23.51.41a7.17,7.17,0,0,1-1.22,2.57c-.47.65-.55.48-.55.64s.5,0,.82-.25l1.16-1.15c.2-.22.51-.77.7-1a.61.61,0,0,1,.38.18c.13.12.23.35.43.46a6.27,6.27,0,0,0,.77.34c.09.05.34,0,.41.08s0,.15,0,.22a5.64,5.64,0,0,0,0,.7,1.89,1.89,0,0,0,.08.56l-1.59.74a22.74,22.74,0,0,0-2.24,1.19,13.66,13.66,0,0,0-3.06,2.51c-.38.4-2.11,2.38-2.57,2.38s1.58-3.16,1.8-3.65.53-1,.65-1.27c-.49.28-2.3,3.51-2.45,3.8s-.64.91-.62,1.27c.06.77-.06,1.23.4,1.33.21,0,.35-.17.53-.3a5.57,5.57,0,0,0,1.85-1.89c1.37-2.33,2.25-3.39,4.69-4.39l2.08-.85.86-.31a1.07,1.07,0,0,0,.8.34,3.88,3.88,0,0,0,1.52-1c.38-.09.9-.27,1.26-.38l2.24-.64a7.33,7.33,0,0,1,1.86-.38c0,.51-1.5,1.19-1.94,1.37l-3.68,1.54c-.35.15-1.09.48-1.61.73-.17.08-.37.25-.48.29-.69.25-1.49.65-1.23.64a7,7,0,0,0,1.92-.38,17.81,17.81,0,0,1,3.31-.82A13,13,0,0,0,211,20.26c.57-.34,1.61-1.13,1.78-1.84a.86.86,0,0,0-.19-.85c-.34-.33-1.44-.18-1.81-.12M203,15.17h0a1.71,1.71,0,0,0-.06.42c0,.12,0,.45,0,.67a.13.13,0,0,1,0,.06.4.4,0,0,1-.29.08.92.92,0,0,1-.54-.33c-.05-.19.14-.34.23-.55a7.77,7.77,0,0,1,1.52-2c.19-.18.55-.23.63-.4.21-.48-.1-1.14-.82-1.54.31-.16.71-.37.94-.31s1,1.14,1.13,1.55a1.85,1.85,0,0,1,.07,1.57A4.48,4.48,0,0,1,203.58,16a5.14,5.14,0,0,0-.47.23C203,15.77,203,15.11,203,15.17ZM204.84,18c-.37.37-.6.84-.84.88-.68.1-.74-1.69-.83-2.19a3.11,3.11,0,0,0,.33-.15,10.6,10.6,0,0,0,2.19-1c.45-.15.74,0,1.17-.76.15-.51.08-.86-.28-1.93a4.58,4.58,0,0,0-1.65-2,15.33,15.33,0,0,1,1.77-.88c.37-.12,1-.43,1.53-.62.16-.09,2.46-1.14,2.94-.85.11.07,0,.28-.09.51-1.35,2.72-3.48,5.16-5.13,7.69C205.5,17.17,205,17.86,204.84,18Z"/><path class="cls-2" d="M202.08,25.59a.51.51,0,0,0-.31.39c0,.23.86.21,1.16.06.51-.25,1.87-1.66,1.87-2.2,0-.33-.18-.34-.46-.32a5.24,5.24,0,0,0-1,0c-.13,0-.16.2-.32.3a4.13,4.13,0,0,1-1.16.49,4.55,4.55,0,0,1-2.6.22c-.42,0,.6,1,1.1,1a5.58,5.58,0,0,0,2.16-.64c.41-.41-.09.49-.41.64"/><path class="cls-2" d="M150.08,28.72a2.09,2.09,0,0,0-.59-1.27c-.05-.06-.86-.75-.88-.57,0,.5.31.22.33,1.76,0,.1-.16.32-.12.51.1.45,1.38.31,1.26-.43"/><path class="cls-2" d="M160.08,20.25h0a14.17,14.17,0,0,0,.75-3.21,1.73,1.73,0,0,0,0-1c-.28-.53-1.13-.62-1.76-.48a6.31,6.31,0,0,0-2,1.1,12.76,12.76,0,0,0-4.23,5.13c-.1.23-.1-.67-.1-.82s.2-1.1.08-1a3.58,3.58,0,0,0-.9,1.42c-.29,1.77-1.94,5,.06,6.35.15.1.6-.29.83-.15s.19-.46.3-.68c.34-.65-.12-1.24-.19-2-.11-1.19,1.25-3.92,2.07-4.88l1.3-1.67,1.48-1.09a4.38,4.38,0,0,1,1.21-.83c1.25-.77-.28,4.85-.38,5.34a15.62,15.62,0,0,0-.54,2.92c-.21,1.13-.15,2.26-.32,3.39-.11.71-.38.23-1,.18s-.36-1.79-.23-2.28c0-.54-.14-1.49.36-1.75a6,6,0,0,0,1.12-1.18c.38-.82-.31-1.12-1-1.28-.95-.24-.15-2.19-.86-2.62s-.54,1.09-.54,1.3c0,.39-.47.47-.93.63-.2.06-.05,0,0,.05a.35.35,0,0,1,.28.23c.2.89-.74,1.84-.89,2.72,0,.18-.66.95-.33,1.1a1.35,1.35,0,0,0,.69.23c.19,0,.35-.23.53-.18a23.13,23.13,0,0,1,.05,3c0,.51-.47.55-.05.94s1-.4,1.08-.53.16-.32.23-.3a2.13,2.13,0,0,1,1,1.22,1.22,1.22,0,0,0,.75.58c.78-.28.83-2.21,1-2.86-.05-.69.32-1.78.32-2.42a32.13,32.13,0,0,1,.83-4.62m-5.43,4c.39-.47.27.24.16.32C154.52,24.77,154.59,24.36,154.65,24.23Z"/><path class="cls-2" d="M152.05,14.56a5.18,5.18,0,0,0,2.14-.68,18.52,18.52,0,0,0,1.35-1.28c1-.89,2-1.84,3-2.66a7.6,7.6,0,0,1,1.5-1,10.1,10.1,0,0,1-2.18,2.9,2.55,2.55,0,0,0-.16,1.44c.08.22.25.17.39.3.3.27-2.11,2.14-1.93,2.15s.27-.06.38,0a1.81,1.81,0,0,0,1.34-.37c.23-.13.74-.28.95-.39.78-.42,1.85-.73,1.33-1.78-.15-.29-.48-.37-.64-.48-.6-.42-.06-.67.35-1.21.21-.28.69-.81.93-1.18.55-.85,1.12-1,1.4-1.88.07-.2.49-.57.45-.77-.22-1-.63-.87-1.3-.85a2,2,0,0,0-.69,0c-.26.12-.31.37-.57.58s-1.27.62-1.48.76c-1.62,1-3.21,2.09-4.78,3.22s-2.62,2.4-4.37,3c0,.73,2.28.3,2.6.22"/><path class="cls-2" d="M162.93,32.48c-1.62.12-3.5.56-5.07.13-2.4-.63-4.62-1.49-7-2.18a51.32,51.32,0,0,1-6.12-1.7,5.07,5.07,0,0,0,2.05,1.63c1,.31,3,1.05,4.13,1.56a37.66,37.66,0,0,1,4.31,2.49c1.07.7,2.3,1.77,3.49,1.42a4.31,4.31,0,0,0,1.32-1.13c.65-.68,1.61-.7,2.37-1.09.44-.23,1.77-1.23.51-1.13"/><path class="cls-2" d="M147.83,24.58a4.36,4.36,0,0,0,1.47.22c1.53-.87-1.28-3.72-2.26-3.7a8.39,8.39,0,0,0,.7,2.74c.18.41-.1.34.09.74"/><path class="cls-2" d="M65.61,45.43a2.46,2.46,0,0,0,1.22,2l.37.29c.62.49.74.83.74,1.21a.89.89,0,0,1-1,.83A1,1,0,0,1,65.9,49l-.07-.38c0-.19-.1-.22-.16-.22s-.18.22-.18.29,0,1.05,0,1.05c0,.19,0,.27.2.35a2.84,2.84,0,0,0,1.2.21,2.37,2.37,0,0,0,1.31-.34A1.7,1.7,0,0,0,69,48.46c0-.8-.36-1.37-1.34-2.1l-.22-.17c-.69-.52-.82-.78-.82-1.08,0-.45.34-.74.87-.74a.94.94,0,0,1,.8.36.87.87,0,0,1,.19.47c0,.2.1.23.17.23s.17-.21.17-.32l0-.82v-.14c0-.14-.13-.17-.18-.18a4,4,0,0,0-1.07-.14c-1.14,0-1.94.66-1.94,1.6"/><path class="cls-2" d="M74.62,44.86H73.57c-.06,0-.24,0-.24.15s0,.15.21.15l.24,0c.2.06.23.1.24.29L74,47v.11H71.47V47l0-1.49c0-.22.06-.26.19-.28l.19,0c.19,0,.21-.11.21-.15s-.08-.15-.23-.15h-2q-.24,0-.24.15c0,.07.06.15.21.15l.25,0c.19.06.23.1.25.29v2.63l0,1.44c0,.22-.07.27-.14.28l-.23,0c-.13,0-.2.08-.2.16s0,.16.22.16l.91,0h.35l.79,0c.21,0,.22-.12.22-.16a.17.17,0,0,0-.19-.16l-.35,0c-.14,0-.17-.09-.2-.28l0-1.42v-.48H74v.48l0,1.42c0,.22-.07.27-.14.28l-.24,0a.17.17,0,0,0-.19.16s0,.16.23.16l.93,0h.33l.78,0c.21,0,.22-.12.22-.16a.17.17,0,0,0-.19-.16l-.35,0c-.15,0-.18-.09-.21-.28l0-1.44V46.9l0-1.44c0-.23.07-.26.18-.28l.2,0c.2,0,.21-.13.21-.15s-.18-.15-.24-.15Z"/><path class="cls-2" d="M78.92,45h0l-1.83,4.27c-.15.35-.25.51-.52.55h-.19a.16.16,0,0,0-.17.16c0,.11.07.16.21.16l.68,0h.14l.78,0c.17,0,.2-.1.2-.16s0-.16-.19-.16h-.1c-.2,0-.2,0-.2-.1l.1-.38.37-.91h1.64l.54,1.36c-.13.05-.16.13-.16.19s.13.13.25.14l1.39,0c.23,0,.39,0,.39-.16a.16.16,0,0,0-.18-.16l-.25,0c-.07,0-.26-.05-.54-.68L79.5,45c-.08-.15-.13-.26-.29-.26s-.22.15-.29.32m.1,1.35.59,1.53h-1.2C78.46,47.78,79,46.54,79,46.36Z"/><path class="cls-2" d="M83.28,45h0l-.06,4c0,.57,0,.7-.15.74l-.3,0a.18.18,0,0,0-.2.16c0,.16.17.16.25.16l.64,0h.31l.72,0c.16,0,.24,0,.24-.16s-.06-.16-.2-.16l-.34,0c-.08,0-.17-.12-.19-.66,0,0-.06-2.24-.07-2.57l.23.24,1.29,1.31,2,2a.51.51,0,0,0,.35.17c.09,0,.19-.08.19-.3l.08-4.28c0-.38.07-.44.2-.48l.19,0c.14,0,.2-.07.2-.15s-.17-.15-.24-.15H86.89c-.09,0-.26,0-.26.15s0,.15.2.15l.33,0c.11,0,.18.09.19.52,0,0,.06,2.52.06,2.84L86,47.14l-2.06-2L83.85,45c-.15-.15-.25-.25-.36-.25s-.21.13-.21.31"/><path class="cls-2" d="M90.53,45.2a2.62,2.62,0,0,0-1.27,2.3c0,2,1.72,2.74,3.33,2.74a4.38,4.38,0,0,0,1.76-.32c.13-.07.13-.12.13-.31V48.05c0-.22.07-.27.2-.29l.18,0a.17.17,0,0,0,.17-.16c0-.15-.15-.15-.23-.15l-.82,0-1.08,0c-.07,0-.23,0-.23.15s.08.16.2.16l.24,0c.2.06.24.1.24.29v1.41c0,.11,0,.14-.09.17a1.09,1.09,0,0,1-.45.06,2.27,2.27,0,0,1-2.36-2.44,1.72,1.72,0,0,1,1.92-2,2.07,2.07,0,0,1,1.46.49.87.87,0,0,1,.22.51c0,.14.09.16.15.16s.18-.06.18-.23l0-1V45.1a.15.15,0,0,0-.17-.16l-.55-.08a8.62,8.62,0,0,0-1.26-.11,3.64,3.64,0,0,0-1.94.45"/><path class="cls-2" d="M100.53,44.86h-1c-.06,0-.24,0-.24.15s0,.15.21.15l.25,0c.19.06.23.1.24.29L100,47v.11H97.39v-1.6c0-.22.06-.26.2-.28l.18,0C98,45.15,98,45,98,45s-.08-.15-.23-.15h-2c-.15,0-.23,0-.23.15s.05.15.2.15l.25,0c.2.06.24.1.25.29v2.63l0,1.44c0,.22-.06.27-.14.28l-.22,0c-.14,0-.2.08-.2.16s0,.16.22.16l.9,0h.35l.79,0c.21,0,.23-.12.23-.16s-.07-.16-.2-.16l-.34,0c-.15,0-.18-.09-.2-.28l0-1.42v-.48H100v.48l0,1.42c0,.22-.07.27-.15.28l-.24,0a.17.17,0,0,0-.19.16s0,.16.24.16l.92,0h.33l.78,0c.21,0,.23-.12.23-.16s-.07-.16-.2-.16l-.34,0c-.15,0-.19-.09-.21-.28l0-1.44V45.46c0-.23.07-.26.19-.28l.19,0c.2,0,.21-.13.21-.15s-.17-.15-.23-.15Z"/><path class="cls-2" d="M104.91,45h0l-1.84,4.27c-.15.35-.25.51-.51.55h-.2a.15.15,0,0,0-.16.16c0,.11.07.16.21.16l.67,0h.14l.79,0c.17,0,.19-.1.19-.16s0-.16-.19-.16h-.1c-.19,0-.19,0-.19-.1l.09-.38.38-.91h1.64l.53,1.36a.19.19,0,0,0-.15.19c0,.13.12.13.25.14l1.39,0c.22,0,.38,0,.38-.16a.16.16,0,0,0-.18-.16l-.25,0c-.07,0-.25-.05-.53-.68L105.48,45c-.07-.15-.13-.26-.29-.26s-.21.15-.28.32m.1,1.35.59,1.53h-1.2C104.45,47.78,104.93,46.54,105,46.36Z"/><path class="cls-2" d="M109.72,44.86h-1c-.07,0-.25,0-.25.14s0,.16.2.16l.23,0c.11,0,.16.08.18.28v2.63l0,1.47c0,.21-.06.24-.14.25l-.23,0a.17.17,0,0,0-.19.16s0,.16.22.16l.92,0H110l.8,0c.16,0,.22-.08.22-.16s-.07-.16-.2-.16l-.34,0c-.16,0-.19-.08-.21-.25l0-1.47V45.46c0-.22.06-.26.2-.28l.19,0c.17,0,.2-.1.2-.16s0-.14-.23-.14Z"/><path class="cls-2" d="M115.53,44h-1.14c-.07,0-.26,0-.26.15s0,.16.22.16l.29,0c.21,0,.27.12.28.38l0,1.69v2.34c0,1.52,0,2.28-.58,2.86l-.36.29c-.14.07-.22.12-.22.22a.15.15,0,0,0,.15.15l.2-.06.4-.21a3.19,3.19,0,0,0,1.4-1.55,4.57,4.57,0,0,0,.19-1.44l0-1.13V44.66c0-.29.09-.35.23-.38l.22,0c.15,0,.22,0,.22-.16s-.18-.15-.25-.15Z"/><path class="cls-2" d="M118.52,44.86h-.94c-.07,0-.26,0-.26.14s0,.16.2.16l.23,0c.12,0,.17.08.18.28v2.63l0,1.47c0,.21-.06.24-.14.25l-.23,0c-.14,0-.2.08-.2.16s0,.16.22.16l.92,0h.34l.79,0c.17,0,.22-.08.22-.16s-.07-.16-.2-.16l-.34,0c-.15,0-.19-.08-.21-.25l0-1.47V46.9l0-1.44c0-.22.05-.26.19-.28l.19,0c.17,0,.2-.1.2-.16s0-.14-.23-.14Z"/><path class="cls-2" d="M122.88,45h0L121,49.28c-.15.35-.25.51-.52.55h-.19a.16.16,0,0,0-.17.16c0,.11.07.16.22.16l.67,0h.14l.78,0c.18,0,.2-.1.2-.16s0-.16-.19-.16h-.1c-.2,0-.2,0-.2-.1l.1-.38.38-.91h1.63l.54,1.36c-.13.05-.16.13-.16.19s.13.13.26.14l1.38,0c.23,0,.39,0,.39-.16a.16.16,0,0,0-.18-.16l-.25,0c-.07,0-.26-.05-.53-.67L123.45,45c-.08-.15-.13-.26-.29-.26s-.21.15-.28.32m.1,1.35c.08.21.53,1.41.59,1.53h-1.21C122.42,47.78,122.9,46.54,123,46.36Z"/><path class="cls-2" d="M126,47.5a2.74,2.74,0,0,0,3,2.74,2.83,2.83,0,0,0,3-2.87c0-1.61-1.13-2.62-3-2.62a2.77,2.77,0,0,0-3,2.75m1.21-.21c0-1.75,1-2,1.61-2a2.07,2.07,0,0,1,2,2.34c0,1.88-1.07,2.08-1.53,2.08A2.15,2.15,0,0,1,127.24,47.29Z"/><path class="cls-2" d="M134.58,44.05c0,.06-.17.8-.17.94s.05.21.16.21.14-.05.17-.16l.12-.25c.1-.14.25-.18.71-.2l1.1,0v3.18c0,.73,0,1.36,0,1.69s-.07.35-.16.37l-.27,0c-.19,0-.22.1-.22.16s0,.16.25.16l1,0h.37l.87,0c.22,0,.24-.13.24-.16s0-.16-.21-.16l-.39,0c-.16,0-.22-.11-.24-.36s0-1,0-1.7V44.57h.91c.53,0,.85.15.87.37V45c0,.09,0,.24.18.24s.15-.15.15-.2l0-.94c0-.09,0-.25-.15-.25l-.15,0-.08,0-.54,0H135.9l-.79,0-.23-.06-.12,0c-.13,0-.16.14-.18.22"/><path class="cls-2" d="M140.25,47.5a2.73,2.73,0,0,0,2.95,2.74,2.82,2.82,0,0,0,3-2.86c0-1.62-1.13-2.63-2.95-2.63a2.76,2.76,0,0,0-3,2.75m1.2-.21c0-1.75,1-2,1.62-2a2.07,2.07,0,0,1,2,2.34c0,1.88-1.07,2.08-1.53,2.08A2.15,2.15,0,0,1,141.45,47.29Z"/><path class="cls-2" d="M147.26,45h0l-.06,4c0,.57,0,.71-.15.74l-.3,0c-.12,0-.2.07-.2.16s.17.16.25.16l.64,0h.31l.71,0c.17,0,.25,0,.25-.16s-.07-.16-.21-.16l-.33,0c-.08,0-.17-.12-.19-.66,0,0-.06-2.24-.07-2.57.1.11.23.23.23.23l1.28,1.32,2.06,2a.51.51,0,0,0,.34.16c.09,0,.2-.08.2-.3l.08-4.28c0-.38.07-.44.19-.48l.2,0c.14,0,.2-.07.2-.15s-.17-.15-.24-.15h-1.58c-.09,0-.27,0-.27.15s0,.15.2.15l.34,0c.11,0,.18.1.18.52,0,0,.06,2.52.07,2.84L150,47.14l-2-2-.12-.12c-.15-.15-.25-.25-.37-.25s-.2.13-.2.31"/><path class="cls-2" d="M154.51,45.2a2.6,2.6,0,0,0-1.27,2.3c0,2,1.72,2.74,3.33,2.74a4.38,4.38,0,0,0,1.76-.32c.13-.07.13-.12.13-.31V48.05c0-.22.07-.27.2-.29l.18,0a.17.17,0,0,0,.17-.16c0-.15-.16-.15-.23-.15l-.82,0-1.08,0c-.07,0-.24,0-.24.15a.18.18,0,0,0,.2.16l.25,0c.2.06.23.1.24.29v1.42c0,.1,0,.13-.09.16a1.14,1.14,0,0,1-.46.06,2.26,2.26,0,0,1-2.35-2.43,1.93,1.93,0,0,1,.61-1.59,1.89,1.89,0,0,1,1.31-.38,2.07,2.07,0,0,1,1.46.49.79.79,0,0,1,.21.51c0,.14.1.16.16.16s.18-.06.18-.23l0-1V45.1a.15.15,0,0,0-.17-.16l-.56-.08a8.45,8.45,0,0,0-1.25-.11,3.64,3.64,0,0,0-1.94.45"/><path class="cls-2" d="M167.28,44h-.22l-.92,0c-.07,0-.25,0-.25.15s0,.16.22.16l.27,0c.2,0,.26.12.28.38v2.68a2.65,2.65,0,0,1-.44,1.92,1.49,1.49,0,0,1-1,.41,1.39,1.39,0,0,1-.94-.31c-.31-.25-.59-.66-.59-1.9v-2.8c0-.29.08-.35.23-.38l.21,0c.19,0,.21-.1.21-.16s-.17-.15-.26-.15l-1,0h-1.16c-.08,0-.26,0-.26.15s0,.16.22.16l.29,0c.21,0,.27.12.28.38v2.85a2.78,2.78,0,0,0,.74,2.18,2.66,2.66,0,0,0,1.83.57,2.52,2.52,0,0,0,1.72-.59,3.09,3.09,0,0,0,.78-2.47v-.85l0-1.69c0-.29.08-.35.23-.38l.21,0c.15,0,.23,0,.23-.16S168,44,168,44Z"/><path class="cls-2" d="M169,45h0l-.07,4c0,.57,0,.71-.15.74l-.3,0a.17.17,0,0,0-.19.16c0,.16.17.16.24.16l.64,0h.32l.71,0c.16,0,.25,0,.25-.16s-.07-.16-.21-.16l-.34,0c-.08,0-.17-.12-.18-.66l-.08-2.57.23.23,1.29,1.32,2,2a.53.53,0,0,0,.35.16c.09,0,.2-.08.2-.3l.08-4.28c0-.38.06-.44.19-.48l.19,0c.14,0,.21-.07.21-.15s-.18-.15-.25-.15h-1.58c-.08,0-.26,0-.26.15s0,.15.2.15l.33,0c.11,0,.18.1.19.52,0,0,.06,2.52.07,2.84l-1.4-1.41-2.05-2-.12-.12c-.14-.15-.24-.25-.36-.25s-.2.13-.2.31"/><path class="cls-2" d="M176.42,44.86h-.94c-.07,0-.26,0-.26.14s0,.16.2.16l.23,0c.12,0,.17.09.18.28v2.63l0,1.47c0,.21-.06.24-.14.25l-.23,0c-.14,0-.19.08-.19.16s0,.16.21.16l.92,0h.34l.79,0c.17,0,.22-.08.22-.16a.17.17,0,0,0-.19-.16l-.35,0c-.15,0-.19-.08-.21-.25l0-1.47V46.9l0-1.44c0-.22.06-.26.19-.28l.19,0c.18,0,.2-.1.2-.16s0-.14-.23-.14Z"/><path class="cls-2" d="M183,44.86h-.75c-.09,0-.28,0-.28.15s.08.15.2.15l.26,0s0,0,0,0l-.06.22c-.16.43-1,2.35-1.3,3.17L180,45.73a2.06,2.06,0,0,1-.15-.48.07.07,0,0,1,0-.06l.23,0c.13,0,.19-.07.19-.15s0-.15-.25-.15h-1.91c-.09,0-.26,0-.26.15a.14.14,0,0,0,.16.15l.25,0c.22,0,.31.09.46.45l1.77,4.15c.13.3.21.46.37.46s.23-.14.41-.55l.41-.89.53-1.18.34-.75.5-1.09c.18-.42.27-.51.34-.56a.45.45,0,0,1,.28-.07c.16,0,.21-.08.21-.15s0-.15-.23-.15Z"/><path class="cls-2" d="M187.73,44.81h-.09l-.24,0h-2.92c-.06,0-.24,0-.24.15s0,.15.2.15l.26,0c.19.06.23.1.24.29v2.63l0,1.44c0,.22-.07.27-.15.28l-.23,0a.17.17,0,0,0-.19.16s0,.16.22.16l.49,0h1.21l1.29,0c.27,0,.39,0,.46-.23a4.89,4.89,0,0,0,.1-.78q0-.24-.15-.24c-.12,0-.15.11-.17.17,0,.27-.1.38-.25.44a1.9,1.9,0,0,1-.63.08c-.73,0-.85-.1-.86-.48V47.58s1.05,0,1.05,0c.24,0,.29.12.31.2l0,.15v.09a.13.13,0,0,0,.14.13s.16,0,.16-.24l0-.45,0-.27,0-.23a.15.15,0,0,0-.14-.16l-.13.07,0,0c-.05.06-.13.07-.29.08l-1.22,0,0-1.66s1.05,0,1.05,0c.32,0,.36.1.4.2l0,.21c0,.14.08.17.14.17s.15-.13.16-.17,0-.33,0-.33l0-.13,0-.37v-.08a.13.13,0,0,0-.13-.15Z"/><path class="cls-2" d="M190,44.86h-1c-.06,0-.24,0-.24.15s0,.15.2.15l.25,0c.2.06.24.1.25.29v2.63l0,1.44c0,.22-.06.27-.14.28l-.22,0c-.14,0-.2.08-.2.16s0,.16.22.16l.57,0h.53l.86,0c.2,0,.22-.12.22-.16a.17.17,0,0,0-.17-.16l-.33,0c-.15,0-.18-.08-.2-.28l0-1.44V48l.6,0,.07,0,.21.3.45.62a3.07,3.07,0,0,0,1,1,1.58,1.58,0,0,0,.8.15h.68c.18,0,.22-.08.22-.16a.18.18,0,0,0-.18-.16h-.15a1.32,1.32,0,0,1-.71-.42c-.39-.4-.85-1-1.43-1.68l0-.06a2,2,0,0,0,.95-1.51,1.25,1.25,0,0,0-.54-1,2.51,2.51,0,0,0-1.38-.3Zm.57,2.6h0V45.4l.4,0a1,1,0,0,1,.63.22,1.13,1.13,0,0,1,.35.9,1.09,1.09,0,0,1-.42.94c-.1.07-.18.09-.44.09Z"/><path class="cls-2" d="M195.26,46.2c0,.67.33,1.14,1.14,1.62l.41.24c.6.35.65.62.65.88a.75.75,0,0,1-.23.55,1,1,0,0,1-.66.23c-.2,0-.86,0-1-.61l-.06-.33c0-.18-.12-.2-.16-.2s-.17.07-.17.26c0,0,0,.9,0,.9,0,.18,0,.25.18.31a2.84,2.84,0,0,0,1.18.19,2.09,2.09,0,0,0,1.22-.3,1.53,1.53,0,0,0,.74-1.34c0-.71-.39-1.24-1.26-1.71l-.28-.16c-.65-.36-.7-.59-.7-.82,0-.43.44-.65.87-.65a.88.88,0,0,1,.72.29.71.71,0,0,1,.16.4c0,.19.12.2.16.2s.17,0,.17-.3l0-.7V45a.16.16,0,0,0-.15-.17,4.07,4.07,0,0,0-1-.12c-1.08,0-1.86.61-1.86,1.45"/><path class="cls-2" d="M200.36,44.86h-.94c-.07,0-.26,0-.26.14s0,.16.2.16l.23,0c.11,0,.16.09.18.28v2.63l0,1.47c0,.21-.06.24-.14.25l-.23,0a.17.17,0,0,0-.19.16s0,.16.22.16l.92,0h.33l.8,0c.16,0,.22-.08.22-.16s-.07-.16-.2-.16l-.34,0c-.16,0-.19-.08-.21-.25l0-1.47V45.46c0-.22.06-.26.2-.28l.19,0c.17,0,.19-.1.19-.16s0-.14-.22-.14Z"/><path class="cls-2" d="M202.12,45c0,.06-.15.71-.15.84s.11.19.15.19a.16.16,0,0,0,.16-.15l.11-.2c.07-.11.19-.17.61-.17l1,0v2.66l0,1.44c0,.22-.07.27-.14.28l-.24,0a.17.17,0,0,0-.19.16s0,.16.22.16l.92,0h.34l.79,0c.16,0,.22-.08.22-.16a.17.17,0,0,0-.19-.16l-.35,0c-.14,0-.18-.09-.2-.27l0-1.45V45.43l.8,0c.45,0,.73.12.75.31v.08c0,.07,0,.21.16.21s.14-.14.15-.19V45c0-.08,0-.23-.14-.23h-.07l-.13,0-.47,0h-2.85l-.69,0-.2,0-.11,0c-.13,0-.16.15-.17.2"/><path class="cls-2" d="M212,44.86h-.68c-.17,0-.21.08-.21.15s.11.14.17.15.11.06.11.08l-.1.32-.73,1.29s-.15.25-.23.4l-1.1-1.87-.07-.18.09,0c.07,0,.16,0,.16-.15s0-.15-.18-.15h-1.68c-.19,0-.22.08-.22.15s.08.15.19.15l.25.08a1.42,1.42,0,0,1,.43.45c.24.36,1.2,1.85,1.24,2a1.23,1.23,0,0,1,.15.67v.56l0,.67c0,.22-.08.27-.15.28l-.23,0A.17.17,0,0,0,209,50c0,.11.08.16.23.16l.91,0h.34l.76,0c.22,0,.24-.11.24-.16a.18.18,0,0,0-.2-.16l-.34,0c-.15,0-.2-.09-.22-.28V48.16a1.1,1.1,0,0,1,.08-.49,24.46,24.46,0,0,1,1.35-2.15.79.79,0,0,1,.34-.29l.26-.08c.14,0,.23-.06.23-.16s0-.14-.22-.14Z"/></g></g></svg>